<svg xmlns="http://www.w3.org/2000/svg" width="100" height="100" fill="none"><path fill="#293349" fill-rule="evenodd" d="M21.784 16.558a4.227 4.227 0 0 0-4.226 4.226v60.432a4.227 4.227 0 0 0 4.226 4.227H53.44a4.227 4.227 0 0 0 4.227-4.227V20.784a4.227 4.227 0 0 0-4.227-4.226H21.784ZM14.5 20.784a7.284 7.284 0 0 1 7.284-7.284H53.44a7.284 7.284 0 0 1 7.284 7.284v60.432a7.284 7.284 0 0 1-7.284 7.284H21.784a7.284 7.284 0 0 1-7.284-7.284V20.784Z" clip-rule="evenodd"/><path fill="#293349" fill-rule="evenodd" d="M14.5 23.662c0-.845.684-1.529 1.529-1.529h43.165a1.529 1.529 0 1 1 0 3.058H16.03a1.529 1.529 0 0 1-1.529-1.53ZM14.5 78.338c0-.844.684-1.529 1.529-1.529h43.165a1.529 1.529 0 1 1 0 3.058H16.03a1.529 1.529 0 0 1-1.529-1.529Z" clip-rule="evenodd"/><path fill="#fff" fill-rule="evenodd" stroke="#293349" stroke-linejoin="round" stroke-width="3" d="M81.616 65.492v-4.763c0-.591-.48-1.072-1.072-1.072h-2.74c-.498 0-.917-.347-1.04-.83a17.16 17.16 0 0 0-1.877-4.512c-.255-.43-.207-.967.145-1.32l1.75-1.75c.616-.615.616-1.294.197-1.712l-3.368-3.368a1.07 1.07 0 0 0-1.516 0l-1.942 1.942a1.081 1.081 0 0 1-1.324.15 17.186 17.186 0 0 0-4.512-1.876c-.483-.124-.83-.537-.83-1.036v-2.468c0-.87-.48-1.35-1.072-1.35h-4.763c-.591 0-1.072.48-1.072 1.072v2.74c0 .5-.346.918-.83 1.042a17.182 17.182 0 0 0-4.512 1.875 1.075 1.075 0 0 1-1.32-.146l-1.75-1.748c-.615-.616-1.293-.616-1.711-.197l-3.369 3.368a1.07 1.07 0 0 0 0 1.515l1.943 1.943c.352.352.404.895.15 1.324a17.16 17.16 0 0 0-1.877 4.512c-.124.483-.537.83-1.036.83h-2.467c-.87 0-1.35.48-1.35 1.072v4.763c0 .591.48 1.072 1.072 1.072h2.74c.499 0 .917.346 1.041.83a17.14 17.14 0 0 0 1.876 4.512c.255.429.206.967-.146 1.32l-1.748 1.75c-.616.615-.616 1.294-.198 1.713l3.369 3.367a1.07 1.07 0 0 0 1.515 0l1.942-1.941a1.082 1.082 0 0 1 1.324-.151 17.138 17.138 0 0 0 4.512 1.876c.484.124.83.536.83 1.036v2.67c0 .766.388 1.147.864 1.147h4.971c.591 0 1.072-.48 1.072-1.07V80.88c0-.499.347-.917.83-1.041a17.185 17.185 0 0 0 4.512-1.876 1.075 1.075 0 0 1 1.32.146l1.75 1.75c.615.614 1.293.614 1.712.196l3.368-3.367a1.072 1.072 0 0 0 0-1.517l-1.942-1.942a1.081 1.081 0 0 1-.15-1.324 17.14 17.14 0 0 0 1.876-4.512c.124-.484.538-.83 1.036-.83h2.468c.87 0 1.35-.481 1.35-1.072Z" clip-rule="evenodd"/><circle cx="59.854" cy="62.931" r="15.288" fill="#00C26D"/><path fill="#293349" fill-rule="evenodd" d="M59.914 57.325a5.666 5.666 0 1 0 .001 11.333 5.666 5.666 0 0 0-.001-11.333ZM51.19 62.99a8.724 8.724 0 1 1 17.447.002 8.724 8.724 0 0 1-17.447-.002ZM50.732 29.805a1.529 1.529 0 0 1-1.522 1.535l-5.81.024a1.529 1.529 0 1 1-.012-3.057l5.809-.025a1.529 1.529 0 0 1 1.535 1.523Zm-9.682.04a1.529 1.529 0 0 1-1.522 1.536l-13.556.057a1.529 1.529 0 0 1-.013-3.058l13.556-.057a1.529 1.529 0 0 1 1.535 1.523Zm-17.428.074a1.529 1.529 0 0 1-1.523 1.535l-.968.004a1.529 1.529 0 1 1-.013-3.057l.969-.004a1.529 1.529 0 0 1 1.535 1.522ZM19.596 40.046c0-.844.684-1.529 1.529-1.529h.611c.5 0 .944.24 1.223.612a1.526 1.526 0 0 1 1.223-.612h8.561c.5 0 .944.24 1.224.612a1.526 1.526 0 0 1 1.223-.612h3.669a1.529 1.529 0 1 1 0 3.058h-3.67c-.5 0-.944-.24-1.222-.612a1.527 1.527 0 0 1-1.224.612h-8.56c-.5 0-.945-.24-1.224-.612a1.527 1.527 0 0 1-1.223.612h-.611a1.529 1.529 0 0 1-1.53-1.529ZM33.983 51.205a1.529 1.529 0 0 1-1.522 1.535l-2.344.01a1.521 1.521 0 0 1-.783-.212 1.522 1.522 0 0 1-.78.218l-5.47.022a1.521 1.521 0 0 1-.782-.211 1.522 1.522 0 0 1-.78.217l-.391.002a1.529 1.529 0 0 1-.012-3.058l.39-.001a1.52 1.52 0 0 1 .782.211c.229-.137.495-.216.781-.218l5.47-.022c.285 0 .553.076.782.212.228-.137.495-.217.78-.218l2.345-.01a1.529 1.529 0 0 1 1.534 1.523ZM52.703 34.901c.002.845-.68 1.531-1.525 1.533l-6.217.018a1.529 1.529 0 0 1-.008-3.058l6.216-.017c.845-.002 1.531.68 1.534 1.524Zm-10.362.029c.002.844-.68 1.53-1.525 1.533l-14.506.04a1.529 1.529 0 1 1-.009-3.058l14.507-.04c.844-.002 1.53.68 1.533 1.525Zm-18.651.05c.002.845-.68 1.531-1.525 1.534l-1.036.003a1.529 1.529 0 0 1-.009-3.058l1.037-.003c.844-.002 1.53.68 1.533 1.525ZM38.91 46.109a1.529 1.529 0 0 1-1.522 1.536l-3.363.017a1.525 1.525 0 0 1-1.123-.483 1.524 1.524 0 0 1-1.12.495l-7.847.04a1.525 1.525 0 0 1-1.123-.484 1.525 1.525 0 0 1-1.119.495l-.56.003a1.529 1.529 0 1 1-.016-3.058l.56-.003c.444-.002.843.184 1.124.484a1.525 1.525 0 0 1 1.119-.495l7.847-.04c.443-.002.843.184 1.124.484a1.524 1.524 0 0 1 1.119-.495l3.363-.017a1.529 1.529 0 0 1 1.537 1.521Z" clip-rule="evenodd"/></svg>
