<svg width="528" height="219" viewBox="0 0 528 219" fill="none" xmlns="http://www.w3.org/2000/svg">
<path d="M39.4062 218.156C39.4062 218.156 5.63734 205.754 5.19182 176.238C4.7463 146.723 28.0863 116.47 58.3818 103.896C88.6774 91.3214 115.281 82.9689 127.547 70.5494C139.813 58.1298 168.008 38.2949 187.947 38.2949C207.887 38.2949 223.334 42.4894 235.364 35.3834C247.393 28.2774 309.784 -1.11102 347.472 1.07264C385.159 3.2563 426.866 8.47888 453.47 42.0162C480.074 75.5536 472.909 132.329 450.742 165.675C428.575 199.021 409.827 218.165 409.827 218.165L39.4062 218.156Z" fill="white"/>
<path d="M245.23 44.8202C245.223 45.0782 245.186 45.3346 245.121 45.5844C245.057 45.8253 245.021 46.0725 245.012 46.3214V35.7671C245.021 35.5212 245.058 35.2771 245.121 35.0392C245.185 34.7892 245.222 34.5329 245.23 34.2749V44.8202Z" fill="white"/>
<g opacity="0.4">
<path d="M245.23 44.8202C245.223 45.0782 245.186 45.3346 245.121 45.5844C245.057 45.8253 245.021 46.0725 245.012 46.3214V35.7671C245.021 35.5212 245.058 35.2771 245.121 35.0392C245.185 34.7892 245.222 34.5329 245.23 34.2749V44.8202Z" fill="white"/>
</g>
<path d="M245.229 34.2748V44.8201C245.231 44.6148 245.194 44.411 245.12 44.2196C245.055 44.0344 244.963 43.8597 244.847 43.7009C243.883 42.4089 241.21 41.6265 236.664 41.308V30.7537C241.21 31.0721 243.856 31.8546 244.847 33.1466C244.965 33.3051 245.06 33.4797 245.129 33.6652C245.199 33.8605 245.233 34.0672 245.229 34.2748Z" fill="#293349"/>
<path d="M244.992 46.3214V35.7671C244.99 35.9493 245.017 36.1308 245.074 36.3039C245.141 36.4931 245.236 36.671 245.356 36.8316C246.265 38.0781 248.92 38.9243 253.221 39.3519V49.9063C248.92 49.4695 246.283 48.6234 245.365 47.3769C245.24 47.2196 245.144 47.0407 245.083 46.8492C245.023 46.6797 244.992 46.5012 244.992 46.3214Z" fill="#00C26D"/>
<path d="M244.992 46.3214V35.7671C244.99 35.9493 245.017 36.1308 245.074 36.3039C245.141 36.4931 245.236 36.671 245.356 36.8316C246.265 38.0781 248.92 38.9243 253.221 39.3519V49.9063C248.92 49.4695 246.283 48.6234 245.365 47.3769C245.24 47.2196 245.144 47.0407 245.083 46.8492C245.023 46.6797 244.992 46.5012 244.992 46.3214Z" fill="#293349"/>
<path d="M237.018 29.3523H235.936V87.9289H237.018V29.3523Z" fill="#293349"/>
<path d="M238.075 28.1238C238.073 28.4383 237.978 28.7453 237.802 29.0059C237.626 29.2666 237.377 29.4692 237.086 29.5884C236.795 29.7075 236.476 29.7377 236.168 29.6753C235.86 29.6128 235.577 29.4604 235.355 29.2374C235.134 29.0144 234.983 28.7306 234.922 28.422C234.862 28.1134 234.894 27.7937 235.015 27.5033C235.135 27.2129 235.339 26.9647 235.601 26.7902C235.862 26.6156 236.169 26.5225 236.484 26.5225C236.693 26.5225 236.901 26.5639 237.095 26.6445C237.288 26.7251 237.464 26.8432 237.612 26.992C237.76 27.1409 237.877 27.3175 237.956 27.5117C238.036 27.7059 238.076 27.9139 238.075 28.1238Z" fill="#293349"/>
<path d="M300.101 94.9255V155.003L233.663 144.859L233.281 87.1462L300.101 94.9255Z" fill="#00B25D"/>
<path d="M183.328 105.035V168.961L301.31 155.45V93.8342L183.328 105.035Z" fill="#00C26D"/>
<g opacity="0.1">
<path d="M183.328 105.035V168.961L301.31 155.45V93.8342L183.328 105.035Z" fill="#1C2535"/>
</g>
<path d="M301.31 97.2549L183.328 109.056V111.558L301.31 99.8753V97.2549Z" fill="#00C26D"/>
<path d="M301.31 102.023L183.328 113.824V116.326L301.31 104.634V102.023Z" fill="#00C26D"/>
<path d="M187.939 106.899V209.831L301.766 192.444L302.421 93.5605L187.939 106.899Z" fill="#00B25D"/>
<path d="M361.666 121.702V215.691L188.912 202.689V105.334C188.912 105.334 205.278 103.632 242.066 106.981C262.814 108.864 294.692 108.8 354.856 112.185C354.847 112.212 360.639 121.648 361.666 121.702Z" fill="white"/>
<path d="M193.656 106.326C247.765 105.943 304.737 111.939 358.8 114.514C304.701 112.394 247.765 106.844 193.656 106.326Z" fill="#ECECEC"/>
<path d="M365.966 118.045V217.593L185.875 210.596V105.034L365.966 118.045Z" fill="#00C26D"/>
<g opacity="0.1">
<path d="M365.966 118.045V217.593L185.875 210.596V105.034L365.966 118.045Z" fill="#1C2535"/>
</g>
<path d="M185.875 110.894L365.966 124.933V129.228L185.875 115.38V110.894Z" fill="#00C26D"/>
<path d="M185.875 119.055L365.966 133.094V137.389L185.875 123.541V119.055Z" fill="#00C26D"/>
<path d="M185.874 105.034H183.328V210.587H185.874V105.034Z" fill="#00C26D"/>
<path d="M185.874 105.034H183.328V210.587H185.874V105.034Z" fill="#00C26D"/>
<path d="M365.965 217.593H221.361L365.965 112.695V217.593Z" fill="#00C26D"/>
<path d="M340.988 130.81L315.803 149.08V217.593H340.988V130.81Z" fill="#00C26D"/>
<path d="M291.973 217.592L292.2 166.194L280.717 174.538V217.592H291.973Z" fill="#00C26D"/>
<path d="M365.966 119.219C323.068 150.973 274.761 186.321 231.518 217.592C274.415 185.838 322.723 150.499 365.966 119.219Z" fill="#1C2535"/>
<g opacity="0.2">
<path d="M365.965 217.593H221.361L365.965 112.695V217.593Z" fill="white"/>
</g>
<path d="M65 218.173L310.301 115.041L186.255 105.615L293.162 94.1415L234.417 88L302.827 94.1415L211.741 105.506L366.374 113.276L221.77 218.173H65Z" fill="#00C26D"/>
<g opacity="0.5">
<path d="M65 218.173L310.301 115.041L186.255 105.615L293.162 94.1415L234.417 88L302.827 94.1415L211.741 105.506L366.374 113.276L221.77 218.173H65Z" fill="white"/>
</g>
<g opacity="0.3">
<path d="M280.717 174.538L166.936 174.565L187.293 166.012L292.2 166.194L280.717 174.538Z" fill="#00C26D"/>
</g>
<g opacity="0.3">
<path d="M315.803 149.08L340.988 130.81H271.005L227.58 149.071L315.803 149.08Z" fill="#00C26D"/>
</g>
<path d="M130.939 205.619C126.848 203.545 118.101 199.641 118.101 199.641L117.983 176.749L95.6156 176.813C95.6156 176.813 95.5156 199.732 95.5156 199.75C95.5793 201.889 95.752 201.37 95.8429 203.099L130.939 205.619Z" fill="#FF9581"/>
<path d="M134.104 211.724C132.894 212.134 97.8526 212.188 96.5251 211.351C96.2958 210.938 96.168 210.477 96.1523 210.004C95.9068 208.33 95.7249 205.301 95.5977 201.734C97.7343 201.961 104.69 201.834 108.772 202.262C113.2 202.717 129.139 205.482 129.948 205.173C130.967 205.643 131.954 206.178 132.903 206.774C134.249 207.794 135.331 211.315 134.104 211.724Z" fill="#293349"/>
<path d="M134.112 211.724C133.558 211.906 126.175 212.024 118.092 212.015L122.165 201.479C126.229 203.299 132.012 206.028 132.885 206.711C134.249 207.793 135.331 211.315 134.112 211.724Z" fill="#1C2535"/>
<path d="M94.1234 199.186L119.464 198.731C119.464 198.731 119.173 155.968 118.9 142.193C118.591 126.47 116.4 79.3306 116.4 79.3306L97.4603 79.8583C97.4603 79.8583 93.6961 90.8858 94.0871 97.6824C94.1962 99.6477 95.5146 102.496 96.0965 104.588L97.3239 143.567L94.1234 199.186Z" fill="#293349"/>
<path d="M95.8782 194.573C96.5471 194.472 97.2209 194.409 97.8967 194.382C98.6423 194.318 99.3878 194.245 100.133 194.2C101.579 194.118 103.016 194.072 104.461 194.036C107.371 193.981 110.28 193.954 113.19 194.036C114.845 194.036 116.5 194.1 118.154 194.163C118.164 194.167 118.172 194.174 118.178 194.183C118.184 194.192 118.187 194.203 118.187 194.213C118.187 194.224 118.184 194.234 118.178 194.243C118.172 194.252 118.164 194.259 118.154 194.263C115.272 194.418 112.39 194.509 109.498 194.618C106.607 194.727 103.734 194.827 100.852 194.818C100.024 194.818 99.1969 194.818 98.3695 194.818C97.5421 194.818 96.6965 194.818 95.8873 194.736C95.8656 194.738 95.8443 194.73 95.8281 194.716C95.8119 194.701 95.8021 194.681 95.8009 194.659C95.7997 194.637 95.8072 194.616 95.8217 194.6C95.8362 194.584 95.8565 194.574 95.8782 194.573Z" fill="#2B454E"/>
<path d="M116.337 171.49C116.446 164.657 116.428 156.196 116.428 149.363C116.428 135.684 116.149 122.018 115.592 108.364C115.282 100.703 114.873 93.0515 114.428 85.3905C114.428 85.3086 114.555 85.3086 114.564 85.3905C115.673 99.093 116.328 112.823 116.719 126.562C117.11 140.3 117.246 155.522 116.955 169.188C116.783 176.859 117.074 184.365 116.564 192.017C116.564 192.09 116.455 192.09 116.464 192.017C116.574 185.12 116.237 178.387 116.337 171.49Z" fill="#2B454E"/>
<path d="M138.604 205.701H158.944C154.925 203.654 145.942 199.641 145.942 199.641L144.896 176.749L122.529 176.813C122.529 176.813 123.357 199.732 123.357 199.75C123.42 201.889 124.002 201.37 124.102 203.099L138.604 205.619V205.701Z" fill="#FF9581"/>
<path d="M161.953 211.724C160.734 212.134 125.701 212.188 124.365 211.351C124.136 210.938 124.008 210.477 123.992 210.004C123.747 208.33 123.565 205.301 123.438 201.734C125.574 201.961 132.53 201.834 136.612 202.262C141.04 202.717 156.979 205.482 157.788 205.173C158.807 205.643 159.794 206.178 160.743 206.774C162.089 207.794 163.171 211.315 161.953 211.724Z" fill="#293349"/>
<path d="M109.118 103.86C109.118 103.86 120.42 136.351 120.774 142.365C121.074 147.497 121.875 198.777 121.875 198.777L146.633 198.212C146.633 198.212 142.696 145.231 142.141 139.891C141.232 131.474 136.686 112.358 130.703 91.6681C129.576 87.8103 125.921 79.1121 125.921 79.1121L98.0527 79.8854C98.0527 79.8854 98.6528 92.6962 104.736 101.804C104.736 101.758 107.409 102.95 109.118 103.86Z" fill="#293349"/>
<path d="M123.129 193.936C125.857 193.791 128.784 193.636 131.557 193.618C134.331 193.6 137.076 193.563 139.831 193.618C141.395 193.618 142.95 193.618 144.514 193.754V193.836C141.786 194.054 138.959 194.1 136.176 194.155C133.394 194.209 130.666 194.255 127.902 194.218C126.348 194.218 124.784 194.173 123.229 194.118C123.056 194.145 122.965 193.936 123.129 193.936Z" fill="#2B454E"/>
<path d="M123.911 82.0787C124.911 85.1904 136.34 129.828 137.667 136.07C138.995 142.311 142.486 190.297 142.486 191.107C142.49 191.117 142.492 191.127 142.491 191.137C142.489 191.148 142.486 191.158 142.48 191.166C142.474 191.175 142.466 191.182 142.457 191.187C142.448 191.192 142.438 191.194 142.427 191.194C142.417 191.194 142.407 191.192 142.397 191.187C142.388 191.182 142.38 191.175 142.375 191.166C142.369 191.158 142.365 191.148 142.364 191.137C142.363 191.127 142.364 191.117 142.368 191.107C141.65 185.366 137.822 138.754 137.222 136.516C135.576 130.347 124.575 85.6818 123.702 82.1242C123.696 82.0965 123.701 82.0674 123.716 82.0436C123.732 82.0197 123.756 82.0029 123.783 81.9968C123.811 81.9908 123.84 81.996 123.864 82.0114C123.888 82.0267 123.905 82.051 123.911 82.0787Z" fill="#2B454E"/>
<path d="M115.717 101.886C114.431 102.131 113.126 102.268 111.817 102.295C110.519 102.278 109.223 102.193 107.934 102.041C106.678 102.006 105.421 102.048 104.17 102.168C102.899 102.237 101.624 102.118 100.388 101.813C100.333 101.813 100.306 101.886 100.388 101.904C101.602 102.275 102.846 102.543 104.106 102.705C105.407 102.85 106.698 102.65 107.998 102.705C109.324 102.834 110.658 102.876 111.989 102.832C113.294 102.731 114.579 102.453 115.808 102.004C115.808 102.004 115.763 101.877 115.717 101.886Z" fill="#2B454E"/>
<path d="M117.937 130.183C117.637 129.182 117.364 128.172 117.028 127.18C116.4 125.17 115.773 123.15 115.082 121.157C113.718 117.19 112.427 113.196 110.99 109.256C110.172 107.018 109.436 104.707 108.49 102.56H108.408C108.908 104.607 109.59 106.608 110.227 108.628C110.863 110.648 111.5 112.65 112.154 114.652C113.464 118.637 114.755 122.631 116.164 126.58C116.564 127.69 116.973 128.791 117.4 129.892C117.828 130.993 118.192 132.175 118.701 133.258C118.705 133.268 118.712 133.276 118.721 133.282C118.73 133.288 118.74 133.291 118.751 133.291C118.761 133.291 118.772 133.288 118.781 133.282C118.789 133.276 118.796 133.268 118.801 133.258C118.637 132.221 118.273 131.202 117.937 130.183Z" fill="#2B454E"/>
<path d="M119.099 28.8878C119.099 28.8878 114.389 26.2674 109.434 30.6256C103.542 35.8209 105.206 53.8179 104.843 55.4101C104.479 57.0024 103.761 57.3845 103.515 58.8221C103.27 60.2597 104.424 61.2059 104.588 61.7246C104.752 62.2432 103.27 64.8545 103.27 64.8545C103.27 64.8545 111.153 67.0017 116.117 66.0737C121.081 65.1456 126.682 61.7882 126.682 61.7882C126.166 61.0838 125.79 60.287 125.573 59.4408C125.573 58.6856 126.482 57.6848 126.419 56.32C126.355 54.9552 124.3 53.2629 124.091 52.5259C123.882 51.7889 125.082 38.1956 123.927 33.4189C122.773 28.6421 119.099 28.8878 119.099 28.8878Z" fill="#293349"/>
<path d="M126.939 61.4066C126.499 60.8951 126.132 60.3257 125.848 59.7143C125.779 59.5504 125.751 59.3726 125.766 59.1957C126.02 58.0947 126.993 57.1303 126.811 55.9566C126.415 55.0607 125.839 54.2556 125.12 53.5909C124.734 53.2127 124.454 52.7386 124.311 52.2171C124.311 52.0169 124.311 51.8622 124.311 51.6893C124.547 46.0391 125.011 40.3252 124.138 34.7023C123.964 33.3783 123.532 32.1014 122.865 30.9446C123.617 32.0826 124.122 33.3659 124.347 34.7114C125.447 40.3161 125.02 46.0846 124.702 51.753C124.702 51.9077 124.702 52.0897 124.702 52.2262C124.837 52.6711 125.077 53.0769 125.402 53.409C126.147 54.1194 126.724 54.9864 127.093 55.9475C127.257 57.2122 126.257 58.1493 125.911 59.2594C125.889 59.4161 125.907 59.5761 125.966 59.7234C126.222 60.3374 126.551 60.9179 126.948 61.4521L126.939 61.4066Z" fill="#293349"/>
<path d="M102.889 64.145C103.216 63.4444 103.68 62.58 103.953 61.8795C103.899 61.7714 103.832 61.6705 103.753 61.5792C103.073 60.8349 102.705 59.8577 102.725 58.8496C102.816 57.6395 103.635 56.6205 104.062 55.5559C104.298 54.8224 104.381 54.0483 104.307 53.2813C104.18 46.6575 104.171 35.4299 109.299 30.6349C109.877 30.0568 110.555 29.5883 111.299 29.252C110.592 29.5946 109.947 30.0528 109.39 30.6076C104.562 35.5573 104.671 46.5574 104.689 53.1721C104.78 54.0062 104.677 54.8499 104.389 55.6378C103.935 56.7661 103.116 57.6304 102.98 58.8405C102.917 59.6096 103.119 60.3771 103.553 61.0151C103.707 61.2699 103.889 61.5064 104.044 61.7612C104.07 61.8023 104.085 61.8491 104.089 61.8976C103.731 62.6801 103.33 63.4425 102.889 64.1814V64.145Z" fill="#293349"/>
<path d="M111.98 49.596C111.98 50.151 113.799 54.1453 116.236 54.5093C117.036 54.6366 117.918 50.3239 117.918 50.3239L118.054 50.0237L119.982 45.7746L115.436 41.3254L114.772 40.7158L113.772 43.4454C113.752 43.5195 113.727 43.5924 113.699 43.6638C113.699 43.7456 113.635 43.8275 113.608 43.9003C113.517 44.1278 113.435 44.3553 113.353 44.5827C113.272 44.8102 113.235 44.9194 113.172 45.1104C113.108 45.3015 113.053 45.4744 112.99 45.6563C112.567 46.9459 112.23 48.262 111.98 49.596Z" fill="#FF9581"/>
<path d="M113.791 43.409C113.98 44.7549 114.46 46.0435 115.196 47.1856C115.933 48.3277 116.908 49.2961 118.055 50.0237L119.983 45.7746L115.437 41.3254L114.773 40.7158L113.791 43.409Z" fill="#293349"/>
<path d="M126.684 37.1588C129.193 45.2201 124.629 47.6222 122.892 48.1499C121.31 48.6412 115.855 50.0879 112.527 42.3268C109.199 34.5657 112.172 30.8626 115.727 29.5888C119.283 28.315 124.183 29.0975 126.684 37.1588Z" fill="#FF9581"/>
<path d="M125.212 35.7216C125.03 35.8125 124.848 35.8671 124.666 35.9399C124.486 36.0475 124.274 36.0893 124.066 36.0582C124.004 36.038 123.95 35.9973 123.914 35.9428C123.878 35.8883 123.861 35.8232 123.866 35.758C123.895 35.6275 123.958 35.5071 124.049 35.4095C124.141 35.3119 124.256 35.2405 124.384 35.2029C124.629 35.0871 124.907 35.0645 125.166 35.1392C125.225 35.1595 125.276 35.1964 125.314 35.2455C125.352 35.2945 125.375 35.3536 125.38 35.4155C125.385 35.4773 125.371 35.5393 125.342 35.5936C125.312 35.648 125.267 35.6925 125.212 35.7216Z" fill="#293349"/>
<path d="M120.4 38.3504C120.6 38.3504 120.782 38.3504 120.982 38.3504C121.189 38.38 121.399 38.3416 121.582 38.2412C121.633 38.1992 121.668 38.1417 121.683 38.0776C121.698 38.0135 121.691 37.9463 121.664 37.8864C121.59 37.7749 121.488 37.685 121.369 37.6258C121.249 37.5667 121.115 37.5404 120.982 37.5497C120.712 37.5322 120.444 37.613 120.228 37.7772C120.175 37.8163 120.136 37.8706 120.116 37.9327C120.095 37.9948 120.094 38.0617 120.113 38.1244C120.132 38.187 120.17 38.2423 120.221 38.2827C120.272 38.3232 120.335 38.3468 120.4 38.3504Z" fill="#293349"/>
<path d="M124.773 38.0325C124.883 38.6057 125.092 39.2335 125.683 39.3154C125.046 39.4245 124.773 38.5875 124.773 38.0325Z" fill="#293349"/>
<path d="M125.148 37.3411C126.057 37.0864 126.494 38.8788 125.666 39.1608C124.839 39.4429 124.403 37.5595 125.148 37.3411Z" fill="#293349"/>
<path d="M125.555 37.3676C125.719 37.4222 125.91 37.5587 126.082 37.5314C126.255 37.5041 126.373 37.2584 126.455 37.04C126.546 37.3767 126.528 37.7679 126.21 37.9499C125.892 38.1319 125.628 37.8498 125.455 37.5223C125.464 37.4404 125.491 37.3403 125.555 37.3676Z" fill="#293349"/>
<path d="M122.719 43.7189C122.882 43.828 123.046 43.9918 123.255 43.9736C123.464 43.934 123.663 43.8502 123.837 43.728C123.773 43.8525 123.676 43.9576 123.558 44.0328C123.44 44.1079 123.304 44.1503 123.164 44.1556C123.043 44.1459 122.928 44.0999 122.834 44.0235C122.74 43.9472 122.671 43.8442 122.637 43.728C122.637 43.728 122.7 43.7098 122.719 43.7189Z" fill="#293349"/>
<path d="M124.601 41.1625C124.601 41.1625 124.91 41.9723 125.001 42.3635C125.001 42.3635 124.919 42.4454 124.783 42.4818C124.459 42.623 124.102 42.6714 123.752 42.6216C123.402 42.5718 123.073 42.4257 122.801 42.1997C122.801 42.1997 122.801 42.1178 122.801 42.136C123.381 42.362 124.018 42.397 124.619 42.2361C124.619 42.1178 124.046 40.8622 124.11 40.844C124.412 40.8018 124.718 40.8018 125.019 40.844C124.419 39.1335 123.555 37.5412 122.992 35.8307C122.992 35.767 123.055 35.7306 123.083 35.8307C124.085 37.4937 124.919 39.2523 125.574 41.0806C125.656 41.299 124.774 41.1898 124.601 41.1625Z" fill="#293349"/>
<path d="M124.71 42.3453C124.559 42.7013 124.321 43.014 124.019 43.2552C123.846 43.3872 123.636 43.4634 123.419 43.4735C122.937 43.4735 122.81 43.0823 122.792 42.7093C122.77 42.5158 122.77 42.3205 122.792 42.127C123.391 42.4041 124.064 42.4807 124.71 42.3453Z" fill="#293349"/>
<path d="M120.291 39.2607C120.431 39.1732 120.585 39.1087 120.746 39.0696C120.915 39.0468 121.086 39.0468 121.255 39.0696C121.436 39.0861 121.612 39.1386 121.773 39.2243C121.947 39.3193 122.096 39.4532 122.209 39.6155L122.428 39.9067H122.082C121.843 39.9132 121.605 39.9467 121.373 40.0068C121.131 40.0665 120.908 40.1889 120.727 40.3616C120.773 40.2276 120.845 40.1039 120.938 39.9977C121.032 39.8916 121.146 39.805 121.273 39.7429C121.518 39.6144 121.788 39.54 122.064 39.5246L121.937 39.8339C121.755 39.6065 121.502 39.4465 121.218 39.379C120.916 39.2972 120.604 39.2574 120.291 39.2607Z" fill="#293349"/>
<path d="M121.482 40.5075C121.724 40.4062 121.951 40.2714 122.155 40.1071C122.201 40.1071 122.373 39.8796 122.355 39.8342C122.306 39.7058 122.242 39.5836 122.164 39.4702C122.273 39.5677 122.363 39.685 122.428 39.816C122.425 39.8918 122.406 39.9662 122.371 40.0338C122.337 40.1014 122.288 40.1606 122.228 40.2072C122.012 40.3737 121.754 40.4775 121.482 40.5075Z" fill="#293349"/>
<path d="M113.463 43.3274C115.181 43.2001 114.836 39.2786 114.836 39.2786C114.836 39.2786 121.828 37.195 121.255 31.2627C122.59 32.7835 124.166 34.0745 125.919 35.0841C125.919 35.0841 125.192 28.4877 119.873 28.9335C119.873 28.9335 113.508 27.6779 111.017 33.3645C108.526 39.0511 112.317 43.4184 113.463 43.3274Z" fill="#293349"/>
<path d="M121.138 30.7439C121.374 31.6345 121.414 32.5658 121.256 33.4735C121.123 34.3938 120.794 35.275 120.292 36.0575C120.183 36.2576 120.019 36.4305 119.892 36.6216L119.683 36.8945L119.437 37.1493C119.274 37.3131 119.119 37.4768 118.947 37.6406L118.401 38.0592L118.128 38.2684L117.828 38.4413L117.237 38.787C116.828 38.9781 116.401 39.151 115.982 39.3148C116.364 39.06 116.764 38.8598 117.137 38.6142L117.683 38.2229L117.955 38.0319L118.201 37.8135L118.701 37.3677C118.856 37.213 119.001 37.0492 119.156 36.8854L119.374 36.6398L119.574 36.3759C119.692 36.1939 119.847 36.0302 119.947 35.8391C120.415 35.0918 120.753 34.2704 120.947 33.4098C121.054 32.9802 121.121 32.5416 121.147 32.0996C121.181 31.6482 121.178 31.1948 121.138 30.7439Z" fill="#293349"/>
<path d="M114.009 42.5541C114.009 42.5541 111.645 40.3704 110.608 41.2621C109.572 42.1537 111.745 45.593 113.236 45.8113C113.424 45.8509 113.619 45.8521 113.807 45.8151C113.996 45.778 114.176 45.7034 114.335 45.5956C114.495 45.4878 114.631 45.3491 114.736 45.1877C114.84 45.0262 114.912 44.8454 114.945 44.6558L114.009 42.5541Z" fill="#FF9581"/>
<path d="M111.254 42.2359C111.744 42.3617 112.203 42.5885 112.601 42.9019C112.998 43.2152 113.326 43.6082 113.563 44.0556C113.488 43.9704 113.396 43.9022 113.292 43.8555C113.189 43.8087 113.077 43.7845 112.963 43.7845C112.85 43.7845 112.738 43.8087 112.634 43.8555C112.531 43.9022 112.438 43.9704 112.363 44.0556C112.522 43.9701 112.703 43.9339 112.883 43.9518C113.063 43.9696 113.233 44.0406 113.372 44.1557C113.604 44.3544 113.815 44.577 114 44.8199C114.063 44.8927 114.209 44.8199 114.154 44.7289C113.936 43.5825 112.6 42.0721 111.254 42.2359Z" fill="#293349"/>
<path d="M124.692 71.4425L129.193 86.7554L94.6875 87.001C95.7161 82.8537 97.3751 78.889 99.6064 75.2457C99.6064 75.2457 105.398 55.3471 108.872 51.5894C112.572 47.5951 116.782 48.4595 120.155 52.7995C121.355 54.3371 127.047 61.243 126.811 65.5375C126.738 67.679 125.997 69.744 124.692 71.4425Z" fill="#00C26D"/>
<path d="M144.232 41.6533L125.374 41.071L125.283 36.7856L144.104 35.439L144.232 41.6533Z" fill="#2B454E"/>
<path d="M154.825 43.1822L135.949 42.0631L135.812 35.3666L154.624 33.4832L154.825 43.1822Z" fill="#375A64"/>
<path d="M163.835 45.2562L149.488 43.3455L149.297 33.5372L163.554 31.0442L163.835 45.2562Z" fill="#2B454E"/>
<path d="M164.663 38.1327C164.735 41.7175 164.362 44.6291 163.826 44.6382C163.29 44.6473 162.799 41.7539 162.726 38.1691C162.653 34.5842 163.026 31.6727 163.562 31.6636C164.099 31.6545 164.59 34.5478 164.663 38.1327Z" fill="#00C26D"/>
<path d="M113.192 55.811C119.038 62.4893 131.495 71.2786 135.214 70.2413C139.332 69.0585 147.779 53.691 148.779 50.0425C149.198 48.4957 136.405 44.3559 135.914 46.0027C135.496 47.4403 131.795 55.8474 130.549 56.1567C130.031 56.2841 125.439 54.4826 117.12 52.2261C110.746 50.4883 111.465 53.8184 113.192 55.811Z" fill="#FF9581"/>
<path d="M134.885 49.624C134.885 49.624 135.112 48.0682 135.485 44.1103C135.776 41.0259 138.613 33.9745 146.923 31.3723C150.114 30.3806 152.206 32.1821 149.078 33.8016C146.878 34.948 145.25 35.5485 144.641 36.1308C144.641 36.1308 148.369 36.8587 149.269 38.8604C150.068 40.6279 150.733 42.4527 151.26 44.3196C150.946 44.4946 150.621 44.6496 150.287 44.7836C150.574 45.6075 150.622 46.4959 150.426 47.346C150.23 48.1961 149.797 48.9733 149.178 49.5876L147.65 52.8995L134.885 49.624Z" fill="#FF9581"/>
<path d="M136.566 41.5439C138.412 39.6105 140.562 37.9937 142.931 36.7581C145.941 35.366 152.105 33.5099 153.105 35.7391C153.842 37.3768 151.551 38.2958 151.551 38.2958C151.551 38.2958 154.278 38.0683 154.596 39.6878C154.906 41.1709 153.096 41.7805 153.096 41.7805C153.096 41.7805 154.76 41.917 154.787 43.4001C154.787 45.2198 151.314 44.592 149.778 46.4299C149.414 46.8393 136.566 41.5439 136.566 41.5439Z" fill="#FF9581"/>
<path d="M143.842 40.1707C146.131 38.7601 148.797 38.0868 151.48 38.2418C151.544 38.2418 151.58 38.3055 151.48 38.3055C148.86 38.6189 146.289 39.2546 143.824 40.198C143.824 40.198 143.833 40.1707 143.842 40.1707Z" fill="#293349"/>
<path d="M145.332 43.1816C147.73 42.0078 150.4 41.5017 153.06 41.7167C153.133 41.7167 153.16 41.7804 153.06 41.7895C150.43 41.9726 147.829 42.4487 145.305 43.2089C145.305 43.2089 145.314 43.1907 145.332 43.1816Z" fill="#293349"/>
<path d="M148.06 54.9831L134.421 48.5322C134.421 48.5322 131.185 55.7383 130.639 55.8111C129.912 55.9476 120.392 52.481 115.955 51.5348C111.136 50.5066 109.318 53.6911 113.973 57.9038C115.791 59.587 127.748 70.9511 135.231 70.4598C139.268 70.2687 148.06 54.9831 148.06 54.9831Z" fill="#00C26D"/>
<path d="M134.475 52.1986C135.257 52.653 136.065 53.0631 136.893 53.4269C137.739 53.8272 138.593 54.2003 139.439 54.5824C140.285 54.9645 143.74 56.3293 144.603 56.666C144.603 56.666 144.667 56.6114 144.603 56.5932C143.767 56.1838 140.43 54.5733 139.594 54.2094C138.757 53.8454 137.921 53.4633 137.075 53.1266C136.227 52.754 135.359 52.429 134.475 52.1531V52.1986Z" fill="#293349"/>
<path d="M115.254 59.1223C119.369 62.7629 123.858 65.9562 128.647 68.6485C130.647 69.6221 132.82 70.6684 135.075 70.3863C136.372 70.0152 137.539 69.2906 138.448 68.2937C142.331 64.4177 145.14 59.6136 148.041 54.9733L146.959 54.4365L148.059 54.9369C147.15 56.5201 146.24 58.1396 145.258 59.7046C143.4 62.8813 141.182 65.8335 138.648 68.5029C137.339 69.7858 135.639 71.0414 133.684 70.7321C127.501 69.8222 119.873 63.2258 115.227 59.0859L115.254 59.1223Z" fill="#293349"/>
<path d="M115.492 60.0139C116.156 60.3597 116.82 60.6872 117.465 61.0603C117.083 61.0285 116.711 60.9194 116.371 60.7395C116.032 60.5597 115.733 60.3128 115.492 60.0139Z" fill="#293349"/>
<path d="M118.31 52.2074C122.193 53.3174 126.785 54.8278 130.685 55.7285C132.07 53.3984 133.324 50.9927 134.44 48.5225L134.831 48.7226L134.431 48.5407C133.439 50.9998 132.281 53.3891 130.967 55.6921C130.858 55.8104 130.821 55.9469 130.621 55.956C126.446 54.928 122.327 53.6798 118.283 52.2165L118.31 52.2074Z" fill="#293349"/>
<path d="M118.955 52.1807C119.434 52.267 119.876 52.4989 120.219 52.8449C119.773 52.6538 119.382 52.399 118.955 52.1807Z" fill="#293349"/>
<mask id="mask0_5447_81648" style="mask-type:luminance" maskUnits="userSpaceOnUse" x="199" y="79" width="277" height="139">
<path d="M475.956 79.0667H199.24V217.592H475.956V79.0667Z" fill="white"/>
</mask>
<g mask="url(#mask0_5447_81648)">
<mask id="mask1_5447_81648" style="mask-type:luminance" maskUnits="userSpaceOnUse" x="164" y="153" width="249" height="86">
<path d="M164.18 238.392H412.627V153.375H366.402L164.18 238.392Z" fill="white"/>
</mask>
<g mask="url(#mask1_5447_81648)">
<path d="M358.327 137.27V186.803L303.564 178.432L303.246 130.856L358.327 137.27Z" fill="#00B25D"/>
<path d="M262.068 145.605V198.304L359.32 187.167V136.379L262.068 145.605Z" fill="#00C26D"/>
<g opacity="0.1">
<path d="M262.068 145.605V198.304L359.32 187.167V136.379L262.068 145.605Z" fill="#1C2535"/>
</g>
<path d="M359.32 143.121L262.068 152.847V154.912L359.32 145.277V143.121Z" fill="#00C26D"/>
<path d="M265.859 147.142V231.996L359.701 217.665L360.238 136.151L265.859 147.142Z" fill="#00B25D"/>
<path d="M409.08 159.362V236.845L266.658 226.109V145.878C266.658 145.878 280.169 144.467 310.474 147.224C327.577 148.789 353.853 148.698 403.461 151.519C403.434 151.519 408.235 159.298 409.08 159.362Z" fill="white"/>
<path d="M270.578 146.669C315.185 146.351 362.147 151.291 406.726 153.411C362.119 151.664 315.185 147.042 270.578 146.669Z" fill="#ECECEC"/>
<path d="M412.627 156.332V238.392L264.168 232.623V145.604L412.627 156.332Z" fill="#00C26D"/>
<g opacity="0.1">
<path d="M412.627 156.332V238.392L264.168 232.623V145.604L412.627 156.332Z" fill="#1C2535"/>
</g>
<path d="M264.168 150.436L412.627 162.009V165.549L264.168 154.13V150.436Z" fill="#00C26D"/>
<path d="M264.168 157.16L412.627 168.742V172.272L264.168 160.863V157.16Z" fill="#00C26D"/>
<path d="M264.169 145.604H262.068V232.623H264.169V145.604Z" fill="#00C26D"/>
<path d="M264.169 145.604H262.068V232.623H264.169V145.604Z" fill="#00C26D"/>
<path d="M412.627 238.392H293.418L412.627 151.919V238.392Z" fill="#00C26D"/>
<path d="M392.033 166.859L371.275 181.917V238.392H392.033V166.859Z" fill="#00C26D"/>
<path d="M351.627 238.392L351.818 196.029L342.344 202.898V238.392H351.627Z" fill="#00C26D"/>
<path d="M412.626 157.296C377.266 183.473 337.442 212.615 301.791 238.392C337.151 212.224 376.975 183.082 412.626 157.296Z" fill="#1C2535"/>
<g opacity="0.2">
<path d="M412.627 238.392H293.418L412.627 151.919V238.392Z" fill="white"/>
</g>
<path d="M164.18 238.392L366.402 153.375L264.141 145.605L352.272 136.151L303.838 131.083L360.237 136.151L285.153 145.514L412.627 151.919L293.418 238.392H164.18Z" fill="#00C26D"/>
<g opacity="0.5">
<path d="M164.18 238.392L366.402 153.375L264.141 145.605L352.272 136.151L303.838 131.083L360.237 136.151L285.153 145.514L412.627 151.919L293.418 238.392H164.18Z" fill="white"/>
</g>
<g opacity="0.3">
<path d="M342.343 202.898L248.547 202.926L265.331 195.874L351.817 196.029L342.343 202.898Z" fill="#00C26D"/>
</g>
<g opacity="0.3">
<path d="M371.274 181.917L392.032 166.859H334.341L298.545 181.908L371.274 181.917Z" fill="#00C26D"/>
</g>
</g>
<mask id="mask2_5447_81648" style="mask-type:luminance" maskUnits="userSpaceOnUse" x="211" y="193" width="249" height="86">
<path d="M211.033 278.935H459.481V193.909H413.255L211.033 278.935Z" fill="white"/>
</mask>
<g mask="url(#mask2_5447_81648)">
<path d="M405.181 177.804V227.337L350.418 218.966L350.1 171.39L405.181 177.804Z" fill="#00B25D"/>
<path d="M308.922 186.139V238.838L406.182 227.701V176.913L308.922 186.139Z" fill="#00C26D"/>
<g opacity="0.1">
<path d="M308.922 186.139V238.838L406.182 227.701V176.913L308.922 186.139Z" fill="#1C2535"/>
</g>
<path d="M406.182 183.655L308.922 193.381V195.447L406.182 185.811V183.655Z" fill="#00C26D"/>
<path d="M312.721 187.676V272.53L406.553 258.199L407.099 176.685L312.721 187.676Z" fill="#00B25D"/>
<path d="M455.934 199.887V277.361L313.512 266.643V186.412C313.512 186.412 327.023 185.011 357.328 187.767C374.439 189.323 400.716 189.241 450.315 192.062C450.315 192.062 455.088 199.832 455.934 199.887Z" fill="white"/>
<path d="M317.432 187.203C362.039 186.894 409 191.835 453.58 193.954C408.973 192.198 362.039 187.585 317.432 187.203Z" fill="#ECECEC"/>
<path d="M459.481 196.866V278.935L311.021 273.157V186.148L459.481 196.866Z" fill="#00C26D"/>
<g opacity="0.1">
<path d="M459.481 196.866V278.935L311.021 273.157V186.148L459.481 196.866Z" fill="#1C2535"/>
</g>
<path d="M311.021 190.97L459.481 202.552V206.083L311.021 194.673V190.97Z" fill="#00C26D"/>
<path d="M311.021 197.703L459.481 209.276V212.807L311.021 201.397V197.703Z" fill="#00C26D"/>
<path d="M311.022 186.139H308.922V273.157H311.022V186.139Z" fill="#00C26D"/>
<path d="M311.022 186.139H308.922V273.157H311.022V186.139Z" fill="#00C26D"/>
<path d="M459.481 278.935H340.271L459.481 192.453V278.935Z" fill="#00C26D"/>
<path d="M438.896 207.393L418.129 222.451V278.935H438.896V207.393Z" fill="#00C26D"/>
<path d="M459.48 197.839C424.12 224.007 384.295 253.15 348.645 278.935C384.005 252.758 423.838 223.616 459.48 197.839Z" fill="#1C2535"/>
<g opacity="0.2">
<path d="M459.481 278.935H340.271L459.481 192.453V278.935Z" fill="white"/>
</g>
<path d="M211.033 278.935L413.255 193.909L310.994 186.148L399.126 176.685L350.7 171.617L407.1 176.685L332.006 186.057L459.481 192.453L340.271 278.935H211.033Z" fill="#00C26D"/>
<g opacity="0.5">
<path d="M211.033 278.935L413.255 193.909L310.994 186.148L399.126 176.685L350.7 171.617L407.1 176.685L332.006 186.057L459.481 192.453L340.271 278.935H211.033Z" fill="white"/>
</g>
<g opacity="0.3">
<path d="M418.128 222.451L438.895 207.393H381.204L345.398 222.442L418.128 222.451Z" fill="#00C26D"/>
</g>
</g>
</g>
<rect x="470.719" y="44.2646" width="106.38" height="106.453" stroke="#00C26D" stroke-width="20"/>
<path d="M14.2712 118.519H9.16608V113.414H5.87784V118.519H0.773438V121.807H5.87784V126.914H9.16608V121.807H14.2712V118.519Z" fill="#00C26D"/>
<path d="M14.2712 145.052H9.16608V139.948H5.87784V145.052H0.773438V148.341H5.87784V153.448H9.16608V148.341H14.2712V145.052Z" fill="#293349"/>
<path d="M39.404 118.519H34.2989V113.414H31.0107V118.519H25.9062V121.807H31.0107V126.914H34.2989V121.807H39.404V118.519Z" fill="#00C26D"/>
<path d="M39.404 145.052H34.2989V139.948H31.0107V145.052H25.9062V148.341H31.0107V153.448H34.2989V148.341H39.404V145.052Z" fill="#293349"/>
</svg>