<svg xmlns="http://www.w3.org/2000/svg" width="98" height="98" fill="none"><circle cx="26.46" cy="30.38" r="14.7" fill="#00C26D"/><g stroke="#293349" stroke-linecap="round" stroke-linejoin="round" stroke-width="3" clip-path="url(#a)"><path d="M75.523 28.275h6.981V72.39M16.477 72.39V28.275h7.16"/><path d="M58.317 72.856c0 .4-.335.732-.738.732h-16.2a.742.742 0 0 1-.737-.732.457.457 0 0 0-.47-.467H13.859c0 3.797 3.088 6.86 6.914 6.86h57.435c3.826 0 6.914-3.063 6.914-6.86H58.81c-.269 0-.47.2-.47.467h-.023ZM40.888 31.383c1.556 0 2.819-1.253 2.819-2.798 0-1.545-1.263-2.797-2.82-2.797-1.556 0-2.819 1.252-2.819 2.797 0 1.545 1.263 2.798 2.82 2.798ZM58.071 40.752c1.557 0 2.82-1.252 2.82-2.797 0-1.545-1.263-2.798-2.82-2.798s-2.819 1.253-2.819 2.798c0 1.545 1.262 2.797 2.82 2.797ZM75.276 38.82c1.557 0 2.82-1.252 2.82-2.797 0-1.545-1.263-2.797-2.82-2.797s-2.819 1.252-2.819 2.797c0 1.545 1.262 2.797 2.82 2.797ZM23.704 40.885c1.557 0 2.82-1.252 2.82-2.797 0-1.545-1.263-2.798-2.82-2.798s-2.82 1.253-2.82 2.798c0 1.545 1.263 2.797 2.82 2.797Z"/><path d="M23.703 35.29V18.75h51.573v14.476M75.276 38.82v26.665H23.703v-24.6M72.548 36.622 60.89 38.088M55.52 36.8l-12.038-7.149M38.291 29.651 26.21 36.822M40.887 31.383v34.102M58.07 40.752v24.733"/></g><defs><clipPath id="a"><path fill="#fff" d="M12.74 17.64h73.5v62.72h-73.5z"/></clipPath></defs></svg>
