<svg width="98" height="98" fill="none" xmlns="http://www.w3.org/2000/svg"><circle cx="70.56" cy="28.42" fill="#00C26D" r="19.6"/><path fill-rule="evenodd" clip-rule="evenodd" d="M57.583 33.265a1.659 1.659 0 0 0-.741-2.224 22.28 22.28 0 0 0-10.053-2.382c-12.435 0-22.552 10.117-22.552 22.552 0 12.435 10.117 22.552 22.552 22.552 12.435 0 22.552-10.117 22.552-22.552a22.28 22.28 0 0 0-2.382-10.053 1.657 1.657 0 0 0-2.963 1.483 19 19 0 0 1 2.03 8.57c0 10.608-8.63 19.238-19.237 19.238-10.607 0-19.238-8.63-19.238-19.238 0-10.607 8.63-19.238 19.238-19.238 2.992 0 5.876.684 8.57 2.033a1.66 1.66 0 0 0 2.224-.741z" fill="#293349"/><path fill-rule="evenodd" clip-rule="evenodd" d="M47.232 41.739c.555 0 1.12.057 1.725.178a1.677 1.677 0 0 0 1.968-1.322 1.674 1.674 0 0 0-1.319-1.966c-.823-.164-1.6-.242-2.374-.242-6.828 0-12.382 5.553-12.382 12.38 0 6.828 5.554 12.383 12.382 12.383 6.827 0 12.38-5.555 12.38-12.383 0-.774-.077-1.55-.24-2.374a1.676 1.676 0 1 0-3.289.649c.12.606.178 1.17.178 1.725 0 4.98-4.05 9.032-9.029 9.032-4.98 0-9.03-4.051-9.03-9.032 0-4.978 4.05-9.028 9.03-9.028z" fill="#293349"/><path fill-rule="evenodd" clip-rule="evenodd" d="M76.868 34.388a1.689 1.689 0 0 0-.785 2.257 31.206 31.206 0 0 1 3.145 13.68c0 17.401-14.155 31.557-31.555 31.557-17.398 0-31.555-14.156-31.555-31.556 0-17.399 14.157-31.554 31.555-31.554 4.762 0 9.365 1.058 13.681 3.146a1.689 1.689 0 0 0 1.47-3.042 34.532 34.532 0 0 0-15.15-3.483c-19.263 0-34.934 15.67-34.934 34.933 0 19.262 15.671 34.934 34.933 34.934s34.934-15.672 34.934-34.934c0-5.273-1.173-10.372-3.483-15.152a1.692 1.692 0 0 0-2.256-.786z" fill="#293349"/><path fill-rule="evenodd" clip-rule="evenodd" d="m70.984 30.852-3.02-.814-.815-3.022 9.32-9.32.56 2.081a1.693 1.693 0 0 0 1.194 1.194l2.08.562-9.32 9.32zm14.218-10.63a1.69 1.69 0 0 0-1.193-1.196l-3.966-1.07-1.07-3.964a1.691 1.691 0 0 0-2.83-.757l-12.08 12.081a1.693 1.693 0 0 0-.436 1.637l1.068 3.96L45.958 49.65a1.693 1.693 0 0 0 2.393 2.393l18.737-18.735 3.96 1.066a1.691 1.691 0 0 0 1.638-.437l12.079-12.08a1.688 1.688 0 0 0 .437-1.634z" fill="#293349"/></svg>