<svg width="98" height="98" fill="none" xmlns="http://www.w3.org/2000/svg"><circle cx="49" cy="49" r="19.6" fill="#00C26D"/><path fill-rule="evenodd" clip-rule="evenodd" d="M26.146 24.593c.857-2.8 3.268-4.815 4.83-5.874.696 1.785 1.553 4.849.697 7.648-.855 2.8-3.266 4.816-4.83 5.873-.695-1.785-1.553-4.848-.697-7.647zm-.023 11.667c.234 0 .47-.052.694-.16.253-.124 6.224-3.071 7.957-8.736 1.733-5.665-1.529-11.58-1.669-11.828a1.601 1.601 0 0 0-2.102-.675c-.254.122-6.226 3.071-7.957 8.735-1.732 5.665 1.527 11.58 1.668 11.829.298.533.843.835 1.409.835zM16.073 33.42c1.563 1.06 3.97 3.078 4.822 5.877.853 2.802-.011 5.866-.71 7.647-1.561-1.053-3.963-3.062-4.82-5.882-.854-2.798.008-5.86.708-7.642zm4.135 17.379c.223.109.461.16.695.16.565 0 1.11-.301 1.408-.833.14-.248 3.412-6.155 1.688-11.82-1.724-5.663-7.693-8.622-7.947-8.744a1.605 1.605 0 0 0-2.105.67c-.14.248-3.41 6.157-1.686 11.822 1.724 5.664 7.693 8.621 7.947 8.745zM16.753 62.046c-2.207-1.873-3.106-4.912-3.464-6.789 1.883.025 4.99.385 7.197 2.255 2.207 1.873 3.105 4.912 3.463 6.788-1.883-.024-4.989-.382-7.196-2.254zm9.264 5.474a1.652 1.652 0 0 0 1.42-1.726c-.014-.285-.391-7.035-4.858-10.825-4.467-3.789-11.078-2.965-11.357-2.93a1.65 1.65 0 0 0-1.42 1.725c.013.285.39 7.036 4.857 10.825 3.07 2.603 7.152 3.03 9.497 3.03 1.067 0 1.773-.09 1.86-.099zM31.263 76.989c-2.819-.101-5.319-1.966-6.71-3.243 1.472-1.176 4.085-2.875 6.905-2.754 2.819.1 5.318 1.965 6.71 3.242-1.472 1.174-4.087 2.859-6.905 2.755zm10.489-3.768c-.18-.221-4.481-5.391-10.186-5.595-5.709-.203-10.33 4.645-10.523 4.85a1.748 1.748 0 0 0-.074 2.284c.18.22 4.481 5.39 10.185 5.595.118.004.234.005.351.005 5.541 0 9.983-4.654 10.174-4.858a1.747 1.747 0 0 0 .073-2.281zM67.025 18.715c1.561 1.051 3.966 3.058 4.829 5.878.856 2.801-.003 5.869-.7 7.652-1.56-1.052-3.965-3.06-4.828-5.878-.857-2.802.004-5.87.699-7.652zM71.182 36.1c.225.108.46.16.694.16.565 0 1.111-.302 1.41-.835.14-.25 3.4-6.164 1.668-11.83-1.733-5.663-7.704-8.612-7.958-8.734a1.603 1.603 0 0 0-2.103.675c-.139.248-3.4 6.163-1.667 11.828 1.731 5.665 7.704 8.612 7.956 8.736zM76.123 39.297c.853-2.799 3.261-4.817 4.824-5.878.698 1.784 1.56 4.845.709 7.643-.852 2.8-3.261 4.819-4.824 5.877-.698-1.781-1.56-4.842-.709-7.642zm-1.416 10.83c.3.53.844.833 1.41.833.234 0 .47-.052.695-.161.254-.124 6.222-3.081 7.947-8.745 1.725-5.665-1.547-11.574-1.687-11.821a1.604 1.604 0 0 0-2.105-.671c-.254.122-6.222 3.08-7.946 8.744-1.724 5.665 1.546 11.572 1.686 11.82zM80.265 62.046c-2.207 1.872-5.313 2.23-7.195 2.254.357-1.877 1.257-4.914 3.464-6.788 2.207-1.872 5.313-2.231 7.195-2.255-.358 1.877-1.256 4.916-3.464 6.79zm5.532-10.007c-.279-.035-6.89-.859-11.357 2.93-4.467 3.79-4.844 10.54-4.858 10.825a1.651 1.651 0 0 0 1.42 1.727c.087.009.793.099 1.862.099 2.344 0 6.426-.428 9.495-3.03 4.467-3.79 4.844-10.54 4.859-10.826a1.651 1.651 0 0 0-1.421-1.725zM65.758 76.989c-2.828.1-5.44-1.584-6.91-2.759 1.385-1.277 3.876-3.138 6.714-3.24 2.824-.13 5.439 1.583 6.91 2.758-1.385 1.277-3.876 3.138-6.714 3.24zm-.305-9.364c-5.704.203-10.005 5.374-10.185 5.595a1.748 1.748 0 0 0 .074 2.282c.19.203 4.631 4.858 10.174 4.858.116 0 .233-.001.35-.005 5.705-.205 10.005-5.376 10.186-5.596a1.751 1.751 0 0 0-.074-2.284c-.195-.205-4.818-5.028-10.525-4.85zM44.9 45.147c.537-.076 1-.407 1.24-.883l2.86-5.68 2.86 5.68c.24.476.703.807 1.24.883l6.393.912-4.626 4.42a1.596 1.596 0 0 0-.474 1.43l1.092 6.244-5.719-2.947a1.67 1.67 0 0 0-1.533 0l-5.718 2.947 1.092-6.244a1.6 1.6 0 0 0-.474-1.43l-4.628-4.42 6.396-.912zm-11.5-.714a1.592 1.592 0 0 0 .418 1.654l6.396 6.114-1.51 8.631a1.603 1.603 0 0 0 .655 1.58c.508.36 1.18.408 1.734.123L49 58.458l7.907 4.077a1.68 1.68 0 0 0 1.735-.123 1.6 1.6 0 0 0 .655-1.58l-1.51-8.63 6.396-6.115c.45-.429.611-1.07.416-1.654a1.637 1.637 0 0 0-1.328-1.1l-8.84-1.259-3.954-7.854c-.276-.551-.85-.9-1.477-.9a1.65 1.65 0 0 0-1.477.9l-3.952 7.854-8.84 1.26c-.62.088-1.136.513-1.33 1.099zM49.686 76.952c-.014-.014-.033-.02-.049-.035-.014-.015-.019-.034-.034-.05-.067-.063-.15-.09-.223-.14-.09-.059-.173-.128-.27-.168-.098-.042-.198-.052-.3-.072-.1-.02-.198-.047-.3-.047-.103 0-.2.026-.3.047-.102.02-.202.03-.299.073-.099.039-.18.108-.27.168-.074.05-.157.076-.223.139-.015.016-.02.035-.035.05-.015.016-.035.02-.05.035l-7.705 8.488a1.67 1.67 0 0 0 .085 2.321 1.579 1.579 0 0 0 2.268-.087l6.529-7.19 6.528 7.19a1.582 1.582 0 0 0 2.27.087c.649-.617.686-1.656.082-2.321l-7.704-8.488z" fill="#293349"/></svg>