<svg width="98" height="98" fill="none" xmlns="http://www.w3.org/2000/svg"><circle cx="44.1" cy="40.18" fill="#00C26D" r="19.6"/><path fill-rule="evenodd" clip-rule="evenodd" d="M50.824 85.829a1 1 0 0 1-1-1V73.76a1 1 0 0 1 1-1h13.154a1 1 0 0 0 1-1V60.527a1 1 0 0 1 1-1h6.248a1 1 0 0 0 1-1V45.139c0-13.617-11.079-24.696-24.696-24.696S23.834 31.523 23.834 45.14v39.69a1 1 0 0 1-1 1h-1.118a1 1 0 0 1-1-1v-39.69c0-15.338 12.479-27.814 27.814-27.814S76.344 29.801 76.344 45.14v16.506a1 1 0 0 1-1 1h-6.247a1 1 0 0 0-1 1v11.233a1 1 0 0 1-1 1H53.942a1 1 0 0 0-1 1v7.95a1 1 0 0 1-1 1h-1.118z" fill="#293349"/><path fill-rule="evenodd" clip-rule="evenodd" d="M63.352 43.05a1 1 0 0 1-.959-.715l-1.926-6.49a1 1 0 0 1 .412-1.122l.862-.563a1 1 0 0 1 1.505.553l2.096 7.052a1 1 0 0 1-.959 1.285h-1.031zM31.624 43.05c-.605 0-1.062-.53-.935-1.122.822-3.837 4.474-16.221 17.414-16.499 1.301-.028 3.402.402 4.657.691.566.13.883.721.696 1.27l-.363 1.063a1.025 1.025 0 0 1-1.194.661c-1.037-.23-2.736-.567-3.796-.567-10.16 0-13.557 10.65-14.321 13.697a1.054 1.054 0 0 1-1.016.806h-1.142zM47.661 42.707a1 1 0 0 1-.17-1.404l9.614-12.262a1 1 0 0 1 1.404-.17l.88.69a1 1 0 0 1 .17 1.404l-9.614 12.262a1 1 0 0 1-1.404.17l-.88-.69zM46.023 65.105a1.56 1.56 0 0 1-1.547-1.36L44 60.035a13.44 13.44 0 0 1-1.874-.783l-2.965 2.289c-.62.48-1.5.424-2.055-.131l-2.928-2.931a1.56 1.56 0 0 1-.134-2.055l2.289-2.968a13.596 13.596 0 0 1-.783-1.875l-3.707-.477a1.56 1.56 0 0 1-1.36-1.546v-2.39a1 1 0 0 1 1-1H32.6a1 1 0 0 1 1 1v1.018l3.37.436c.643.081 1.17.555 1.32 1.188a10.085 10.085 0 0 0 1.232 2.963 1.556 1.556 0 0 1-.09 1.77l-2.084 2.701.992.992 2.697-2.083a1.566 1.566 0 0 1 1.774-.09c.926.573 1.924.988 2.962 1.234.63.15 1.104.674 1.188 1.32l.434 3.37h1.416l.436-3.37a1.556 1.556 0 0 1 1.185-1.32 9.955 9.955 0 0 0 2.962-1.235 1.565 1.565 0 0 1 1.775.09l2.697 2.084.991-.992-2.083-2.7a1.556 1.556 0 0 1-.09-1.771 9.98 9.98 0 0 0 1.232-2.963 1.559 1.559 0 0 1 1.319-1.188l3.37-.436v-1.018a1 1 0 0 1 1-1h1.119a1 1 0 0 1 1 1v2.39a1.56 1.56 0 0 1-1.36 1.546l-3.71.477a13.07 13.07 0 0 1-.78 1.874l2.289 2.969c.477.624.42 1.5-.134 2.055L59.1 61.41a1.557 1.557 0 0 1-2.055.131l-2.966-2.289a13.28 13.28 0 0 1-1.874.783l-.477 3.71c-.1.78-.764 1.36-1.546 1.36h-4.16z" fill="#293349"/></svg>