<svg xmlns="http://www.w3.org/2000/svg" width="98" height="98" fill="none"><circle cx="74.48" cy="63.7" r="14.7" fill="#00C26D"/><path fill="#293349" fill-rule="evenodd" d="M43.612 70.912a1.225 1.225 0 0 1 1.007 1.41l-1.216 7.296a1.225 1.225 0 0 1-2.417-.403l1.216-7.296a1.225 1.225 0 0 1 1.41-1.007Z" clip-rule="evenodd"/><path fill="#293349" fill-rule="evenodd" d="M37.322 79.416c0-.676.548-1.225 1.225-1.225h21.886a1.225 1.225 0 1 1 0 2.45H38.547a1.225 1.225 0 0 1-1.225-1.225Z" clip-rule="evenodd"/><path fill="#293349" fill-rule="evenodd" d="M55.368 70.912a1.225 1.225 0 0 1 1.41 1.007l1.216 7.296a1.225 1.225 0 1 1-2.417.403l-1.216-7.296a1.225 1.225 0 0 1 1.007-1.41ZM82.32 66.05H16.66V63.6h65.66v2.45Z" clip-rule="evenodd"/><path fill="#293349" fill-rule="evenodd" d="M15.435 29.563a4.872 4.872 0 0 1 4.873-4.872h1.216a1.225 1.225 0 1 1 0 2.45h-1.216a2.422 2.422 0 0 0-2.423 2.422v38.91a2.422 2.422 0 0 0 2.423 2.423h58.364a2.423 2.423 0 0 0 2.423-2.423v-38.91a2.423 2.423 0 0 0-2.423-2.422h-1.216a1.225 1.225 0 1 1 0-2.45h1.216a4.873 4.873 0 0 1 4.873 4.872v38.91a4.873 4.873 0 0 1-4.873 4.873H20.308a4.872 4.872 0 0 1-4.873-4.873v-38.91Z" clip-rule="evenodd"/><path fill="#293349" fill-rule="evenodd" d="M28.82 19.845c-.667 0-1.208.541-1.208 1.207v38.91a1.225 1.225 0 1 1-2.45 0v-38.91a3.658 3.658 0 0 1 3.657-3.657h41.342a3.658 3.658 0 0 1 3.656 3.657v38.91a1.225 1.225 0 1 1-2.45 0v-38.91c0-.666-.54-1.207-1.206-1.207H28.819Z" clip-rule="evenodd"/><path fill="#293349" fill-rule="evenodd" d="M25.162 28.347c0-.676.549-1.225 1.225-1.225H67.73a1.225 1.225 0 1 1 0 2.45H26.387a1.225 1.225 0 0 1-1.225-1.225ZM30.026 33.211c0-.676.549-1.225 1.225-1.225h1.216a1.225 1.225 0 1 1 0 2.45h-1.216a1.225 1.225 0 0 1-1.225-1.225Zm6.08 0c0-.676.548-1.225 1.225-1.225h17.023a1.225 1.225 0 1 1 0 2.45H37.33a1.225 1.225 0 0 1-1.225-1.225Zm21.886 0c0-.676.549-1.225 1.225-1.225h7.296a1.225 1.225 0 1 1 0 2.45h-7.296a1.225 1.225 0 0 1-1.225-1.225ZM30.026 42.938c0-.676.549-1.224 1.225-1.224h1.216a1.225 1.225 0 1 1 0 2.45h-1.216a1.225 1.225 0 0 1-1.225-1.226Zm6.08 0c0-.676.548-1.224 1.225-1.224h17.023a1.225 1.225 0 1 1 0 2.45H37.33a1.225 1.225 0 0 1-1.225-1.226Zm21.886 0c0-.676.549-1.224 1.225-1.224h7.296a1.225 1.225 0 0 1 0 2.45h-7.296a1.225 1.225 0 0 1-1.225-1.226ZM30.026 38.075c0-.677.549-1.225 1.225-1.225h1.216a1.225 1.225 0 1 1 0 2.45h-1.216a1.225 1.225 0 0 1-1.225-1.225Zm6.08 0c0-.677.548-1.225 1.225-1.225h17.023a1.225 1.225 0 1 1 0 2.45H37.33a1.225 1.225 0 0 1-1.225-1.225Zm21.886 0c0-.677.549-1.225 1.225-1.225h7.296a1.225 1.225 0 1 1 0 2.45h-7.296a1.225 1.225 0 0 1-1.225-1.225ZM30.026 57.53c0-.677.549-1.225 1.225-1.225h1.216a1.225 1.225 0 1 1 0 2.45h-1.216a1.225 1.225 0 0 1-1.225-1.225Zm6.08 0c0-.677.548-1.225 1.225-1.225h17.023a1.225 1.225 0 1 1 0 2.45H37.33a1.225 1.225 0 0 1-1.225-1.225Zm21.886 0c0-.677.549-1.225 1.225-1.225h7.296a1.225 1.225 0 1 1 0 2.45h-7.296a1.225 1.225 0 0 1-1.225-1.225ZM30.026 52.666c0-.677.549-1.225 1.225-1.225h1.073a1.225 1.225 0 0 1 0 2.45h-1.073a1.225 1.225 0 0 1-1.225-1.225Zm5.365 0c0-.677.548-1.225 1.224-1.225h15.02a1.225 1.225 0 0 1 0 2.45h-15.02a1.225 1.225 0 0 1-1.224-1.225Zm19.311 0c0-.677.549-1.225 1.225-1.225h6.438a1.225 1.225 0 1 1 0 2.45h-6.438a1.225 1.225 0 0 1-1.225-1.225Zm10.729 0c0-.677.549-1.225 1.225-1.225h1.073a1.225 1.225 0 0 1 0 2.45h-1.073a1.225 1.225 0 0 1-1.225-1.225ZM30.026 47.802c0-.676.549-1.225 1.225-1.225H34.9a1.225 1.225 0 1 1 0 2.45H31.25a1.225 1.225 0 0 1-1.225-1.225Zm8.512 0c0-.676.548-1.225 1.225-1.225h4.863a1.225 1.225 0 1 1 0 2.45h-4.863a1.225 1.225 0 0 1-1.225-1.225Zm9.727 0c0-.676.548-1.225 1.225-1.225h9.727a1.225 1.225 0 1 1 0 2.45H49.49a1.225 1.225 0 0 1-1.225-1.225Zm14.591 0c0-.676.549-1.225 1.225-1.225h3.648a1.225 1.225 0 1 1 0 2.45H64.08a1.225 1.225 0 0 1-1.225-1.225Z" clip-rule="evenodd"/></svg>
