<svg xmlns="http://www.w3.org/2000/svg" width="98" height="98" fill="none"><circle cx="73.5" cy="35.28" r="14.7" fill="#00C26D"/><path fill="#293349" fill-rule="evenodd" d="M8.33 30.193c0-.812.658-1.47 1.47-1.47h43.4a1.47 1.47 0 0 1 0 2.94H9.8a1.47 1.47 0 0 1-1.47-1.47ZM17.01 38.873c0-.811.658-1.47 1.47-1.47h8.68a1.47 1.47 0 0 1 0 2.94h-8.68a1.47 1.47 0 0 1-1.47-1.47ZM17.01 44.66c0-.812.658-1.47 1.47-1.47h5.787a1.47 1.47 0 0 1 0 2.94H18.48a1.47 1.47 0 0 1-1.47-1.47Z" clip-rule="evenodd"/><path fill="#293349" fill-rule="evenodd" d="M15.587 20.09a4.317 4.317 0 0 0-4.317 4.317v49.186a4.317 4.317 0 0 0 4.317 4.317h60.76a4.317 4.317 0 0 0 4.316-4.317V62.02a1.47 1.47 0 0 1 2.94 0v11.573a7.257 7.257 0 0 1-7.256 7.257h-60.76a7.257 7.257 0 0 1-7.257-7.257V24.407a7.257 7.257 0 0 1 7.257-7.257h60.76a7.257 7.257 0 0 1 7.256 7.257V27.3a1.47 1.47 0 1 1-2.94 0v-2.893a4.317 4.317 0 0 0-4.316-4.317h-60.76Z" clip-rule="evenodd"/><path fill="#293349" fill-rule="evenodd" d="M17.01 70.7c0-.812.658-1.47 1.47-1.47h54.973a1.47 1.47 0 1 1 0 2.94H18.48a1.47 1.47 0 0 1-1.47-1.47ZM67.667 57.657c.812 0 1.47.658 1.47 1.47v5.786a1.47 1.47 0 0 1-2.94 0v-5.786c0-.812.658-1.47 1.47-1.47ZM73.453 57.657c.812 0 1.47.658 1.47 1.47v5.786a1.47 1.47 0 1 1-2.94 0v-5.786c0-.812.658-1.47 1.47-1.47ZM61.88 56.21c.812 0 1.47.658 1.47 1.47v7.233a1.47 1.47 0 0 1-2.94 0V57.68c0-.812.658-1.47 1.47-1.47ZM21.373 56.21c.812 0 1.47.658 1.47 1.47v7.233a1.47 1.47 0 1 1-2.94 0V57.68c0-.812.659-1.47 1.47-1.47ZM50.307 37.403c.811 0 1.47.659 1.47 1.47v26.04a1.47 1.47 0 0 1-2.94 0v-26.04c0-.811.658-1.47 1.47-1.47ZM56.093 51.87c.812 0 1.47.658 1.47 1.47v11.573a1.47 1.47 0 1 1-2.94 0V53.34c0-.812.659-1.47 1.47-1.47ZM38.733 40.297c.812 0 1.47.658 1.47 1.47v23.146a1.47 1.47 0 1 1-2.94 0V41.767c0-.812.659-1.47 1.47-1.47ZM32.947 46.083c.812 0 1.47.659 1.47 1.47v17.36a1.47 1.47 0 0 1-2.94 0v-17.36c0-.811.658-1.47 1.47-1.47ZM44.52 43.19c.812 0 1.47.658 1.47 1.47v20.253a1.47 1.47 0 1 1-2.94 0V44.66c0-.812.658-1.47 1.47-1.47ZM27.16 51.87c.812 0 1.47.658 1.47 1.47v11.573a1.47 1.47 0 0 1-2.94 0V53.34c0-.812.658-1.47 1.47-1.47ZM69.114 28.77c-6.38 0-11.55 5.17-11.55 11.55 0 6.38 5.17 11.55 11.55 11.55 6.38 0 11.55-5.17 11.55-11.55 0-6.38-5.17-11.55-11.55-11.55Zm-14.49 11.55c0-8.003 6.486-14.49 14.49-14.49 8.003 0 14.49 6.487 14.49 14.49s-6.487 14.49-14.49 14.49c-8.004 0-14.49-6.487-14.49-14.49Z" clip-rule="evenodd"/><path fill="#293349" fill-rule="evenodd" d="M77.282 48.489a1.47 1.47 0 0 1 2.079 0l9.599 9.598a1.47 1.47 0 1 1-2.08 2.08l-9.598-9.6a1.47 1.47 0 0 1 0-2.078Z" clip-rule="evenodd"/></svg>
