<svg xmlns="http://www.w3.org/2000/svg" width="98" height="98" fill="none"><circle cx="75.46" cy="23.52" r="14.7" fill="#00C26D"/><path fill="#293349" fill-rule="evenodd" d="M16.856 34.506a5.916 5.916 0 0 1 5.92-5.92h6.458c.5 0 .965.254 1.235.674l2.851 4.424 2.851-4.424a1.47 1.47 0 0 1 1.236-.674h20.04a5.916 5.916 0 0 1 5.92 5.92 5.916 5.916 0 0 1-5.92 5.919H43.229v40.2c0 3.273-2.66 5.919-5.92 5.919-1.548 0-2.951-.6-4-1.571a5.854 5.854 0 0 1-3.996 1.57 5.922 5.922 0 0 1-5.92-5.919V60.47c-2.08-.248-3.658-1.034-4.758-2.207-1.324-1.414-1.778-3.201-1.778-4.744V34.506Zm9.477 24.407V38.955a1.47 1.47 0 0 0-2.94 0V57.5c-1.31-.217-2.115-.718-2.614-1.25-.687-.733-.983-1.728-.983-2.733V34.506a2.976 2.976 0 0 1 2.98-2.98h5.656l3.653 5.668a1.47 1.47 0 0 0 2.47 0l3.653-5.668h19.24a2.976 2.976 0 0 1 2.979 2.98 2.976 2.976 0 0 1-2.98 2.979H41.759a1.47 1.47 0 0 0-1.47 1.47v41.67a2.982 2.982 0 0 1-2.98 2.979 2.97 2.97 0 0 1-2.672-1.695 1.47 1.47 0 0 0-2.647-.007c-.496 1.017-1.512 1.702-2.677 1.702a2.982 2.982 0 0 1-2.98-2.98v-21.37a1.481 1.481 0 0 0 0-.34ZM26.049 18.326a7.25 7.25 0 0 1 7.252-7.252 7.25 7.25 0 0 1 7.252 7.252 7.25 7.25 0 0 1-7.252 7.252 7.25 7.25 0 0 1-7.252-7.252Zm7.252-4.312a4.31 4.31 0 0 0-4.312 4.312 4.31 4.31 0 0 0 4.312 4.312 4.31 4.31 0 0 0 4.312-4.312 4.31 4.31 0 0 0-4.312-4.312Z" clip-rule="evenodd"/><path fill="#293349" fill-rule="evenodd" d="M33.3 55.605c.812 0 1.47.658 1.47 1.47v25.48a1.47 1.47 0 0 1-2.94 0v-25.48c0-.812.659-1.47 1.47-1.47ZM58.36 17.366c0-.812.657-1.47 1.47-1.47H73.94a1.47 1.47 0 0 1 0 2.94H61.3v5.272a1.47 1.47 0 1 1-2.94 0v-6.742ZM77.616 29.772c.812 0 1.47.659 1.47 1.47v5.145a1.47 1.47 0 0 1-1.47 1.47H66.973a1.47 1.47 0 0 1 0-2.94h9.173v-3.675c0-.812.658-1.47 1.47-1.47ZM81.596 19.962a1.47 1.47 0 0 1 0 2.079L71.355 32.28a1.47 1.47 0 0 1-2.08 0l-5.243-5.253a1.47 1.47 0 1 1 2.08-2.077l4.204 4.212 9.2-9.201a1.47 1.47 0 0 1 2.08 0ZM59.83 43.13c.811 0 1.47.658 1.47 1.47v12.652h14.846v-3.675a1.47 1.47 0 0 1 2.94 0v5.145a1.47 1.47 0 0 1-1.47 1.47H59.83a1.47 1.47 0 0 1-1.47-1.47V44.6c0-.812.658-1.47 1.47-1.47Z" clip-rule="evenodd"/><path fill="#293349" fill-rule="evenodd" d="M81.596 42.296a1.47 1.47 0 0 1 0 2.079L71.355 54.616a1.47 1.47 0 0 1-2.08 0l-5.243-5.254a1.47 1.47 0 1 1 2.08-2.077l4.204 4.212 9.2-9.2a1.47 1.47 0 0 1 2.08 0ZM59.83 65.464c.811 0 1.47.658 1.47 1.47v13.877h14.846v-3.685a1.47 1.47 0 0 1 2.94 0v5.155a1.47 1.47 0 0 1-1.47 1.47H59.83a1.47 1.47 0 0 1-1.47-1.47V66.934c0-.812.658-1.47 1.47-1.47Z" clip-rule="evenodd"/><path fill="#293349" fill-rule="evenodd" d="M81.596 65.856a1.47 1.47 0 0 1 0 2.079l-10.242 10.23a1.47 1.47 0 0 1-2.078 0l-5.243-5.243a1.47 1.47 0 0 1 2.079-2.078l4.204 4.204 9.201-9.193a1.47 1.47 0 0 1 2.08 0Z" clip-rule="evenodd"/></svg>
