<svg width="616" height="353" fill="none" xmlns="http://www.w3.org/2000/svg"><path d="M19.012 295.443c.609 40.318 46.737 57.258 46.737 57.258H511s25.61-26.15 55.89-71.7c30.28-45.551 44.153-118.501 3.726-168.916C526.543 66.5 478.543 62.667 443.76 80.903c-61.852 32.427-98.313-7.807-149.913-42.452-61.174-41.073-138.589-23.377-159.304 33.442-13.479 36.973 7.682 82.431-21.327 109.024-37 33.917-95.179 49.926-94.204 114.526z" fill="#323F60"/><path d="M19.012 295.443c.609 40.318 46.737 57.258 46.737 57.258H511s25.61-26.15 55.89-71.7c30.28-45.551 44.153-118.501 3.726-168.916C526.543 66.5 478.543 62.667 443.76 80.903c-61.852 32.427-98.313-7.807-149.913-42.452-61.174-41.073-138.589-23.377-159.304 33.442-13.479 36.973 7.682 82.431-21.327 109.024-37 33.917-95.179 49.926-94.204 114.526z" fill="#323F60"/><path d="M19.012 295.443c.609 40.318 46.737 57.258 46.737 57.258H511s25.61-26.15 55.89-71.7c30.28-45.551 44.153-118.501 3.726-168.916C526.543 66.5 478.543 62.667 443.76 80.903c-61.852 32.427-98.313-7.807-149.913-42.452-61.174-41.073-138.589-23.377-159.304 33.442-13.479 36.973 7.682 82.431-21.327 109.024-37 33.917-95.179 49.926-94.204 114.526z" fill="#323F60"/><path d="M19.012 295.443c.609 40.318 46.737 57.258 46.737 57.258H511s25.61-26.15 55.89-71.7c30.28-45.551 44.153-118.501 3.726-168.916C526.543 66.5 478.543 62.667 443.76 80.903c-61.852 32.427-98.313-7.807-149.913-42.452-61.174-41.073-138.589-23.377-159.304 33.442-13.479 36.973 7.682 82.431-21.327 109.024-37 33.917-95.179 49.926-94.204 114.526z" fill="#323F60"/><path d="M204.538 106.696s-9.741 22.087-8.242 23.468c1.498 1.38 12.737 23.043 14.557 23.149 1.819.106 1.177-5.628 1.177-5.628l10.918-10.194-18.41-30.795zM247.78 93.316s21.192 11.787 20.871 13.805c-.321 1.911 3.747 26.016 2.355 27.184-1.391 1.168-4.388-3.823-4.388-3.823l-14.878-1.699-3.96-35.467z" fill="#00C26D"/><path d="M473.409 252.092c-11.346-31.538-46.989 16.133-65.077 27.27-18.089 11.137-14.985-48.92-43.564-29.248-28.578 19.672-29.969 74.733-56.835 73.172-11.56-.729-17.875-36.534-25.795-57.767l-38.105-148.842-20.443 8.744 49.985 146.759c2.462 12.594 16.697 46.11 15.948 53.187-.963 9.368-24.19 8.223-47.095 1.041-38.533-12.074-56.086-76.606-86.698-84.725-14.557-3.851-22.906 4.892-28.9 15.197 1.285 2.914 2.783 5.724 4.389 8.43 29.541 50.586 77.921 75.254 149.955 77.96 71.928 2.602 122.555 7.39 183.993-46.734 1.927-1.666 3.746-3.435 5.566-5.309 4.067-12.177 7.064-27.062 2.676-39.135z" fill="#fff"/><path d="M252.703 126.235s-6.422-66.9-11.56-85.483C235.899 22.17 207.749-3.954 197.687.506c-10.168 4.46-14.449 39.609-11.881 57.874 2.569 18.264 31.148 79.111 40.138 84.951 8.991 5.84 26.01 7.539 26.759-17.096z" fill="#fff"/><path d="M252.703 126.235s0-.425-.107-1.275c-6.743 21.982-21.728 18.371-31.468 13.062 1.927 2.654 3.532 4.566 4.71 5.309 8.99 5.841 26.116 7.54 26.865-17.096zM197.58.506c-9.419 4.142-13.807 35.043-12.309 53.945 3.425 2.867 7.493 5.097 11.988 6.37 17.233 4.992 35.536-4.459 43.349-21.555C234.4 20.789 207.427-3.847 197.58.506z" fill="#00C26D"/><path d="M218.987 15.798c5.78 5.946 13.059 14.548 18.196 24.742M209.568 7.196s1.82 1.487 4.71 4.036" stroke="#fff" stroke-width="1.07" stroke-miterlimit="10" stroke-linecap="round" stroke-linejoin="round"/><path d="m249.278 122.412.428 3.079M247.994 112.855l.963 7.008M240.715 57.849l6.529 48.741M239.324 47.442l.535 4.354M194.797 77.6l12.095 27.078M208.177 107.97l2.462 5.522" stroke="#1A2E35" stroke-width="1.07" stroke-miterlimit="10" stroke-linecap="round" stroke-linejoin="round"/><path d="M237.511 86.222c2.483-8.446-2.037-17.182-10.096-19.514-8.058-2.332-16.603 2.624-19.086 11.07-2.483 8.444 2.037 17.18 10.095 19.513 8.059 2.332 16.604-2.624 19.087-11.07z" fill="#00C26D"/><path d="M232.688 86.308c-1.606 5.415-7.065 8.6-12.202 7.114-5.138-1.486-8.028-7.114-6.422-12.424 1.605-5.416 7.064-8.601 12.202-7.115 5.137 1.38 8.027 7.009 6.422 12.425z" fill="#313F5F"/><path d="m233.544 123.261 11.56 29.521c.214.743.963 1.062 1.712.743.642-.318 1.071-1.168.75-1.805l-9.848-30.264c-.428-1.274-1.819-1.805-2.997-1.168a2.4 2.4 0 0 0-1.177 2.973z" fill="#00C26D"/><path d="m468.592 144.905 12.845-1.498 1.926-14.236-12.095-4.923a53.337 53.337 0 0 0-2.462-13.701l9.848-8.669-6.529-12.738-12.952 2.997c-4.816-6.1-10.917-11.345-17.982-15.092l.857-13.379-13.701-4.388-7.171 11.452a57.738 57.738 0 0 0-13.593 0l-7.065-11.56-13.7 4.282.749 13.593a60.808 60.808 0 0 0-11.132 7.707l-12.416-5.459-8.776 11.346 8.348 10.703c-1.391 2.783-2.676 5.78-3.639 8.777-.428 1.285-.749 2.569-1.07 3.853l-13.273 2.676-.749 14.343 12.737 3.96c.643 4.603 1.713 9.098 3.425 13.273l-9.097 9.633 7.599 12.202 12.523-3.961c3.104 3.425 6.636 6.529 10.596 9.098l-1.926 12.844 13.272 5.566 7.814-10.275a57.223 57.223 0 0 0 14.021 1.391l5.78 11.453 14.022-2.997.535-12.844c4.388-1.82 8.456-4.174 12.309-6.957l11.346 6.101 9.74-10.49-6.958-10.81c2.569-4.389 4.496-8.67 5.994-13.273zm-20.122-6.743c-6.101 18.838-26.224 29.221-45.062 23.12-18.838-6.101-29.22-26.224-23.119-45.062C386.39 97.382 406.512 87 425.35 93.1c18.838 5.995 29.221 26.224 23.12 45.062z" fill="#fff"/><path d="m323.566 53.295 4.729-1.092.122-5.336-4.73-1.333c-.242-1.698-.849-3.396-1.455-4.972l3.274-3.638-3.031-4.487-4.608 1.698c-2.062-2.062-4.487-3.76-7.276-4.851l-.243-4.972-5.214-1.091-2.183 4.608c-1.698 0-3.396.242-4.972.606l-3.153-4.002-4.851 2.183.849 4.972c-1.334.97-2.668 2.062-3.759 3.274l-4.851-1.455-2.789 4.608 3.517 3.638c-.364 1.092-.728 2.183-.97 3.396-.121.485-.121.97-.243 1.455L277 48.08l.364 5.336 4.85.849c.364 1.697 1.092 3.274 1.819 4.73l-2.91 4 3.395 4.124 4.245-1.94c1.334 1.091 2.789 2.061 4.244 2.91l-.121 4.85 5.093 1.456 2.425-4.123c1.819.242 3.517.121 5.215-.121l2.668 4.001 5.093-1.697-.364-4.73c1.576-.849 2.91-1.94 4.244-3.153l4.487 1.82 3.153-4.366-3.032-3.76c.849-1.576 1.334-3.152 1.698-4.971zm-7.761-1.577c-1.455 7.276-8.489 12.005-15.643 10.55-7.276-1.455-12.006-8.488-10.55-15.643 1.455-7.276 8.488-12.005 15.643-10.55 7.276 1.334 12.005 8.367 10.55 15.643z" fill="#00C26D"/><path d="M468.378 157.964c-.107 0-.214 0-.214-.107-.107-.107 0-.321.107-.321a39.84 39.84 0 0 0 2.676-1.82c.107-.107.321-.107.428.107.107.107.107.321-.107.428-.856.642-1.712 1.285-2.676 1.82-.107-.107-.107-.107-.214-.107zm5.138-3.854c-.107 0-.107 0-.214-.107a.325.325 0 0 1 0-.428c.749-.749 1.605-1.391 2.248-2.247a.325.325 0 0 1 .428 0 .325.325 0 0 1 0 .428c-.75.749-1.499 1.498-2.355 2.247 0 .107 0 .107-.107.107zm4.495-4.602c-.107 0-.107 0-.214-.107s-.107-.214 0-.428l1.927-2.569c.107-.107.214-.107.321-.107.107.107.107.214.107.321l-1.927 2.569c-.107.321-.214.321-.214.321zm-124.909-7.171-3.211-.857c-.107 0-.214-.214-.214-.321 0-.107.214-.214.321-.214l3.104.856c.107 0 .214.215.214.322a.23.23 0 0 1-.214.214zm-6.208-1.713-3.211-.856c-.107 0-.214-.214-.214-.321 0-.107.214-.214.321-.214l3.104.856c.107 0 .214.214.214.321a.23.23 0 0 1-.214.214zm-6.208-1.712-3.211-.857c-.107 0-.214-.214-.214-.321 0-.107.214-.214.321-.214l3.104.856c.107 0 .214.214.214.321 0 .215-.107.215-.214.215zm143.854-.322c-.214-.107-.321-.214-.214-.321.429-.963.857-1.926 1.178-2.997 0-.107.214-.214.321-.107.107 0 .214.214.107.321-.321 1.071-.749 2.034-1.177 2.997 0 0-.108.107-.215.107zm-150.062-1.284-3.211-.856c-.107 0-.214-.214-.214-.321 0-.107.214-.214.321-.214l3.104.856c.107 0 .214.214.214.321a.23.23 0 0 1-.214.214zm-6.208-1.713-3.211-.856c-.107 0-.214-.214-.214-.321 0-.107.214-.214.321-.214l3.104.856c.107 0 .214.214.214.321 0 .214-.107.214-.214.214zm-6.208-1.605-3.211-.856c-.107 0-.214-.214-.214-.321 0-.107.214-.215.321-.215l3.104.857c.107 0 .214.214.214.321a.23.23 0 0 1-.214.214zm164.726-1.499c-.214-.107-.321-.214-.214-.321.321-.963.535-2.033.856-3.104 0-.107.214-.214.321-.214.108 0 .215.214.215.321-.214 1.071-.536 2.141-.857 3.104-.107.214-.214.214-.321.214zm-170.934-.107-3.211-.856c-.107 0-.214-.214-.214-.321 0-.107.214-.214.321-.214l3.104.856c.107 0 .214.214.214.321a.23.23 0 0 1-.214.214zm-6.208-1.712-3.211-.856c-.107 0-.214-.214-.214-.322 0-.107.214-.214.321-.214l3.104.857c.107 0 .214.214.214.321 0 .214-.107.214-.214.214zm-6.208-1.606c-1.071-.321-2.141-.535-3.211-.856-.107 0-.214-.214-.214-.321 0-.107.214-.214.321-.214 1.07.214 2.033.535 3.104.749.107 0 .214.214.214.321 0 .321-.107.321-.214.321zm184.849-2.783c-.214 0-.321-.214-.214-.321.214-1.07.321-2.14.535-3.104 0-.107.107-.214.321-.214.107 0 .214.107.214.321-.107 1.071-.321 2.141-.535 3.211-.107 0-.214.107-.321.107zm-209.788-3.425c-1.071-.214-2.141-.535-3.211-.749-.107 0-.214-.214-.214-.321 0-.107.214-.214.321-.214 1.07.214 2.033.535 3.104.749.107 0 .214.214.214.321 0 .214-.107.214-.214.214zm210.644-2.89c-.214 0-.321-.107-.214-.321.107-1.07.214-2.14.214-3.211a.23.23 0 0 1 .214-.214c.107 0 .214.107.214.321 0 1.071-.107 2.141-.214 3.211.107.107 0 .214-.214.214zm.321-6.422a.23.23 0 0 1-.214-.214c0-1.07 0-2.14-.107-3.211 0-.107.107-.321.214-.321s.321.107.321.214c0 1.07.107 2.141.107 3.211-.107.214-.214.321-.321.321zm-.321-6.422a.23.23 0 0 1-.214-.214l-.321-3.211c0-.107.107-.321.214-.321s.321.107.321.214l.321 3.211c0 .107-.107.321-.321.321zm-.856-6.422a.23.23 0 0 1-.214-.214c-.214-1.07-.429-2.14-.643-3.104 0-.107.107-.321.214-.321s.322.107.322.214l.642 3.211c0 .107-.107.214-.321.214zm-1.285-6.208a.23.23 0 0 1-.214-.214c-.214-1.07-.535-2.034-.856-3.104 0-.107 0-.321.214-.321.107 0 .321 0 .321.214.321 1.07.642 2.034.856 3.104-.107.107-.107.214-.321.321zm-1.926-6.208a.23.23 0 0 1-.214-.214c-.322-.963-.75-2.034-1.071-2.997-.107-.107 0-.321.107-.321s.321 0 .321.107c.429.963.75 2.034 1.071 2.997.107.214.107.428-.214.428.107 0 .107 0 0 0zm-231.838-5.459a.23.23 0 0 1-.214-.214c0-.107 0-.32.107-.32.964-.322 2.034-.75 2.997-1.178.107 0 .321 0 .321.107s0 .32-.107.32c-.963.536-2.033.857-3.104 1.285zm229.59-.535a.23.23 0 0 1-.214-.214l-1.285-2.89c-.107-.107 0-.32.107-.32s.322-.001.322.106c.428.963.963 1.927 1.391 2.89 0 .214-.107.428-.321.428zm-223.596-1.82a.23.23 0 0 1-.214-.213c-.107-.108 0-.322.107-.322.964-.428 1.927-.749 2.997-1.177.107-.107.321 0 .321.107.107.107 0 .321-.107.321-1.07.535-2.033.963-3.104 1.285zm5.887-2.461a.23.23 0 0 1-.214-.214c-.107-.107 0-.321.107-.321l2.89-1.285c.107-.107.321 0 .321.107s0 .321-.107.321c-.856.535-1.819.964-2.997 1.392.107 0 .107 0 0 0zm214.926-1.499c-.107 0-.214 0-.214-.107-.535-.963-1.07-1.926-1.606-2.783-.107-.107 0-.32.107-.32.107-.108.322 0 .322.106.535.964 1.07 1.82 1.605 2.783.107.107 0 .321-.107.321h-.107zm-209.039-1.07c-.107 0-.214-.107-.214-.107-.107-.107 0-.321.107-.321l2.89-1.285c.107-.107.321 0 .321.107.107.107 0 .322-.107.322l-2.89 1.284h-.107zm5.887-2.676c-.107 0-.214-.107-.214-.107-.107-.107 0-.321.107-.321.963-.428 1.927-.856 2.89-1.391.107-.108.321 0 .321.107.107.106 0 .32-.107.32-.963.429-1.927.964-2.89 1.392h-.107zm199.941-1.82c-.107 0-.214 0-.214-.107a39.49 39.49 0 0 0-1.82-2.675c-.107-.108-.107-.322.107-.322.107-.107.321-.107.321.108.643.856 1.178 1.82 1.82 2.675.107.107 0 .322-.107.322h-.107zm-194.161-.963c-.107 0-.214-.107-.214-.107-.107-.107 0-.321.107-.321.963-.428 1.927-.963 2.89-1.391.107-.108.321 0 .321.107.107.107 0 .32-.107.32-.963.429-1.927.964-2.89 1.392h-.107zm5.78-2.783c-.107 0-.214-.107-.214-.107-.107-.107 0-.32.107-.32l2.89-1.392c.107-.107.321 0 .321.107.107.107 0 .32-.107.32l-2.89 1.392h-.107zM473.088 65.7c-.107 0-.214 0-.214-.107l-1.927-2.57a.326.326 0 0 1 0-.427.325.325 0 0 1 .428 0c.642.856 1.392 1.712 2.034 2.569a.326.326 0 0 1 0 .428c-.214.107-.214.107-.321.107zm-178.855-1.285c-.107 0-.214-.107-.214-.107-.107-.107 0-.32.107-.32l2.89-1.392c.107-.107.321 0 .321.107.107.107 0 .32-.107.32l-2.89 1.392h-.107zm5.78-2.783c-.107 0-.214-.107-.214-.107-.108-.107 0-.32.107-.32l2.889-1.392c.108-.107.322 0 .322.107.107.107 0 .321-.107.321l-2.89 1.392c0-.108-.107 0-.107 0zm169.114-.856c-.107 0-.107 0-.214-.107-.749-.75-1.391-1.605-2.14-2.355a.326.326 0 0 1 0-.428.325.325 0 0 1 .428 0c.749.75 1.498 1.606 2.141 2.355a.326.326 0 0 1 0 .428c-.108 0-.215.107-.215.107zm-163.335-2.034c-.107 0-.214-.106-.214-.106-.107-.108 0-.322.107-.322.964-.428 1.927-.963 2.89-1.391.107-.107.321 0 .321.107.108.107 0 .321-.107.321-.963.428-1.926.963-2.889 1.392h-.108zm158.84-2.675c-.107 0-.107 0-.214-.107-.749-.75-1.499-1.499-2.355-2.141-.107-.107-.107-.214 0-.428a.325.325 0 0 1 .428 0c.75.749 1.606 1.498 2.355 2.14a.326.326 0 0 1 0 .429c-.107.107-.107.107-.214.107zm-153.06-.107c-.107 0-.214-.107-.214-.107-.107-.107 0-.322.107-.322.964-.428 1.927-.963 2.89-1.391.107-.107.321 0 .321.107s0 .321-.107.321c-.963.428-1.926.964-2.89 1.392h-.107zm5.887-2.676c-.107 0-.214-.107-.214-.107-.107-.107 0-.321.107-.321.964-.428 1.927-.857 2.89-1.392.107-.107.321 0 .321.107.107.107 0 .321-.107.321-.963.428-1.926.857-2.89 1.392h-.107zm142.356-1.499c-.107 0-.107 0-.214-.107-.856-.642-1.605-1.391-2.461-2.033-.107-.108-.107-.215 0-.429.107-.107.214-.107.428 0 .856.643 1.712 1.285 2.569 2.034.107.107.107.214 0 .428-.107.107-.215.107-.322.107zm-136.576-1.177c-.107 0-.214-.107-.214-.107-.107-.107 0-.321.107-.321a84.23 84.23 0 0 1 2.997-1.285c.107-.107.321 0 .321.107.107.107 0 .322-.107.322l-2.89 1.284h-.214zm131.546-2.676h-.107c-.856-.642-1.713-1.177-2.676-1.82-.107-.107-.107-.214-.107-.32.107-.108.214-.108.321-.108.856.535 1.82 1.178 2.676 1.82.107.107.107.214.107.321-.107.107-.214.107-.214.107zm-5.459-3.532h-.107c-.963-.535-1.82-1.07-2.783-1.606-.107-.107-.214-.214-.107-.32.107-.108.214-.215.321-.108.963.535 1.82 1.07 2.783 1.606.107.107.214.214.107.32 0 .108-.107.108-.214.108zm-5.566-3.104h-.107c-.963-.428-1.926-.963-2.89-1.392-.107-.107-.214-.214-.107-.32.107-.108.214-.215.321-.108.964.428 1.927.964 2.89 1.392.107.107.214.214.107.32 0 .108-.107.108-.214.108zm-5.887-2.676c-1.07-.428-2.033-.856-3.104-1.177-.107 0-.214-.215-.107-.322 0-.107.214-.214.321-.107.964.429 2.034.75 2.997 1.178.107.107.214.214.107.321 0 .107-.107.107-.214.107zm-5.994-2.248c-1.07-.32-2.14-.642-3.104-.963-.107 0-.214-.214-.214-.321 0-.107.214-.214.321-.214 1.071.32 2.034.642 3.104.963.107 0 .214.214.214.321-.107.214-.214.214-.321.214zm-60.153-2.462a.23.23 0 0 1-.214-.214c0-.107.107-.32.214-.32 1.07-.215 2.141-.429 3.104-.643.107 0 .321.107.321.214s-.107.321-.214.321l-3.211.642zm6.315-1.177a.23.23 0 0 1-.214-.214c0-.107.107-.321.214-.321 1.07-.214 2.141-.321 3.211-.535.107 0 .321.107.321.214s-.107.32-.214.32c-1.177.215-2.248.43-3.318.536zm6.315-.856a.23.23 0 0 1-.214-.214c0-.107.107-.321.214-.321l3.211-.322c.107 0 .321.108.321.215s-.107.32-.214.32c-1.177.108-2.248.215-3.318.322zm6.422-.642a.23.23 0 0 1-.214-.215c0-.107.107-.32.214-.32 1.07-.108 2.141-.108 3.211-.215.214 0 .321.107.321.214s-.107.321-.214.321c-1.177.108-2.248.215-3.318.215zm9.633-.215H397.2a.23.23 0 0 1-.214-.213c0-.108.107-.322.214-.322h3.211c.107 0 .214.107.214.322a.23.23 0 0 1-.214.213zM343.95 327.698h-.107c-.107 0-.215-.107-.215-.214s.108-.214.215-.214h.107c1.819 0 3.532 0 5.244-.107.107 0 .321.107.321.214s-.107.321-.214.321h-5.351zm-3.319 0c-1.712 0-3.532-.107-5.351-.214-.107 0-.214-.107-.214-.321 0-.107.107-.214.321-.214 1.819.107 3.639.214 5.352.214.107 0 .214.107.214.321 0 .107-.107.214-.322.214zm-8.562-.428c-1.713-.107-3.532-.321-5.352-.429-.107 0-.214-.107-.214-.321 0-.107.107-.214.321-.214 1.82.214 3.639.321 5.352.428.107 0 .214.108.214.322 0 .107-.107.214-.321.214zm-8.456-.857a759.84 759.84 0 0 0-5.352-.642c-.107 0-.214-.107-.214-.321 0-.107.107-.214.321-.214 1.82.214 3.532.428 5.352.642.107 0 .214.107.214.321-.107.107-.214.214-.321.214zm-8.563-1.07c-1.712-.214-3.532-.535-5.352-.856-.107 0-.214-.214-.214-.321 0-.107.214-.214.321-.214 1.82.321 3.533.535 5.245.856.107 0 .214.107.214.321.107.107 0 .214-.214.214zm-8.349-1.391c-.107 0-.107 0 0 0-1.712-.322-3.532-.643-5.351-.964-.107 0-.214-.214-.214-.321 0-.107.214-.214.321-.214 1.819.321 3.532.642 5.244.963.108 0 .215.214.215.321a.23.23 0 0 1-.215.215zm-8.455-1.499c-1.713-.321-3.532-.749-5.245-1.07-.107 0-.214-.214-.214-.321 0-.107.214-.214.321-.214 1.82.428 3.532.749 5.245 1.07.107 0 .214.214.214.321-.107.107-.214.214-.321.214zm-8.349-1.82c-.107 0-.107 0 0 0-1.713-.428-3.532-.749-5.245-1.177-.107 0-.214-.214-.214-.321 0-.107.214-.214.321-.214 1.82.428 3.533.856 5.245 1.177.107 0 .214.214.214.321-.107.107-.214.214-.321.214zm-8.349-1.926c-1.712-.428-3.532-.856-5.244-1.285-.107 0-.214-.214-.214-.321 0-.107.214-.214.321-.214 1.712.428 3.532.857 5.137 1.285.107 0 .214.214.214.321a.23.23 0 0 1-.214.214zm-57.156-17.982c-1.82-.749-3.425-1.498-5.031-2.248-.107-.107-.214-.214-.107-.321.107-.107.214-.214.321-.107 1.606.749 3.211 1.499 4.924 2.141.107.107.214.214.107.321 0 .214-.107.214-.214.214zm-7.814-3.532h-.107c-1.605-.749-3.211-1.606-4.816-2.355-.107-.107-.214-.214-.107-.321.107-.107.214-.214.321-.107 1.498.749 3.211 1.605 4.816 2.355.107.107.214.214.107.321 0 .107-.107.107-.214.107zm-7.599-3.853h-.107c-1.606-.857-3.211-1.713-4.71-2.569-.107-.107-.214-.214-.107-.321.107-.107.214-.214.321-.107 1.499.856 3.104 1.712 4.71 2.568.107.108.214.215.107.322 0 .107-.107.107-.214.107zm-7.386-4.282h-.107c-1.498-.963-3.104-1.926-4.495-2.89-.107-.107-.107-.214-.107-.321.107-.107.214-.107.321-.107 1.498.963 2.997 1.927 4.495 2.783.107.107.214.214.107.321-.107.214-.214.214-.214.214zm-7.278-4.602h-.107a64.697 64.697 0 0 1-4.388-3.104c-.107-.107-.107-.214-.107-.321.107-.107.214-.107.321-.107 1.391 1.07 2.89 2.033 4.388 3.104.107.107.107.214.107.321 0 .107-.107.107-.214.107zm-6.957-5.031c-.107 0-.107 0-.214-.107a142.392 142.392 0 0 1-4.175-3.318c-.107-.107-.107-.214 0-.428.107-.107.214-.107.428 0 1.392 1.07 2.783 2.248 4.175 3.318.107.107.107.214 0 .428 0 .107-.107.107-.214.107zm-6.529-5.352c-.107 0-.107 0-.214-.107a63.508 63.508 0 0 1-3.961-3.639.325.325 0 0 1 0-.428.325.325 0 0 1 .428 0c1.285 1.177 2.569 2.462 3.961 3.639.107.107.107.214 0 .428-.107 0-.214.107-.214.107zm-6.315-5.887c-.107 0-.107 0-.214-.107-1.285-1.284-2.462-2.568-3.64-3.853a.325.325 0 0 1 0-.428.325.325 0 0 1 .428 0c1.178 1.284 2.355 2.569 3.64 3.853a.325.325 0 0 1 0 .428s-.107.107-.214.107zm-5.78-6.315c-.107 0-.107 0-.214-.107-1.178-1.391-2.248-2.783-3.318-4.174-.107-.107-.107-.321 0-.321a.325.325 0 0 1 .428 0c1.07 1.391 2.14 2.783 3.318 4.174a.325.325 0 0 1 0 .428c0-.107-.107 0-.214 0zm-5.245-6.743c-.107 0-.214 0-.214-.107-1.07-1.498-2.034-2.997-2.997-4.388-.107-.107 0-.321.107-.321.107-.107.321 0 .321.107.963 1.498 1.927 2.997 2.997 4.388.107.107.107.321-.107.321h-.107zm-4.602-7.171c-.108 0-.215 0-.215-.107-.856-1.499-1.819-3.104-2.675-4.71-.107-.107 0-.321.107-.321.107-.107.321 0 .321.107a64.244 64.244 0 0 0 2.676 4.603c.107.107 0 .321-.107.321l-.107.107zm-4.175-7.493c-.107 0-.214-.107-.214-.107l-2.248-4.816c-.107-.107 0-.321.107-.321.107-.107.322 0 .322.107l2.247 4.816c.107.107 0 .321-.107.321 0-.107 0 0-.107 0zm-3.425-7.813a.23.23 0 0 1-.214-.214c-.642-1.606-1.284-3.318-1.927-5.031 0-.107 0-.321.214-.321.107 0 .322 0 .322.214.535 1.713 1.177 3.318 1.819 5.031 0 0 0 .214-.214.321zm-2.89-8.135a.23.23 0 0 1-.214-.214c-.535-1.712-1.07-3.425-1.498-5.137 0-.107 0-.322.214-.322.107 0 .321 0 .321.215.428 1.712.963 3.425 1.498 5.137-.107.107-.107.321-.321.321zm-2.248-8.241a.23.23 0 0 1-.214-.214c-.428-1.713-.749-3.533-1.07-5.245 0-.107.107-.321.214-.321s.321.107.321.214c.321 1.712.642 3.532 1.07 5.245-.107.107-.214.321-.321.321zm-1.712-8.349a.23.23 0 0 1-.214-.214 43.04 43.04 0 0 1-.642-5.352c0-.107.107-.321.214-.321s.321.107.321.214c.214 1.713.428 3.532.642 5.245 0 .214-.107.321-.321.428.107 0 .107-.107 0 0zm-.963-8.563c-.108 0-.215-.107-.215-.214-.107-1.82-.214-3.532-.321-5.352 0-.107.107-.321.214-.321s.322.107.322.214c.107 1.82.107 3.532.321 5.352 0 .214-.107.321-.321.321zm-.322-8.563a.23.23 0 0 1-.214-.214v-.321c0-1.712 0-3.318.107-5.03 0-.107.107-.215.321-.215.108 0 .215.108.215.322-.107 1.605-.107 3.318-.107 5.03v.321c-.108 0-.215.107-.322.107zm8.028-41.85c-.107 0-.107 0 0 0-.214-.107-.321-.214-.214-.321a97.043 97.043 0 0 1 2.141-4.924c.107-.107.214-.214.321-.107.107.107.214.214.107.321-.749 1.606-1.499 3.211-2.141 4.924 0 .107-.107.107-.214.107zm3.532-7.707h-.107c-.107-.107-.214-.214-.107-.321.856-1.605 1.713-3.211 2.569-4.709.107-.107.214-.214.321-.107.107.107.214.214.107.321-.856 1.498-1.712 3.104-2.569 4.709 0 0-.107.107-.214.107zm4.282-7.492h-.107c-.108-.107-.215-.214-.108-.321.964-1.499 1.927-2.997 2.997-4.496.108-.107.215-.107.322-.107.107.107.107.214.107.321-1.071 1.392-2.034 2.89-2.997 4.389-.107.214-.107.214-.214.214zm4.923-6.957c-.107 0-.107 0-.214-.107s-.107-.215 0-.429c1.07-1.391 2.248-2.782 3.425-4.174.107-.107.214-.107.428 0 .107.107.107.214 0 .428-1.177 1.285-2.247 2.676-3.318 4.175a.469.469 0 0 0-.321.107zm5.459-6.637c-.107 0-.107 0-.214-.107a.325.325 0 0 1 0-.428c1.177-1.284 2.462-2.569 3.746-3.853a.325.325 0 0 1 .428 0 .325.325 0 0 1 0 .428 62.14 62.14 0 0 0-3.746 3.746c-.107.214-.107.214-.214.214zm6.101-5.886c-.107 0-.107 0-.214-.108a.325.325 0 0 1 0-.428c1.284-1.177 2.676-2.354 4.174-3.425a.325.325 0 0 1 .428 0 .325.325 0 0 1 0 .428 62.851 62.851 0 0 0-4.067 3.425c-.214 0-.214.108-.321.108zm6.743-5.352c-.107 0-.214 0-.214-.107-.107-.107-.107-.321.107-.321 1.499-1.071 2.997-2.034 4.496-2.997.107-.107.321 0 .321.107.107.107 0 .321-.107.321-1.499.963-2.997 1.926-4.389 2.997h-.214zm7.171-4.71c-.107 0-.214 0-.214-.107-.107-.107 0-.321.107-.321 1.499-.856 3.104-1.712 4.71-2.569.107-.107.321 0 .321.107.107.107 0 .321-.107.321-1.606.75-3.104 1.606-4.71 2.569h-.107z" fill="#1A2E35"/><path d="m421.458 303.279-6.019 26.871 71.884-13.987-65.865-12.884z" fill="#00C26D" stroke="#293349" stroke-width=".848" stroke-miterlimit="10" stroke-linecap="round" stroke-linejoin="round"/><path d="m421.542 311.078-6.103 19.073 25.939-5.51-19.836-13.563zM420.186 281.747l1.272 21.532 65.865 12.885-67.137-34.417z" fill="#00C26D" stroke="#293349" stroke-width=".848" stroke-miterlimit="10" stroke-linecap="round" stroke-linejoin="round"/><path d="m487.323 316.164-66.204 23.566.423-28.652 65.781 5.086z" fill="#00C26D" stroke="#293349" stroke-width=".848" stroke-miterlimit="10" stroke-linecap="round" stroke-linejoin="round"/><path d="M412.244 321.855c1.784-.374 3.567-.747 5.219-1.196.207-.057.282-.188.254-.291-.056-.207-.187-.282-.291-.254-1.652.449-3.436.823-5.22 1.197-.207.056-.282.187-.254.291.056.206.187.281.291.253h.001zM403.811 323.481c1.784-.374 3.596-.644 5.277-.99.206-.056.282-.188.254-.291-.056-.207-.188-.282-.291-.254-1.681.346-3.465.72-5.277.99-.206.057-.282.188-.254.291.057.207.188.282.291.254zM395.371 324.665c1.812-.27 3.624-.541 5.333-.783.103-.028.178-.16.253-.291-.056-.207-.187-.282-.29-.254-1.813.271-3.521.513-5.333.784-.207.056-.282.187-.254.291.056.206.187.281.291.253zM386.771 325.671c1.84-.167 3.68-.334 5.389-.577.206-.056.282-.187.15-.262-.056-.207-.187-.282-.291-.254-1.736.139-3.445.382-5.285.549-.104.028-.282.187-.254.291.028.103.187.281.291.253zM378.321 326.414c1.84-.167 3.68-.334 5.417-.473.104-.028.179-.16.151-.263-.028-.103-.188-.282-.291-.254l-.006.001c-1.735.139-3.47.278-5.308.445-.103.028-.282.187-.254.291.029.103.188.282.291.253zM369.844 327.054c1.736-.139 3.605-.203 5.342-.342.103-.028.178-.159.253-.291-.028-.103-.187-.282-.291-.254v.001c-1.737.139-3.474.278-5.341.342-.104.028-.282.187-.254.291.028.103.187.281.291.253zM361.282 327.384c1.765-.035 3.605-.203 5.37-.239.103-.028.178-.159.254-.29-.029-.104-.188-.282-.291-.254-1.737.139-3.502.175-5.37.239-.103.028-.282.187-.254.291.028.103.188.282.291.253zM352.692 327.611c1.765-.036 3.633-.1 5.398-.136.103-.028.179-.159.15-.262-.028-.104-.187-.282-.29-.254-1.662.008-3.53.072-5.295.108-.103.028-.282.187-.254.29.028.104.188.282.291.254z" fill="#1A2E35"/><path d="M368.194 139.982s-4.71-9.419-2.462-14.664c2.141-5.352 10.597-13.7 14.985-10.275 4.388 3.425 2.783 11.239 6.529 13.379 3.746 2.141 15.948 7.814 16.912 18.41.963 10.597-7.172 18.731-5.031 22.477 2.141 3.747 18.41 2.783 24.939 13.38 6.529 10.596 4.388 25.581-.321 31.575-4.71 5.887-33.074 14.985-33.074 21.835 0 6.85 8.777 14.343-4.388 21.193-13.166 6.85-32.753 3.425-34.68-12.844-1.926-16.269 17.768-31.575 16.591-42.493-1.285-10.917-12.523-19.052-15.627-29.327-3.104-10.276 13.7-13.38 16.269-17.126 2.462-3.639-.642-15.52-.642-15.52z" fill="#1C273A" stroke="#1A2E35" stroke-width="1.07" stroke-miterlimit="10" stroke-linecap="round" stroke-linejoin="round"/><path d="M294.982 132.061s1.713-7.171 1.713-9.205c0-2.033-.536-2.568-1.071-1.391-.535 1.177-1.284 4.281-1.284 4.281l.642 6.315zM232.367 321.62s-5.887 9.74-10.918 14.985c-5.031 5.245-6.422 10.917-1.177 12.309 5.244 1.498 13.165-.535 17.339-4.71 4.068-4.067 7.6-10.275 11.774-12.63 4.068-2.355 6.743-2.676 6.743-9.098 0-6.422-2.89-7.92-2.89-7.92s-11.773 6.743-20.871 7.064z" fill="#fff" stroke="#1A2E35" stroke-width="1.07" stroke-miterlimit="10" stroke-linecap="round" stroke-linejoin="round"/><path d="M227.336 345.917c-5.352.642-8.563-.642-10.275-1.82-.321 2.248.535 4.068 3.211 4.817 5.244 1.498 13.165-.535 17.339-4.71 4.068-4.067 7.6-10.275 11.774-12.63 3.639-2.033 6.101-2.569 6.636-6.957-2.461 1.605-6.101 3.96-9.312 6.636" fill="#fff"/><path d="M227.336 345.917c-5.352.642-8.563-.642-10.275-1.82-.321 2.248.535 4.068 3.211 4.817 5.244 1.498 13.165-.535 17.339-4.71 4.068-4.067 7.6-10.275 11.774-12.63 3.639-2.033 6.101-2.569 6.636-6.957-2.461 1.605-6.101 3.96-9.312 6.636" stroke="#1A2E35" stroke-width="1.07" stroke-miterlimit="10" stroke-linecap="round" stroke-linejoin="round"/><path d="M321.634 229.891s-30.505-8.242-44.955-10.918c-14.45-2.675-27.936-4.388-32.645 1.178-4.71 5.566-3.533 49.022-5.566 59.939-2.034 10.918-4.389 31.683-5.031 35.001-.535 3.211-3.211 6.208-1.498 7.385 1.712 1.177 12.309 2.034 16.162 0 3.853-2.034 6.743-3.211 6.743-6.743 0-3.532.535-35.001 3.211-44.634 2.676-9.74 4.71-26.116 4.71-26.116s19.052 4.388 27.936 7.064c8.777 2.676 21.407 12.095 33.502 12.309 12.095.321 10.596-17.875 8.241-23.226-2.247-5.352-6.422-10.276-10.81-11.239z" fill="#00C26D"/><path d="M321.634 229.891s-30.505-8.242-44.955-10.918c-14.45-2.675-27.936-4.388-32.645 1.178-4.71 5.566-3.533 49.022-5.566 59.939-2.034 10.918-4.389 31.683-5.031 35.001-.535 3.211-3.211 6.208-1.498 7.385 1.712 1.177 12.309 2.034 16.162 0 3.853-2.034 6.743-3.211 6.743-6.743 0-3.532.535-35.001 3.211-44.634 2.676-9.74 4.71-26.116 4.71-26.116s19.052 4.388 27.936 7.064c8.777 2.676 21.407 12.095 33.502 12.309 12.095.321 10.596-17.875 8.241-23.226-2.247-5.352-6.422-10.276-10.81-11.239z" stroke="#1A2E35" stroke-width="1.07" stroke-miterlimit="10" stroke-linecap="round" stroke-linejoin="round"/><path d="M365.625 172.413s-2.783.643-10.918-.963c-8.134-1.605-7.813 1.927-18.41-2.462-10.596-4.388-34.358-22.156-38.104-24.939l-3.746-2.783s.535-5.887.535-9.205c0-3.318-.214-6.315-.214-6.315s.856-7.385.214-8.67c-.749-1.284-2.034.322-2.034 1.82 0 1.499-1.498 6.529-2.033 7.814 0 0-1.285-7.6-1.606-8.991-.321-1.499-1.284-2.034-2.14-1.606-.857.321.214 4.389.214 5.994 0 1.606-.214 6.315-.214 6.315s-3.212-7.92-4.175-9.633c-.856-1.605-2.034-.321-1.819 1.07.214 1.499 2.89 9.419 2.89 9.419s-1.606 8.456-1.606 8.991c0 .536-3.425-.535-5.031-2.033-1.605-1.499-2.14 0-1.07 1.819 1.07 1.82 3.96 3.639 7.278 5.031 3.211 1.498 6.851 2.89 6.851 2.89s18.838 20.229 25.688 26.544c6.85 6.316 14.45 10.276 18.41 12.524 3.96 2.14 12.63 6.743 12.63 6.743s-4.388 3.211-4.388 8.455c0 5.245 1.07 9.955-1.499 13.38-2.569 3.425-11.024 10.275-11.024 10.275s-11.56-11.774-18.839-16.055c-7.278-4.388-14.877-5.994-20.443 2.569-5.566 8.456-5.994 45.061-6.529 56.942-.536 11.881-2.89 19.695-4.175 20.979-1.284 1.284-2.14 3.104-2.14 4.174 0 1.071-.214 3.64-.214 3.64s1.605 9.205 6.529 12.844c4.923 3.639 7.599 8.348 9.205 5.244 1.605-3.104 5.78-8.348 6.101-12.844.321-4.495.856-10.168 1.498-12.309.535-2.14.321-18.945 3.425-27.508 3.104-8.455 4.71-13.593 4.71-13.593s2.89 16.804 15.413 20.23c12.523 3.425 24.083-3.212 30.719-13.166 6.743-9.954 15.413-28.578 21.193-35.963 5.779-7.386 14.663-19.695 14.663-19.695l12.845 17.126s-1.285 2.89-3.426 6.315c-2.14 3.425-9.419 10.168-9.419 10.168s3.211 2.569 5.78 2.89c2.569.321 14.664-5.459 20.658-10.489 5.994-5.031 7.064-7.279 4.709-10.704-2.354-3.425-11.773-15.948-17.339-23.869-5.566-7.92-5.994-14.235-11.56-16.269-5.566-2.034-12.523-.321-14.664-.321-2.14 0-6.529-.856-6.529-.856l-6.85-.964z" fill="#00C26D"/><path d="M365.625 172.413s-2.783.643-10.918-.963c-8.134-1.605-7.813 1.927-18.41-2.462-10.596-4.388-34.358-22.156-38.104-24.939l-3.746-2.783s.535-5.887.535-9.205c0-3.318-.214-6.315-.214-6.315s.856-7.385.214-8.67c-.749-1.284-2.034.322-2.034 1.82 0 1.499-1.498 6.529-2.033 7.814 0 0-1.285-7.6-1.606-8.991-.321-1.499-1.284-2.034-2.14-1.606-.857.321.214 4.389.214 5.994 0 1.606-.214 6.315-.214 6.315s-3.212-7.92-4.175-9.633c-.856-1.605-2.034-.321-1.819 1.07.214 1.499 2.89 9.419 2.89 9.419s-1.606 8.456-1.606 8.991c0 .536-3.425-.535-5.031-2.033-1.605-1.499-2.14 0-1.07 1.819 1.07 1.82 3.96 3.639 7.278 5.031 3.211 1.498 6.851 2.89 6.851 2.89s18.838 20.229 25.688 26.544c6.85 6.316 14.45 10.276 18.41 12.524 3.96 2.14 12.63 6.743 12.63 6.743s-4.388 3.211-4.388 8.455c0 5.245 1.07 9.955-1.499 13.38-2.569 3.425-11.024 10.275-11.024 10.275s-11.56-11.774-18.839-16.055c-7.278-4.388-14.877-5.994-20.443 2.569-5.566 8.456-5.994 45.061-6.529 56.942-.536 11.881-2.89 19.695-4.175 20.979-1.284 1.284-2.14 3.104-2.14 4.174 0 1.071-.214 3.64-.214 3.64s1.605 9.205 6.529 12.844c4.923 3.639 7.599 8.348 9.205 5.244 1.605-3.104 5.78-8.348 6.101-12.844.321-4.495.856-10.168 1.498-12.309.535-2.14.321-18.945 3.425-27.508 3.104-8.455 4.71-13.593 4.71-13.593s2.89 16.804 15.413 20.23c12.523 3.425 24.083-3.212 30.719-13.166 6.743-9.954 15.413-28.578 21.193-35.963 5.779-7.386 14.663-19.695 14.663-19.695l12.845 17.126s-1.285 2.89-3.426 6.315c-2.14 3.425-9.419 10.168-9.419 10.168s3.211 2.569 5.78 2.89c2.569.321 14.664-5.459 20.658-10.489 5.994-5.031 7.064-7.279 4.709-10.704-2.354-3.425-11.773-15.948-17.339-23.869-5.566-7.92-5.994-14.235-11.56-16.269-5.566-2.034-12.523-.321-14.664-.321-2.14 0-6.529-.856-6.529-.856l-6.85-.964z" stroke="#1A2E35" stroke-width="1.07" stroke-miterlimit="10" stroke-linecap="round" stroke-linejoin="round"/><path d="M405.228 190.824c-5.566-7.921-5.994-14.236-11.56-16.27-5.566-2.033-12.523-.321-14.664-.321-2.14 0-6.529-.856-6.529-.856l-6.85-.856s-2.783.642-10.918-.964c-8.134-1.605-7.813 1.927-18.41-2.461-10.596-4.389-34.358-22.157-38.104-24.94l-3.746-2.782s.535-5.887.535-9.205c0-3.212-.214-6.316-.214-6.316s.856-7.385.214-8.669c-.749-1.285-2.034.321-2.034 1.819 0 1.499-1.498 6.529-2.033 7.814 0 0-1.285-7.6-1.606-8.991-.321-1.499-1.284-2.034-2.14-1.606-.857.321.214 4.389.214 5.994 0 1.606-.214 6.315-.214 6.315s-3.212-7.92-4.175-9.633c-.856-1.605-2.034-.321-1.819 1.071.214 1.498 2.89 9.419 2.89 9.419s-1.606 8.455-1.606 8.991c0 .535-3.425-.536-5.031-2.034-1.605-1.499-2.14 0-1.07 1.819 1.07 1.82 3.96 3.64 7.278 5.031 3.211 1.499 6.851 2.89 6.851 2.89s18.838 20.23 25.688 26.545c6.85 6.315 14.45 10.275 18.41 12.523 3.96 2.14 12.63 6.743 12.63 6.743s-4.388 3.211-4.388 8.456v.642l38.318 12.416c5.031-6.743 10.275-13.915 10.275-13.915l12.845 17.126s-1.285 2.89-3.426 6.315c-2.14 3.425-9.419 10.168-9.419 10.168s3.211 2.569 5.78 2.89c2.569.321 14.664-5.459 20.658-10.489 5.994-5.031 7.064-7.279 4.709-10.704-2.354-3.532-11.666-16.055-17.339-23.975z" fill="#fff"/><path d="M405.228 190.824c-5.566-7.921-5.994-14.236-11.56-16.27-5.566-2.033-12.523-.321-14.664-.321-2.14 0-6.529-.856-6.529-.856l-6.85-.856s-2.783.642-10.918-.964c-8.134-1.605-7.813 1.927-18.41-2.461-10.596-4.389-34.358-22.157-38.104-24.94l-3.746-2.782s.535-5.887.535-9.205c0-3.212-.214-6.316-.214-6.316s.856-7.385.214-8.669c-.749-1.285-2.034.321-2.034 1.819 0 1.499-1.498 6.529-2.033 7.814 0 0-1.285-7.6-1.606-8.991-.321-1.499-1.284-2.034-2.14-1.606-.857.321.214 4.389.214 5.994 0 1.606-.214 6.315-.214 6.315s-3.212-7.92-4.175-9.633c-.856-1.605-2.034-.321-1.819 1.071.214 1.498 2.89 9.419 2.89 9.419s-1.606 8.455-1.606 8.991c0 .535-3.425-.536-5.031-2.034-1.605-1.499-2.14 0-1.07 1.819 1.07 1.82 3.96 3.64 7.278 5.031 3.211 1.499 6.851 2.89 6.851 2.89s18.838 20.23 25.688 26.545c6.85 6.315 14.45 10.275 18.41 12.523 3.96 2.14 12.63 6.743 12.63 6.743s-4.388 3.211-4.388 8.456v.642l38.318 12.416c5.031-6.743 10.275-13.915 10.275-13.915l12.845 17.126s-1.285 2.89-3.426 6.315c-2.14 3.425-9.419 10.168-9.419 10.168s3.211 2.569 5.78 2.89c2.569.321 14.664-5.459 20.658-10.489 5.994-5.031 7.064-7.279 4.709-10.704-2.354-3.532-11.666-16.055-17.339-23.975z" stroke="#1A2E35" stroke-width="1.07" stroke-miterlimit="10" stroke-linecap="round" stroke-linejoin="round"/><path d="M405.228 190.823c-5.566-7.92-5.994-14.235-11.56-16.269-5.566-2.033-12.523-.321-14.664-.321-2.14 0-6.529-.856-6.529-.856l-6.85-.857s-2.783.643-10.918-.963c-8.134-1.605-7.813 1.927-18.409-2.462-.643-.214-1.392-.535-2.034-.963-2.89 2.141-5.994 5.887-7.814 12.309a119.2 119.2 0 0 0 8.135 4.71c3.96 2.14 12.63 6.743 12.63 6.743s-4.388 3.211-4.388 8.456c0 5.244 1.07 9.954-1.499 13.379-1.926 2.676-7.385 7.278-9.847 9.312 4.281 3.96 17.126 16.804 22.477 34.251.535-.749 1.071-1.391 1.606-2.141 6.743-9.954 15.413-28.578 21.193-35.963 5.779-7.386 14.663-19.695 14.663-19.695l4.817 6.422c3.425-4.067 7.706-7.706 12.951-9.312-1.391-2.247-2.783-4.067-3.96-5.78z" fill="#fff" stroke="#1A2E35" stroke-width="1.07" stroke-miterlimit="10" stroke-linecap="round" stroke-linejoin="round"/><path d="M377.827 133.453s-7.814 2.14-9.954 4.067c-2.141 1.927-5.352 7.814-9.098 8.456-3.746.642-3.746 2.783-3.746 4.388 0 1.606.642 2.462.642 2.462s-.321 7.171-.321 10.917c0 3.747.963 4.71 2.783 4.71h4.388s-.963 13.165-1.927 16.269c-.963 3.104 4.71-.321 6.208-1.926l8.777-8.777s-1.926-9.098.963-15.306c2.783-6.208-2.14-8.456-2.782-15.306-.643-6.85 4.067-9.954 4.067-9.954z" fill="#fff"/><mask id="a" style="mask-type:luminance" maskUnits="userSpaceOnUse" x="355" y="133" width="23" height="53"><path d="M377.827 133.453s-7.814 2.14-9.954 4.067c-2.141 1.927-5.352 7.814-9.098 8.456-3.746.642-3.746 2.783-3.746 4.388 0 1.606.642 2.462.642 2.462s-.321 7.171-.321 10.917c0 3.747.963 4.71 2.783 4.71h4.388s-.963 13.165-1.927 16.269c-.963 3.104 4.71-.321 6.208-1.926l8.777-8.777s-1.926-9.098.963-15.306c2.783-6.208-2.14-8.456-2.782-15.306-.643-6.85 4.067-9.954 4.067-9.954z" fill="#fff"/></mask><g mask="url(#a)"><path opacity=".5" d="M405.228 190.823c-5.566-7.92-5.994-14.235-11.56-16.269-5.566-2.033-12.523-.321-14.664-.321-1.391 0-3.639-.321-5.137-.642v.107s3.532 2.676 12.202 5.673c8.562 2.997 20.443 24.297 24.939 29.113 4.495 4.71 5.887 7.386 4.709 8.884-1.177 1.499-3.532 2.997-8.027 7.707-2.89 3.104-6.743 6.743-8.349 10.382 4.495-1.284 13.486-5.994 18.41-10.168 5.994-5.031 7.064-7.279 4.71-10.704-2.248-3.318-11.56-15.841-17.233-23.762z" fill="#fff"/></g><path d="M377.827 133.453s-7.814 2.14-9.954 4.067c-2.141 1.927-5.352 7.814-9.098 8.456-3.746.642-3.746 2.783-3.746 4.388 0 1.606.642 2.462.642 2.462s-.321 7.171-.321 10.917c0 3.747.963 4.71 2.783 4.71h4.388s-.963 13.165-1.927 16.269c-.963 3.104 4.71-.321 6.208-1.926l8.777-8.777s-1.926-9.098.963-15.306c2.783-6.208-2.14-8.456-2.782-15.306-.643-6.85 4.067-9.954 4.067-9.954z" stroke="#1A2E35" stroke-width="1.07" stroke-miterlimit="10" stroke-linecap="round" stroke-linejoin="round"/><path d="M375.365 155.93s9.098-2.462 7.814 1.605c-1.285 4.068-8.777 6.851-9.633 3.747" fill="#fff"/><path d="M375.365 155.93s9.098-2.462 7.814 1.605c-1.285 4.068-8.777 6.851-9.633 3.747M330.411 223.897s13.272 16.59 14.877 30.719M347.215 191.68s2.676-5.245 2.676-8.991M391.527 199.279l-6.743-8.134M404.372 216.512s3.639-3.318 9.954-2.141" stroke="#1A2E35" stroke-width="1.07" stroke-miterlimit="10" stroke-linecap="round" stroke-linejoin="round"/><path d="M394.524 226.573s-2.461-4.388-4.709-6.636c-2.248-2.248-8.349-1.927-9.098-.321-.749 1.605 3.532 1.177 6.101 3.853 2.569 2.569 2.248 4.924 2.248 4.924s-3.961 1.605-7.279 1.07c-3.318-.535-7.706-1.392-8.027-.214-.321 1.177.856 2.569 3.639 3.318 2.783.749 6.101.535 7.171.749 1.07.214 3.639 2.997 5.78 2.997 2.141 0 4.71-.535 5.459 0 .749.535 2.569 2.997 4.709 2.997 2.141 0 3.961-2.141 4.175-4.495.214-2.462-1.178-4.71-4.175-5.887-3.104-1.499-5.994-2.355-5.994-2.355z" fill="#fff" stroke="#1A2E35" stroke-width="1.07" stroke-miterlimit="10" stroke-linecap="round" stroke-linejoin="round"/><path d="M399.448 226.787s-6.957-5.994-8.67-6.101c-1.713-.214-6.743 2.997-5.566 4.281 1.178 1.285 2.89-.642 4.496-.428 1.498.214 5.673 3.854 6.422 3.961" fill="#fff"/><path d="M399.448 226.787s-6.957-5.994-8.67-6.101c-1.713-.214-6.743 2.997-5.566 4.281 1.178 1.285 2.89-.642 4.496-.428 1.498.214 5.673 3.854 6.422 3.961" stroke="#1A2E35" stroke-width="1.07" stroke-miterlimit="10" stroke-linecap="round" stroke-linejoin="round"/><path d="m399.769 229.57-2.141-3.532s-2.247 3.853-4.923 3.318c-2.569-.535 2.997-6.315 4.174-6.636 1.177-.321 2.783-1.07 4.174 1.605 1.392 2.569 2.248 6.637 2.248 6.637" fill="#fff"/><path d="m399.769 229.57-2.141-3.532s-2.247 3.853-4.923 3.318c-2.569-.535 2.997-6.315 4.174-6.636 1.177-.321 2.783-1.07 4.174 1.605 1.392 2.569 2.248 6.637 2.248 6.637" stroke="#1A2E35" stroke-width="1.07" stroke-miterlimit="10" stroke-linecap="round" stroke-linejoin="round"/><path d="M404.479 232.674s-.857-5.566-1.927-6.315c-1.07-.749-4.388.535-5.78 2.141-1.391 1.605-.535 1.926 1.178 1.926 1.712 0 2.568-.856 2.568-.856l1.178 2.569" fill="#fff"/><path d="M404.479 232.674s-.857-5.566-1.927-6.315c-1.07-.749-4.388.535-5.78 2.141-1.391 1.605-.535 1.926 1.178 1.926 1.712 0 2.568-.856 2.568-.856l1.178 2.569" stroke="#1A2E35" stroke-width="1.07" stroke-miterlimit="10" stroke-linecap="round" stroke-linejoin="round"/><path d="M294.661 313.271s-2.997-7.492-8.028-13.7c-5.03-6.208-13.379-8.777-18.731-12.202-5.352-3.425-13.165-8.135-16.59-4.067-3.425 4.067-.321 9.633 5.352 15.948 5.672 6.315 15.627 11.238 16.59 12.523.963 1.284 9.847 11.667 13.272 11.988 3.425.214 6.85-4.282 8.135-10.49z" fill="#fff" stroke="#1A2E35" stroke-width="1.07" stroke-miterlimit="10" stroke-linecap="round" stroke-linejoin="round"/><path d="M276.679 306.956c-6.101-5.138-19.801-20.551-22.905-21.835-2.569-1.177-3.64 1.605-3.854 2.569.214 3.318 2.89 7.278 6.744 11.56 5.672 6.208 15.627 11.238 16.59 12.523.963 1.284 9.847 11.666 13.272 11.987.321 0 .75 0 1.071-.107.321-.214.642-.535.963-.963 1.712-2.569-5.673-10.596-11.881-15.734z" fill="#fff" stroke="#1A2E35" stroke-width="1.07" stroke-miterlimit="10" stroke-linecap="round" stroke-linejoin="round"/><path d="M507.446 198.53c-2.89-.963-5.887-1.499-8.991-1.713-.321.75-.642 1.713-.856 2.462-3.318-.107-6.422.321-9.526 1.178-.429-.643-.964-1.499-1.392-2.141-2.997.856-5.78 2.141-8.349 3.746-4.495 8.884-4.923 17.126-3.211 25.046 3.961 2.248 7.707 3.532 11.239 4.175.749-1.285 1.284-2.569 1.82-4.068a22.097 22.097 0 0 1-3.747-1.284c.322-.214.536-.535.75-.749 7.278 2.354 14.77 1.498 21.193-2.569.321.214.642.428.963.535-1.07.856-2.141 1.605-3.318 2.141a29.153 29.153 0 0 0 2.676 3.425c3.318-1.499 6.636-3.532 9.954-6.743-.214-9.205-3.639-16.912-9.205-23.441zm-19.159 22.049c-2.034.214-3.961-1.498-4.282-3.853-.321-2.355 1.178-4.496 3.211-4.71 2.141-.214 4.068 1.499 4.282 3.854.321 2.354-1.071 4.495-3.211 4.709zm13.914-1.712c-2.033.214-3.96-1.499-4.281-3.854-.321-2.354 1.177-4.495 3.211-4.709 2.141-.214 4.067 1.498 4.281 3.853.321 2.355-1.07 4.495-3.211 4.71zM487.287 48.773c-1.577-.242-2.547-1.697-2.304-3.274.242-1.576 1.697-2.546 3.274-2.304l6.912 1.213c1.576.242 2.547 1.698 2.304 3.274-.243 1.576-1.698 2.547-3.274 2.304l-6.912-1.212zm-.243 1.456c1.577.242 2.547 1.697 2.304 3.274-.242 1.576-1.698 2.546-3.274 2.304-1.576-.243-2.547-1.698-2.304-3.274l.485-2.79 2.789.486zm4.729-10.672c-.242 1.577-1.697 2.547-3.274 2.304-1.576-.242-2.546-1.697-2.304-3.274l1.213-6.912c.242-1.576 1.698-2.547 3.274-2.304 1.577.242 2.547 1.698 2.304 3.274l-1.213 6.912zm1.456.243c.242-1.577 1.697-2.547 3.274-2.304 1.576.242 2.546 1.697 2.304 3.274-.243 1.576-1.698 2.546-3.274 2.304l-2.789-.485.485-2.79zm-10.793-4.73c1.576.243 2.547 1.698 2.304 3.275-.242 1.576-1.698 2.546-3.274 2.304l-6.912-1.213c-1.577-.242-2.547-1.698-2.304-3.274.242-1.577 1.697-2.547 3.274-2.304l6.912 1.212zm.243-1.455c-1.577-.242-2.547-1.698-2.305-3.274.243-1.576 1.698-2.547 3.275-2.304 1.576.242 2.546 1.698 2.304 3.274l-.485 2.79-2.789-.486zm-4.73 10.672c.243-1.577 1.698-2.547 3.274-2.304 1.577.242 2.547 1.697 2.304 3.274l-1.212 6.912c-.243 1.576-1.698 2.547-3.274 2.304-1.577-.243-2.547-1.698-2.304-3.274l1.212-6.912zm-1.334-.243c-.242 1.577-1.697 2.547-3.274 2.304-1.576-.242-2.547-1.698-2.304-3.274.243-1.576 1.698-2.547 3.274-2.304l2.789.485-.485 2.79zM370.802 9.27l-3.275 22.676c-.242 1.577-1.212 2.062-2.546 1.456l-7.519-4.851-3.395 3.638a1.462 1.462 0 0 1-.606.606c-.243.121-.486.243-.849.243v-7.276l12.611-12.976c.607-.485 0-.848-.849-.242L348.61 23.943l-7.397-1.82c-1.577-.363-1.698-1.454.121-2.303l27.163-12.612c1.456-.606 2.668.121 2.305 2.062z" fill="#fff"/><path d="M359.524 161.603s2.248.428 4.174-.535" stroke="#1A2E35" stroke-width="1.07" stroke-miterlimit="10" stroke-linecap="round" stroke-linejoin="round"/><path fill-rule="evenodd" clip-rule="evenodd" d="m199.08 205-8.777 29.113 2.783.857 8.777-29.114-2.783-.856zm-14.236 2.997-11.667 10.918-1.177 1.07 1.177 1.07 11.667 10.918 2.034-2.141-10.597-9.847 10.597-9.847-2.034-2.141zm20.444 2.034 2.033-2.141 11.667 10.917 1.178 1.071-1.178 1.07-11.667 10.918-2.033-2.141 10.596-9.847-10.596-9.847z" fill="#fff"/><path d="M113.775 145.203v1.36h-5.284v-1.36h5.284zm-4.861-4.156V151h-1.715v-9.953h1.715zm6.18 0V151h-1.709v-9.953h1.709zm6.15 8.47v-3.528c0-.264-.048-.492-.144-.683a1 1 0 0 0-.437-.445c-.192-.104-.433-.157-.725-.157-.269 0-.501.046-.697.137a1.123 1.123 0 0 0-.458.369.892.892 0 0 0-.164.526h-1.641c0-.291.071-.574.212-.847a2.28 2.28 0 0 1 .615-.732c.269-.214.591-.383.964-.506a4.013 4.013 0 0 1 1.258-.184c.556 0 1.048.093 1.477.28a2.24 2.24 0 0 1 1.018.848c.251.373.376.843.376 1.408v3.288c0 .337.023.64.069.909.05.265.12.495.212.691V151h-1.689a2.96 2.96 0 0 1-.185-.677 5.526 5.526 0 0 1-.061-.806zm.239-3.015.014 1.019h-1.183c-.305 0-.574.029-.806.088a1.665 1.665 0 0 0-.581.246 1.07 1.07 0 0 0-.349.397c-.078.155-.116.33-.116.526s.045.376.136.54c.092.16.224.285.397.376.178.091.392.137.642.137.338 0 .632-.068.882-.205a1.8 1.8 0 0 0 .602-.513c.146-.205.223-.398.232-.581l.534.732a2.516 2.516 0 0 1-.281.601c-.132.214-.305.42-.519.615a2.577 2.577 0 0 1-1.771.657c-.483 0-.914-.096-1.292-.287a2.29 2.29 0 0 1-.888-.787 2.028 2.028 0 0 1-.322-1.127c0-.392.073-.739.219-1.04.15-.305.369-.56.656-.765.292-.205.647-.36 1.067-.465a5.715 5.715 0 0 1 1.435-.164h1.292zm6.259 3.322c.269 0 .511-.052.725-.157.219-.109.394-.26.526-.451.137-.192.212-.413.226-.663h1.552a2.312 2.312 0 0 1-.424 1.305 2.953 2.953 0 0 1-1.087.937 3.27 3.27 0 0 1-1.497.342c-.565 0-1.057-.096-1.477-.287a2.921 2.921 0 0 1-1.046-.807 3.543 3.543 0 0 1-.628-1.183 4.866 4.866 0 0 1-.206-1.435v-.239c0-.511.069-.989.206-1.436.141-.451.35-.848.628-1.189a2.85 2.85 0 0 1 1.046-.8c.42-.196.91-.294 1.47-.294.593 0 1.112.118 1.559.355.446.233.797.559 1.052.978.26.415.395.898.404 1.449h-1.552a1.655 1.655 0 0 0-.205-.738 1.35 1.35 0 0 0-.506-.533 1.435 1.435 0 0 0-.772-.199c-.333 0-.609.069-.828.205a1.391 1.391 0 0 0-.512.547 2.682 2.682 0 0 0-.267.773c-.05.282-.075.576-.075.882v.239c0 .305.025.601.075.888.05.288.137.545.26.773.127.223.301.403.519.54.219.132.497.198.834.198zm6.054-9.324V151h-1.654v-10.5h1.654zm4.594 3.104-3.219 3.568-1.764 1.805-.431-1.395 1.333-1.647 2.092-2.331h1.989zM136.756 151l-2.399-3.473 1.039-1.155 3.268 4.628h-1.908zm6.95-1.483v-3.528c0-.264-.048-.492-.144-.683a1 1 0 0 0-.437-.445c-.191-.104-.433-.157-.725-.157-.268 0-.501.046-.697.137a1.123 1.123 0 0 0-.458.369.892.892 0 0 0-.164.526h-1.641c0-.291.071-.574.212-.847a2.27 2.27 0 0 1 .616-.732 3.07 3.07 0 0 1 .963-.506 4.013 4.013 0 0 1 1.258-.184c.556 0 1.048.093 1.477.28a2.24 2.24 0 0 1 1.018.848c.251.373.376.843.376 1.408v3.288c0 .337.023.64.069.909.05.265.12.495.212.691V151h-1.689a2.914 2.914 0 0 1-.184-.677 5.53 5.53 0 0 1-.062-.806zm.239-3.015.014 1.019h-1.183c-.305 0-.574.029-.806.088a1.665 1.665 0 0 0-.581.246 1.08 1.08 0 0 0-.349.397c-.077.155-.116.33-.116.526s.045.376.137.54c.091.16.223.285.396.376.178.091.392.137.643.137.337 0 .631-.068.881-.205a1.8 1.8 0 0 0 .602-.513c.146-.205.223-.398.232-.581l.534.732a2.478 2.478 0 0 1-.281.601c-.132.214-.305.42-.519.615a2.577 2.577 0 0 1-1.771.657 2.83 2.83 0 0 1-1.292-.287 2.29 2.29 0 0 1-.888-.787 2.028 2.028 0 0 1-.322-1.127c0-.392.073-.739.219-1.04.151-.305.369-.56.656-.765a3.19 3.19 0 0 1 1.067-.465 5.72 5.72 0 0 1 1.435-.164h1.292zm6.629-2.898v1.203h-4.17v-1.203h4.17zm-2.967-1.812h1.647v7.164c0 .228.032.403.096.526a.51.51 0 0 0 .28.24c.119.041.258.061.417.061.114 0 .224-.007.328-.02.105-.014.19-.028.253-.041l.007 1.257a4.03 4.03 0 0 1-.478.11 3.51 3.51 0 0 1-.616.048c-.378 0-.713-.066-1.004-.199a1.471 1.471 0 0 1-.684-.663c-.164-.305-.246-.711-.246-1.216v-7.267zm5.965-1.292V151h-1.641v-10.5h1.641zm-.287 6.528-.533-.007c.004-.51.075-.982.212-1.415a3.62 3.62 0 0 1 .588-1.127 2.617 2.617 0 0 1 2.098-1.012c.365 0 .693.05.985.15.296.1.551.262.765.486.214.218.376.505.486.861.113.351.17.779.17 1.285V151h-1.654v-4.765c0-.355-.052-.638-.157-.847a.907.907 0 0 0-.444-.451 1.624 1.624 0 0 0-.718-.144c-.296 0-.558.059-.786.178-.224.118-.41.28-.561.485-.15.205-.264.442-.342.711a3.276 3.276 0 0 0-.109.861zm6.225.356v-.157c0-.534.077-1.028.232-1.484.155-.46.379-.859.67-1.196a3.037 3.037 0 0 1 1.08-.793 3.511 3.511 0 0 1 1.45-.287c.542 0 1.025.095 1.449.287a3.01 3.01 0 0 1 1.087.793c.296.337.522.736.676 1.196.155.456.233.95.233 1.484v.157c0 .533-.078 1.027-.233 1.483-.154.456-.38.855-.676 1.196a3.126 3.126 0 0 1-1.08.793 3.542 3.542 0 0 1-1.443.281 3.608 3.608 0 0 1-1.456-.281 3.117 3.117 0 0 1-1.08-.793 3.543 3.543 0 0 1-.677-1.196 4.579 4.579 0 0 1-.232-1.483zm1.647-.157v.157c0 .332.035.647.103.943.068.296.175.556.321.779.146.224.333.399.561.527.228.127.499.191.813.191.306 0 .57-.064.793-.191a1.59 1.59 0 0 0 .561-.527c.146-.223.253-.483.321-.779.073-.296.109-.611.109-.943v-.157c0-.329-.036-.638-.109-.93a2.391 2.391 0 0 0-.328-.786 1.563 1.563 0 0 0-.561-.533 1.533 1.533 0 0 0-.799-.199c-.31 0-.579.066-.807.199a1.585 1.585 0 0 0-.554.533 2.47 2.47 0 0 0-.321.786 4.084 4.084 0 0 0-.103.93zm8.345-2.044V151h-1.648v-7.396h1.552l.096 1.579zm-.294 1.845-.534-.007a4.834 4.834 0 0 1 .219-1.442c.146-.437.347-.813.602-1.128.259-.314.569-.556.929-.724a2.73 2.73 0 0 1 1.204-.26c.355 0 .676.05.963.15.292.096.54.253.746.472.209.219.369.503.478.854.109.347.164.773.164 1.279V151h-1.654v-4.785c0-.356-.053-.636-.157-.841a.879.879 0 0 0-.445-.444c-.191-.091-.43-.137-.718-.137-.282 0-.535.059-.758.178-.224.118-.413.28-.568.485-.15.205-.266.442-.348.711a2.938 2.938 0 0 0-.123.861zM97.231 70.502h-2.536l-.014-1.251h2.215c.374 0 .69-.055.95-.164.265-.114.465-.276.602-.485.137-.215.205-.472.205-.773 0-.333-.064-.604-.192-.813a1.096 1.096 0 0 0-.587-.458c-.26-.096-.593-.144-.998-.144h-1.662V75H93.5v-9.953h3.377c.546 0 1.034.052 1.462.157.433.105.8.269 1.101.492.305.219.536.497.69.834.16.338.24.739.24 1.203 0 .41-.098.786-.294 1.128a2.24 2.24 0 0 1-.868.828c-.383.214-.86.341-1.43.382l-.546.431zM97.156 75h-3.001l.772-1.36h2.229c.387 0 .71-.064.97-.192.26-.132.454-.312.582-.54.132-.232.198-.503.198-.813 0-.324-.057-.604-.171-.841a1.178 1.178 0 0 0-.54-.554c-.246-.132-.567-.198-.964-.198h-1.928l.014-1.251h2.509l.39.472c.546.018.995.139 1.346.362a2.1 2.1 0 0 1 .793.868c.173.356.26.738.26 1.149 0 .633-.139 1.164-.417 1.592-.274.429-.668.755-1.183.978-.515.219-1.135.328-1.86.328zm4.81-3.616v-.157c0-.534.077-1.028.232-1.484.155-.46.378-.859.67-1.196a3.02 3.02 0 0 1 1.08-.793 3.52 3.52 0 0 1 1.449-.287c.543 0 1.026.096 1.45.287.428.187.79.451 1.087.793.296.337.521.736.676 1.196.155.456.233.95.233 1.484v.157c0 .533-.078 1.028-.233 1.483-.155.456-.38.855-.676 1.197a3.15 3.15 0 0 1-1.08.792c-.424.187-.905.28-1.443.28a3.607 3.607 0 0 1-1.456-.28 3.132 3.132 0 0 1-1.08-.792 3.555 3.555 0 0 1-.677-1.197 4.579 4.579 0 0 1-.232-1.483zm1.647-.157v.157c0 .332.034.647.103.943.068.296.175.556.321.78.146.223.333.398.561.526.228.127.499.191.813.191.305 0 .57-.064.793-.191a1.59 1.59 0 0 0 .561-.527c.145-.223.253-.483.321-.779a3.93 3.93 0 0 0 .109-.943v-.157c0-.329-.036-.639-.109-.93a2.39 2.39 0 0 0-.328-.786 1.57 1.57 0 0 0-.561-.533 1.543 1.543 0 0 0-.8-.199 1.58 1.58 0 0 0-.806.199 1.592 1.592 0 0 0-.554.533c-.146.228-.253.49-.321.786a4.028 4.028 0 0 0-.103.93zm6.396.157v-.157c0-.534.078-1.028.233-1.484.155-.46.378-.859.67-1.196a3.02 3.02 0 0 1 1.08-.793 3.513 3.513 0 0 1 1.449-.287c.542 0 1.025.096 1.449.287.428.187.791.451 1.087.793.296.337.522.736.677 1.196.155.456.232.95.232 1.484v.157c0 .533-.077 1.028-.232 1.483a3.555 3.555 0 0 1-.677 1.197 3.132 3.132 0 0 1-1.08.792c-.424.187-.905.28-1.443.28a3.61 3.61 0 0 1-1.456-.28 3.15 3.15 0 0 1-1.08-.792 3.553 3.553 0 0 1-.676-1.197 4.579 4.579 0 0 1-.233-1.483zm1.648-.157v.157c0 .332.034.647.102.943.069.296.176.556.321.78.146.223.333.398.561.526.228.127.499.191.813.191.306 0 .57-.064.793-.191a1.59 1.59 0 0 0 .561-.527c.146-.223.253-.483.321-.779.073-.296.11-.61.11-.943v-.157c0-.329-.037-.639-.11-.93a2.368 2.368 0 0 0-.328-.786 1.576 1.576 0 0 0-.56-.533 1.545 1.545 0 0 0-.8-.199c-.31 0-.579.066-.807.199a1.592 1.592 0 0 0-.554.533c-.145.228-.252.49-.321.786a4.084 4.084 0 0 0-.102.93zm10.101-3.624v1.204h-4.17v-1.204h4.17zm-2.967-1.811h1.647v7.164c0 .228.032.403.096.526a.512.512 0 0 0 .28.24c.119.04.258.061.417.061.114 0 .224-.007.328-.02.105-.014.19-.028.253-.041l.007 1.258a4.225 4.225 0 0 1-.478.109 3.521 3.521 0 0 1-.616.048c-.378 0-.713-.066-1.004-.198a1.478 1.478 0 0 1-.684-.664c-.164-.305-.246-.71-.246-1.216v-7.267zm7.36 8.032c.268 0 .51-.052.724-.157.219-.11.394-.26.527-.451a1.24 1.24 0 0 0 .225-.663h1.552c-.009.478-.15.913-.424 1.305a2.939 2.939 0 0 1-1.087.937c-.451.228-.95.342-1.497.342-.565 0-1.057-.096-1.476-.287a2.914 2.914 0 0 1-1.046-.807 3.546 3.546 0 0 1-.629-1.183 4.871 4.871 0 0 1-.205-1.435v-.24c0-.51.068-.988.205-1.435.141-.451.351-.848.629-1.19a2.848 2.848 0 0 1 1.046-.8c.419-.195.909-.293 1.469-.293.593 0 1.112.118 1.559.355.446.233.797.558 1.053.978.259.415.394.898.403 1.449h-1.552a1.657 1.657 0 0 0-.205-.738 1.35 1.35 0 0 0-.506-.533 1.44 1.44 0 0 0-.772-.199c-.333 0-.609.069-.827.205-.219.133-.39.315-.513.547a2.677 2.677 0 0 0-.267.773c-.05.282-.075.576-.075.882v.239c0 .305.025.601.075.889.05.287.137.544.26.772.128.223.301.403.52.54.218.132.496.198.834.198zm8.562-.307v-3.528c0-.264-.047-.492-.143-.683a1.008 1.008 0 0 0-.438-.445c-.191-.105-.433-.157-.724-.157a1.64 1.64 0 0 0-.697.137 1.125 1.125 0 0 0-.458.369.887.887 0 0 0-.165.526h-1.64c0-.291.07-.574.212-.847a2.26 2.26 0 0 1 .615-.732 3.07 3.07 0 0 1 .964-.506 4.01 4.01 0 0 1 1.258-.184c.556 0 1.048.093 1.476.28.433.187.773.47 1.019.848.25.373.376.843.376 1.408v3.288c0 .337.023.64.068.91.05.264.121.494.212.69V75h-1.688a2.91 2.91 0 0 1-.185-.677 5.53 5.53 0 0 1-.062-.806zm.24-3.015.013 1.019h-1.182c-.306 0-.574.03-.807.088a1.66 1.66 0 0 0-.581.247c-.155.109-.271.241-.349.396-.077.155-.116.33-.116.526s.046.376.137.54c.091.16.223.285.396.376.178.091.392.137.643.137.337 0 .631-.068.882-.205.255-.141.456-.312.601-.513.146-.205.224-.398.233-.58l.533.73a2.52 2.52 0 0 1-.28.602c-.132.214-.306.42-.52.616a2.563 2.563 0 0 1-1.77.656c-.483 0-.914-.096-1.292-.287a2.292 2.292 0 0 1-.889-.786 2.04 2.04 0 0 1-.321-1.128c0-.392.073-.739.219-1.04.15-.305.369-.56.656-.765a3.17 3.17 0 0 1 1.066-.465c.419-.11.898-.164 1.436-.164h1.292zm4.885-1.395V75h-1.648v-7.397h1.552l.096 1.504zm-.267 1.921-.56-.007c0-.51.064-.982.191-1.415.128-.432.315-.808.561-1.127a2.46 2.46 0 0 1 .916-.746c.369-.177.795-.266 1.278-.266.337 0 .645.05.923.15.282.096.526.249.731.458.21.21.369.479.479.807.114.328.171.724.171 1.19V75h-1.648v-4.785c0-.36-.054-.643-.164-.848a.908.908 0 0 0-.458-.437 1.656 1.656 0 0 0-.704-.137c-.31 0-.574.06-.793.178-.214.118-.39.28-.526.485a2.172 2.172 0 0 0-.301.711 3.712 3.712 0 0 0-.096.861zm4.587-.437-.772.17c0-.446.061-.867.184-1.264.128-.401.312-.752.554-1.053.246-.305.549-.544.909-.717.36-.174.773-.26 1.238-.26.378 0 .715.052 1.011.157.301.1.556.26.766.479.209.218.369.503.478.854.11.346.164.766.164 1.258V75h-1.654v-4.792c0-.374-.055-.663-.164-.868a.851.851 0 0 0-.451-.424 1.82 1.82 0 0 0-.704-.123c-.255 0-.481.048-.677.143a1.344 1.344 0 0 0-.485.39 1.732 1.732 0 0 0-.301.568 2.425 2.425 0 0 0-.096.697zm7.982-1.566v8.819h-1.647v-10.24h1.517l.13 1.421zm4.819 2.208v.144c0 .538-.063 1.037-.191 1.497a3.659 3.659 0 0 1-.554 1.196c-.241.338-.54.6-.895.786-.356.187-.766.28-1.231.28-.46 0-.863-.084-1.21-.252a2.486 2.486 0 0 1-.868-.732 3.974 3.974 0 0 1-.574-1.107 7.112 7.112 0 0 1-.301-1.408v-.554c.059-.542.16-1.034.301-1.477.146-.442.337-.822.574-1.141.237-.32.527-.565.868-.738.342-.174.741-.26 1.197-.26.464 0 .877.09 1.237.273.36.178.663.433.909.766.246.328.431.725.554 1.19.123.46.184.972.184 1.537zm-1.647.144v-.144c0-.341-.032-.658-.096-.95a2.48 2.48 0 0 0-.301-.78 1.467 1.467 0 0 0-.526-.519 1.435 1.435 0 0 0-.759-.191c-.291 0-.542.05-.752.15-.209.096-.385.23-.526.404a1.901 1.901 0 0 0-.328.608 3.616 3.616 0 0 0-.164.745v1.326c.054.329.148.63.28.903.132.273.319.492.561.656.246.16.56.24.943.24.296 0 .549-.065.759-.192.209-.128.38-.303.512-.527.137-.227.237-.49.301-.786a4.46 4.46 0 0 0 .096-.943zM536.164 106h-2.126l.014-1.36h2.112c.615 0 1.13-.135 1.545-.404.419-.269.734-.654.943-1.155.214-.501.321-1.098.321-1.791v-.54c0-.538-.061-1.014-.184-1.429a2.808 2.808 0 0 0-.533-1.046 2.237 2.237 0 0 0-.862-.642 2.923 2.923 0 0 0-1.169-.219h-2.228v-1.367h2.228c.661 0 1.265.112 1.812.335a3.978 3.978 0 0 1 1.415.95c.401.415.709.912.923 1.49.214.579.321 1.226.321 1.942v.526c0 .716-.107 1.363-.321 1.941a4.223 4.223 0 0 1-.923 1.491c-.401.41-.88.727-1.436.95-.551.219-1.169.328-1.852.328zm-1.176-9.953V106h-1.716v-9.953h1.716zm9.13 2.556V106h-1.654v-7.397h1.654zm-1.763-1.94c0-.251.082-.459.246-.623.168-.169.401-.253.697-.253.292 0 .522.084.69.253a.83.83 0 0 1 .253.622.822.822 0 0 1-.253.615c-.168.164-.398.246-.69.246-.296 0-.529-.082-.697-.246a.835.835 0 0 1-.246-.615zm7.817 7.334a.824.824 0 0 0-.123-.444c-.082-.137-.239-.26-.471-.369-.228-.11-.565-.21-1.012-.301a8.698 8.698 0 0 1-1.08-.308 3.415 3.415 0 0 1-.834-.444 1.877 1.877 0 0 1-.54-.615 1.701 1.701 0 0 1-.191-.821c0-.3.066-.585.198-.854.132-.27.321-.506.567-.711.246-.205.545-.367.896-.486a3.744 3.744 0 0 1 1.189-.177c.62 0 1.151.105 1.593.314.446.205.788.486 1.025.841.237.351.356.747.356 1.19h-1.648c0-.196-.05-.379-.15-.547a1.046 1.046 0 0 0-.438-.417c-.196-.11-.442-.164-.738-.164-.282 0-.517.045-.704.136a.966.966 0 0 0-.41.342.868.868 0 0 0-.13.465c0 .123.023.235.068.335.05.096.132.184.246.267.114.077.269.15.465.218.201.069.451.135.752.199a6.815 6.815 0 0 1 1.456.458c.41.182.725.419.944.71.218.288.328.652.328 1.094 0 .328-.071.629-.212.903a2.056 2.056 0 0 1-.602.704 3.03 3.03 0 0 1-.95.458 4.293 4.293 0 0 1-1.23.164c-.67 0-1.238-.119-1.703-.356-.464-.241-.818-.549-1.059-.923a2.184 2.184 0 0 1-.356-1.175h1.593c.018.305.103.549.253.731.155.178.346.308.574.39.233.077.472.116.718.116.296 0 .545-.039.745-.116.201-.082.353-.192.458-.328a.784.784 0 0 0 .157-.479zm6.178.827c.268 0 .51-.052.724-.157.219-.109.394-.26.527-.451.136-.192.211-.413.225-.663h1.552c-.009.478-.15.913-.424 1.305a2.945 2.945 0 0 1-1.087.937 3.27 3.27 0 0 1-1.497.342c-.565 0-1.057-.096-1.476-.287a2.913 2.913 0 0 1-1.046-.807 3.546 3.546 0 0 1-.629-1.183 4.866 4.866 0 0 1-.205-1.435v-.239c0-.511.068-.989.205-1.436.141-.451.351-.848.629-1.19a2.848 2.848 0 0 1 1.046-.8c.419-.195.909-.293 1.469-.293.593 0 1.112.118 1.559.355.446.233.797.558 1.053.978.259.415.394.898.403 1.449h-1.552a1.655 1.655 0 0 0-.205-.738 1.348 1.348 0 0 0-.506-.533 1.44 1.44 0 0 0-.772-.199c-.333 0-.609.069-.827.205-.219.133-.39.315-.513.547a2.682 2.682 0 0 0-.267.773c-.05.282-.075.576-.075.882v.239c0 .305.025.601.075.888.05.288.137.545.26.773.128.223.301.403.52.54.218.132.496.198.834.198zm4.078-2.44v-.157c0-.534.078-1.028.233-1.484a3.52 3.52 0 0 1 .669-1.196 3.033 3.033 0 0 1 1.081-.793 3.513 3.513 0 0 1 1.449-.287c.542 0 1.025.096 1.449.287.428.187.791.451 1.087.793.296.337.522.736.677 1.196.155.456.232.95.232 1.484v.157c0 .533-.077 1.027-.232 1.483a3.543 3.543 0 0 1-.677 1.196 3.117 3.117 0 0 1-1.08.793 3.542 3.542 0 0 1-1.443.281 3.608 3.608 0 0 1-1.456-.281 3.136 3.136 0 0 1-1.08-.793 3.524 3.524 0 0 1-.676-1.196 4.579 4.579 0 0 1-.233-1.483zm1.648-.157v.157c0 .332.034.647.102.943.068.296.176.556.321.779.146.224.333.399.561.527.228.127.499.191.813.191.306 0 .57-.064.793-.191a1.59 1.59 0 0 0 .561-.527c.146-.223.253-.483.321-.779a3.93 3.93 0 0 0 .11-.943v-.157c0-.329-.037-.638-.11-.93a2.37 2.37 0 0 0-.328-.786 1.574 1.574 0 0 0-.56-.533 1.545 1.545 0 0 0-.8-.199c-.31 0-.579.066-.807.199a1.59 1.59 0 0 0-.554.533c-.145.228-.253.49-.321.786a4.085 4.085 0 0 0-.102.93zm8.364-2.215V106h-1.647v-7.397h1.572l.075 1.409zm2.263-1.456-.014 1.531a4.345 4.345 0 0 0-.67-.055c-.282 0-.531.041-.745.123a1.419 1.419 0 0 0-.54.342c-.141.146-.25.324-.328.533-.077.21-.123.445-.137.704l-.376.028c0-.465.046-.896.137-1.292a3.53 3.53 0 0 1 .41-1.046c.187-.301.42-.536.698-.704.282-.169.608-.253.977-.253.1 0 .207.009.321.027.119.018.208.039.267.062zm5.507 5.913V95.5h1.654V106h-1.497l-.157-1.531zm-4.812-2.085v-.144c0-.56.066-1.071.198-1.531.132-.465.323-.864.574-1.196.251-.338.556-.595.916-.773.36-.182.766-.273 1.217-.273.447 0 .838.086 1.176.26.337.173.624.421.861.745.237.319.426.702.567 1.148.142.442.242.934.301 1.477v.458a7.341 7.341 0 0 1-.301 1.449c-.141.437-.33.816-.567 1.135a2.447 2.447 0 0 1-.868.738c-.337.173-.732.26-1.183.26-.446 0-.85-.094-1.21-.281a2.664 2.664 0 0 1-.909-.786 3.683 3.683 0 0 1-.574-1.189 5.409 5.409 0 0 1-.198-1.497zm1.647-.144v.144c0 .337.03.651.089.943.064.292.162.549.294.773.132.218.303.392.513.519.214.123.469.185.765.185.374 0 .682-.082.923-.246.242-.164.431-.385.567-.663a3.09 3.09 0 0 0 .288-.944v-1.237a3.072 3.072 0 0 0-.171-.752 2.006 2.006 0 0 0-.335-.608 1.413 1.413 0 0 0-.527-.41c-.205-.1-.449-.151-.731-.151-.301 0-.556.064-.766.191a1.545 1.545 0 0 0-.519.527c-.132.223-.23.483-.294.779a4.492 4.492 0 0 0-.096.95zM50.881 213.64V215h-5.284v-1.36h5.284zm-4.799-8.593V215h-1.715v-9.953h1.715zm4.109 4.156v1.34h-4.594v-1.34h4.594zm.656-4.156v1.367h-5.25v-1.367h5.25zm4.762 2.557v1.203h-4.17v-1.203h4.17zm-2.967-1.812h1.648v7.164c0 .228.032.403.096.526a.511.511 0 0 0 .28.24c.118.041.257.061.417.061.114 0 .223-.007.328-.02.105-.014.19-.028.253-.041l.007 1.257a4.012 4.012 0 0 1-.479.11 3.503 3.503 0 0 1-.615.048c-.378 0-.713-.066-1.005-.199a1.472 1.472 0 0 1-.684-.663c-.164-.305-.246-.711-.246-1.216v-7.267zm6-1.292V215h-1.655v-10.5h1.655zm4.593 3.104-3.22 3.568-1.763 1.805-.43-1.395 1.332-1.647 2.092-2.331h1.99zM61.602 215l-2.4-3.473 1.04-1.155L63.508 215h-1.907zm4.543-7.396V215h-1.654v-7.396h1.654zm-1.764-1.942c0-.251.082-.458.246-.622.17-.169.402-.253.698-.253.291 0 .522.084.69.253a.83.83 0 0 1 .253.622.822.822 0 0 1-.253.615c-.168.164-.398.246-.69.246-.296 0-.529-.082-.698-.246a.834.834 0 0 1-.246-.615zm5.433-1.162V215h-1.655v-10.5h1.654zm5.165 10.637a3.94 3.94 0 0 1-1.483-.267 3.265 3.265 0 0 1-1.122-.759 3.362 3.362 0 0 1-.704-1.141 4 4 0 0 1-.246-1.415v-.274c0-.579.084-1.103.253-1.572.169-.469.403-.87.704-1.203.301-.337.656-.595 1.067-.773.41-.177.854-.266 1.333-.266.528 0 .99.089 1.387.266.397.178.725.429.985.752.264.319.46.7.588 1.142.132.442.198.93.198 1.463v.704h-5.715v-1.183h4.088v-.13a2.315 2.315 0 0 0-.178-.834 1.416 1.416 0 0 0-.485-.628c-.219-.16-.51-.24-.875-.24-.274 0-.517.06-.732.178-.21.114-.385.28-.526.499a2.63 2.63 0 0 0-.328.793c-.073.305-.11.649-.11 1.032v.274c0 .323.044.624.13.902.091.273.224.513.397.718.173.205.383.367.629.485.246.114.526.171.84.171.397 0 .75-.08 1.06-.239.31-.16.579-.385.807-.677l.868.841c-.16.232-.367.456-.622.67-.255.209-.567.38-.937.512-.364.133-.788.199-1.271.199zm8.494-2.14a.824.824 0 0 0-.123-.444c-.082-.137-.239-.26-.471-.369-.228-.11-.565-.21-1.012-.301a8.71 8.71 0 0 1-1.08-.308 3.43 3.43 0 0 1-.834-.444 1.868 1.868 0 0 1-.54-.615 1.706 1.706 0 0 1-.191-.821c0-.3.066-.585.198-.854s.321-.506.567-.711c.246-.205.545-.367.896-.485a3.733 3.733 0 0 1 1.19-.178c.619 0 1.15.105 1.592.314.447.205.788.486 1.025.841.237.351.356.747.356 1.19h-1.648c0-.196-.05-.379-.15-.547a1.037 1.037 0 0 0-.438-.417c-.196-.11-.442-.164-.738-.164-.282 0-.517.045-.704.136a.969.969 0 0 0-.41.342.871.871 0 0 0-.13.465.8.8 0 0 0 .068.335c.05.096.132.184.246.267.114.077.27.15.465.218.2.069.451.135.752.199.565.118 1.05.271 1.456.458.41.182.725.419.944.71.218.288.328.652.328 1.094 0 .328-.07.629-.212.903a2.058 2.058 0 0 1-.602.704 3.033 3.033 0 0 1-.95.458 4.29 4.29 0 0 1-1.23.164c-.67 0-1.238-.119-1.703-.356-.464-.241-.818-.549-1.06-.923a2.183 2.183 0 0 1-.355-1.175h1.593c.018.305.103.549.253.731.155.178.346.308.574.39.233.077.472.116.718.116.296 0 .545-.039.745-.116.2-.082.353-.192.458-.328a.785.785 0 0 0 .157-.479zm-1.873 2.044h1.224l-.082.383c.26.045.497.155.71.328.22.178.33.463.33.854 0 .233-.049.443-.144.629a1.3 1.3 0 0 1-.431.479 2.044 2.044 0 0 1-.704.314c-.278.073-.602.11-.971.11l-.048-.93c.178 0 .337-.023.479-.068a.696.696 0 0 0 .335-.199.494.494 0 0 0 .13-.355.46.46 0 0 0-.11-.328.706.706 0 0 0-.342-.178 3.208 3.208 0 0 0-.588-.089l.212-.95zm6.793-7.437V215h-1.654v-7.396h1.654zm-1.764-1.942c0-.251.082-.458.246-.622.169-.169.401-.253.698-.253.291 0 .521.084.69.253a.83.83 0 0 1 .253.622.823.823 0 0 1-.253.615c-.169.164-.399.246-.69.246-.297 0-.53-.082-.698-.246a.834.834 0 0 1-.246-.615zm5.316 3.445V215h-1.647v-7.396h1.551l.096 1.503zm-.267 1.921-.56-.007c0-.51.064-.982.191-1.415.128-.432.315-.808.56-1.127a2.47 2.47 0 0 1 .917-.746c.369-.177.795-.266 1.278-.266.337 0 .645.05.923.15.282.096.526.249.731.458.21.21.37.479.479.807.114.328.17.724.17 1.189V215H94.72v-4.785c0-.36-.054-.643-.164-.848a.906.906 0 0 0-.458-.437 1.66 1.66 0 0 0-.704-.137c-.31 0-.574.059-.793.178-.214.118-.39.28-.526.485a2.173 2.173 0 0 0-.301.711 3.723 3.723 0 0 0-.096.861zm4.587-.437-.772.171c0-.447.061-.868.184-1.265.128-.401.313-.752.554-1.053.246-.305.55-.544.91-.717a2.81 2.81 0 0 1 1.236-.26c.379 0 .716.052 1.012.157.301.1.556.26.766.479.21.218.369.503.478.854.11.346.164.766.164 1.258V215h-1.654v-4.792c0-.374-.055-.663-.164-.868a.85.85 0 0 0-.451-.424 1.82 1.82 0 0 0-.704-.123c-.255 0-.481.048-.677.144a1.346 1.346 0 0 0-.485.389 1.732 1.732 0 0 0-.301.568 2.428 2.428 0 0 0-.096.697zM7.035 280.203v1.36H1.751v-1.36h5.284zm-4.86-4.156V286H.459v-9.953h1.716zm6.18 0V286h-1.71v-9.953h1.71zm3.743 2.557V286h-1.654v-7.396h1.654zm-1.764-1.942c0-.251.082-.458.247-.622.168-.169.4-.253.697-.253.291 0 .521.084.69.253a.83.83 0 0 1 .253.622.823.823 0 0 1-.253.615c-.168.164-.399.246-.69.246-.296 0-.529-.082-.697-.246a.834.834 0 0 1-.247-.615zm5.323 3.35V286H14.01v-7.396h1.572l.075 1.408zm2.263-1.456-.014 1.531a4.338 4.338 0 0 0-.67-.055c-.282 0-.53.041-.745.123a1.415 1.415 0 0 0-.54.342c-.141.146-.25.324-.328.533-.078.21-.123.445-.137.704l-.376.028c0-.465.046-.896.137-1.292.091-.397.228-.745.41-1.046.187-.301.42-.536.697-.704.283-.169.609-.253.978-.253a2.064 2.064 0 0 1 .588.089zm2.896.048V286H19.16v-7.396h1.655zm-1.764-1.942c0-.251.082-.458.246-.622.169-.169.401-.253.697-.253.292 0 .522.084.69.253a.83.83 0 0 1 .254.622.822.822 0 0 1-.253.615c-.169.164-.399.246-.69.246-.297 0-.53-.082-.698-.246a.834.834 0 0 1-.246-.615zm5.302 3.521V286h-1.647v-7.396h1.551l.096 1.579zm-.294 1.845-.533-.007a4.809 4.809 0 0 1 .219-1.442c.146-.437.346-.813.601-1.128.26-.314.57-.556.93-.724.36-.174.761-.26 1.203-.26.355 0 .677.05.964.15.292.096.54.253.745.472.21.219.37.503.479.854.109.347.164.773.164 1.279V286h-1.655v-4.785c0-.356-.052-.636-.157-.841a.875.875 0 0 0-.444-.444 1.669 1.669 0 0 0-.718-.137c-.282 0-.535.059-.759.178-.223.118-.412.28-.567.485-.15.205-.267.442-.349.711a2.938 2.938 0 0 0-.123.861zm11.29-3.424h1.498v7.191c0 .665-.142 1.23-.424 1.695a2.726 2.726 0 0 1-1.183 1.06c-.506.246-1.091.369-1.757.369a4.13 4.13 0 0 1-.943-.123 3.84 3.84 0 0 1-.998-.397 2.462 2.462 0 0 1-.8-.704l.773-.97c.264.314.556.544.875.69.319.146.654.219 1.005.219.378 0 .7-.071.963-.212.27-.137.477-.34.622-.609.146-.268.22-.597.22-.984v-5.551l.15-1.674zm-5.024 3.78v-.144c0-.56.069-1.071.205-1.531.137-.465.333-.864.588-1.196.255-.338.565-.595.93-.773a2.733 2.733 0 0 1 1.237-.273c.479 0 .886.086 1.224.26.342.173.626.421.854.745.228.319.406.702.534 1.148.132.442.23.934.293 1.477v.458a7.407 7.407 0 0 1-.3 1.449 4.007 4.007 0 0 1-.56 1.135 2.39 2.39 0 0 1-.862.738c-.337.173-.736.26-1.197.26-.45 0-.859-.094-1.223-.281a2.766 2.766 0 0 1-.93-.786 3.718 3.718 0 0 1-.588-1.189 5.235 5.235 0 0 1-.205-1.497zm1.648-.144v.144c0 .337.031.651.095.943.069.292.171.549.308.773.141.218.319.392.533.519.219.123.476.185.773.185.387 0 .704-.082.95-.246.25-.164.442-.385.574-.663.137-.283.233-.597.287-.944v-1.237a3.013 3.013 0 0 0-.17-.752 2 2 0 0 0-.336-.608 1.4 1.4 0 0 0-.533-.411c-.214-.1-.467-.15-.759-.15-.296 0-.553.064-.772.191a1.569 1.569 0 0 0-.54.527c-.137.223-.24.483-.308.779a4.214 4.214 0 0 0-.102.95zm16.312.52h1.709a3.945 3.945 0 0 1-.547 1.743c-.31.506-.745.905-1.306 1.196-.56.292-1.242.438-2.044.438a4.06 4.06 0 0 1-1.66-.328 3.647 3.647 0 0 1-1.265-.944 4.262 4.262 0 0 1-.807-1.483 6.449 6.449 0 0 1-.273-1.942v-.827a6.3 6.3 0 0 1 .28-1.941 4.3 4.3 0 0 1 .82-1.484 3.556 3.556 0 0 1 1.279-.95 4.193 4.193 0 0 1 1.688-.328c.793 0 1.463.146 2.01.438.547.291.97.695 1.271 1.21.306.515.492 1.105.56 1.77h-1.708a3.16 3.16 0 0 0-.301-1.1 1.551 1.551 0 0 0-.67-.698c-.296-.164-.684-.246-1.162-.246-.392 0-.734.073-1.025.219-.292.146-.536.36-.732.643a3.095 3.095 0 0 0-.444 1.045c-.096.411-.144.88-.144 1.409v.84c0 .502.044.957.13 1.368.091.405.228.754.41 1.046.187.291.424.517.711.676.287.16.631.24 1.032.24.488 0 .882-.078 1.183-.233.305-.155.535-.38.69-.677.16-.3.265-.667.315-1.1zm4.83-7.26V286h-1.64v-10.5h1.64zm-.287 6.528-.533-.007c.005-.51.075-.982.212-1.415.141-.432.337-.808.588-1.127a2.616 2.616 0 0 1 2.099-1.012c.364 0 .692.05.984.15.296.1.551.262.765.486.215.218.377.505.486.861.114.351.17.779.17 1.285V286h-1.654v-4.765c0-.355-.052-.638-.157-.847a.909.909 0 0 0-.444-.451 1.62 1.62 0 0 0-.718-.144c-.296 0-.558.059-.786.178-.223.118-.41.28-.56.485-.15.205-.265.442-.342.711a3.28 3.28 0 0 0-.11.861zm10.71 2.489v-3.528a1.51 1.51 0 0 0-.144-.683 1.004 1.004 0 0 0-.437-.445c-.192-.104-.433-.157-.725-.157-.269 0-.501.046-.697.137a1.126 1.126 0 0 0-.458.369.89.89 0 0 0-.164.526h-1.641c0-.291.07-.574.212-.847.141-.274.346-.518.615-.732.27-.214.59-.383.964-.506a4.01 4.01 0 0 1 1.258-.184c.556 0 1.048.093 1.476.28.433.187.773.469 1.019.848.25.373.376.843.376 1.408v3.288c0 .337.023.64.068.909.05.265.121.495.212.691V286h-1.688a2.916 2.916 0 0 1-.185-.677 5.528 5.528 0 0 1-.061-.806zm.239-3.015.014 1.019h-1.183c-.305 0-.574.029-.807.088a1.669 1.669 0 0 0-.58.246c-.156.11-.272.242-.35.397a1.16 1.16 0 0 0-.116.526c0 .196.046.376.137.54.091.16.224.285.397.376.177.091.392.137.642.137.337 0 .631-.068.882-.205.255-.141.456-.312.602-.513.146-.205.223-.398.232-.581l.533.732a2.497 2.497 0 0 1-.28.601c-.132.214-.305.42-.52.615a2.568 2.568 0 0 1-1.77.657c-.483 0-.914-.096-1.292-.287a2.293 2.293 0 0 1-.889-.787 2.034 2.034 0 0 1-.321-1.127c0-.392.073-.739.219-1.04.15-.305.369-.56.656-.765.292-.205.647-.36 1.066-.465.42-.109.898-.164 1.436-.164h1.292zm5.001-6.002V286h-1.654v-10.5h1.654zm3.669 0V286h-1.655v-10.5h1.655zm5.165 10.637a3.94 3.94 0 0 1-1.483-.267 3.265 3.265 0 0 1-1.121-.759 3.362 3.362 0 0 1-.704-1.141 3.998 3.998 0 0 1-.247-1.415v-.274c0-.579.085-1.103.253-1.572.169-.469.404-.87.704-1.203.301-.337.657-.595 1.067-.773.41-.177.854-.266 1.333-.266.528 0 .991.089 1.387.266.397.178.725.429.985.752.264.319.46.7.588 1.142.132.442.198.93.198 1.463v.704h-5.715v-1.183h4.088v-.13a2.317 2.317 0 0 0-.178-.834 1.416 1.416 0 0 0-.485-.628c-.219-.16-.51-.24-.875-.24-.273 0-.517.06-.731.178-.21.114-.386.28-.527.499-.141.219-.25.483-.328.793-.073.305-.11.649-.11 1.032v.274c0 .323.044.624.13.902.092.273.224.513.397.718.173.205.383.367.629.485.246.114.526.171.84.171.397 0 .75-.08 1.06-.239.31-.16.58-.385.807-.677l.868.841c-.16.232-.367.456-.622.67-.255.209-.567.38-.936.512-.365.133-.789.199-1.272.199zm5.979-5.954V286h-1.647v-7.396h1.551l.096 1.579zm-.294 1.845-.533-.007a4.812 4.812 0 0 1 .219-1.442c.145-.437.346-.813.601-1.128.26-.314.57-.556.93-.724.36-.174.76-.26 1.203-.26.355 0 .677.05.964.15.291.096.54.253.745.472.21.219.37.503.478.854.11.347.165.773.165 1.279V286h-1.655v-4.785c0-.356-.052-.636-.157-.841a.875.875 0 0 0-.444-.444 1.669 1.669 0 0 0-.718-.137c-.283 0-.536.059-.759.178-.223.118-.412.28-.567.485-.15.205-.267.442-.349.711a2.938 2.938 0 0 0-.123.861zm11.29-3.424h1.498v7.191c0 .665-.142 1.23-.424 1.695a2.726 2.726 0 0 1-1.183 1.06c-.506.246-1.091.369-1.757.369a4.13 4.13 0 0 1-.943-.123 3.84 3.84 0 0 1-.998-.397 2.46 2.46 0 0 1-.8-.704l.773-.97c.264.314.555.544.874.69.32.146.654.219 1.005.219.379 0 .7-.071.964-.212.27-.137.477-.34.622-.609.146-.268.22-.597.22-.984v-5.551l.15-1.674zm-5.024 3.78v-.144c0-.56.068-1.071.205-1.531.137-.465.333-.864.588-1.196.255-.338.565-.595.93-.773a2.733 2.733 0 0 1 1.237-.273c.478 0 .886.086 1.224.26.341.173.626.421.854.745.228.319.406.702.533 1.148.132.442.23.934.294 1.477v.458a7.407 7.407 0 0 1-.3 1.449 4.007 4.007 0 0 1-.561 1.135 2.39 2.39 0 0 1-.861.738c-.338.173-.736.26-1.197.26-.45 0-.859-.094-1.223-.281a2.766 2.766 0 0 1-.93-.786 3.718 3.718 0 0 1-.588-1.189 5.235 5.235 0 0 1-.205-1.497zm1.648-.144v.144c0 .337.031.651.095.943.069.292.171.549.308.773.141.218.319.392.533.519.219.123.476.185.773.185.387 0 .704-.082.95-.246.25-.164.442-.385.574-.663.137-.283.232-.597.287-.944v-1.237a3.013 3.013 0 0 0-.17-.752 2.001 2.001 0 0 0-.336-.608 1.4 1.4 0 0 0-.533-.411 1.78 1.78 0 0 0-.759-.15c-.296 0-.553.064-.772.191a1.569 1.569 0 0 0-.54.527c-.137.223-.24.483-.308.779a4.214 4.214 0 0 0-.102.95zm9.943 3.897a3.938 3.938 0 0 1-1.483-.267 3.265 3.265 0 0 1-1.121-.759 3.359 3.359 0 0 1-.704-1.141 3.998 3.998 0 0 1-.246-1.415v-.274c0-.579.084-1.103.252-1.572.17-.469.404-.87.705-1.203.3-.337.656-.595 1.066-.773a3.33 3.33 0 0 1 1.333-.266c.529 0 .991.089 1.388.266.396.178.724.429.984.752.264.319.46.7.588 1.142a5.1 5.1 0 0 1 .198 1.463v.704H98.4v-1.183h4.088v-.13a2.32 2.32 0 0 0-.177-.834 1.417 1.417 0 0 0-.486-.628c-.219-.16-.51-.24-.875-.24-.273 0-.517.06-.731.178-.21.114-.385.28-.527.499-.14.219-.25.483-.328.793-.073.305-.11.649-.11 1.032v.274c0 .323.044.624.13.902.092.273.224.513.397.718.173.205.383.367.629.485.246.114.527.171.841.171.396 0 .75-.08 1.06-.239a2.44 2.44 0 0 0 .806-.677l.868.841a3.382 3.382 0 0 1-.622.67 3.12 3.12 0 0 1-.936.512c-.365.133-.789.199-1.272.199zM562.335 170.047V180h-1.703v-9.953h1.703zm3.124 0v1.367h-7.923v-1.367h7.923zm3.853 10.09a3.942 3.942 0 0 1-1.484-.267 3.27 3.27 0 0 1-1.121-.759 3.365 3.365 0 0 1-.704-1.141 4 4 0 0 1-.246-1.415v-.274c0-.579.084-1.103.253-1.572.168-.469.403-.87.704-1.203a3.035 3.035 0 0 1 1.066-.773 3.33 3.33 0 0 1 1.333-.266c.529 0 .991.089 1.388.266.396.178.725.429.984.752.265.319.461.7.588 1.142a5.1 5.1 0 0 1 .198 1.463v.704h-5.714v-1.183h4.088v-.13a2.343 2.343 0 0 0-.178-.834 1.417 1.417 0 0 0-.486-.628c-.218-.16-.51-.24-.875-.24-.273 0-.517.06-.731.178a1.44 1.44 0 0 0-.526.499 2.6 2.6 0 0 0-.328.793c-.073.305-.11.649-.11 1.032v.274c0 .323.043.624.13.902.091.273.223.513.397.718.173.205.382.367.628.485.246.114.527.171.841.171.397 0 .75-.08 1.06-.239.31-.16.579-.385.806-.677l.869.841c-.16.232-.367.456-.622.67-.256.209-.568.38-.937.512a3.703 3.703 0 0 1-1.271.199zm6.108-10.637V180h-1.654v-10.5h1.654zm5.166 10.637a3.942 3.942 0 0 1-1.484-.267 3.27 3.27 0 0 1-1.121-.759 3.365 3.365 0 0 1-.704-1.141 4 4 0 0 1-.246-1.415v-.274c0-.579.084-1.103.253-1.572.169-.469.403-.87.704-1.203a3.035 3.035 0 0 1 1.066-.773 3.333 3.333 0 0 1 1.333-.266c.529 0 .992.089 1.388.266.397.178.725.429.985.752.264.319.46.7.587 1.142.133.442.199.93.199 1.463v.704h-5.715v-1.183h4.088v-.13a2.321 2.321 0 0 0-.178-.834 1.422 1.422 0 0 0-.485-.628c-.219-.16-.511-.24-.875-.24-.274 0-.518.06-.732.178-.209.114-.385.28-.526.499a2.624 2.624 0 0 0-.328.793c-.073.305-.11.649-.11 1.032v.274c0 .323.044.624.13.902.091.273.224.513.397.718.173.205.383.367.629.485.246.114.526.171.84.171.397 0 .75-.08 1.06-.239.31-.16.579-.385.807-.677l.868.841c-.16.232-.367.456-.622.67-.255.209-.568.38-.937.512-.364.133-.788.199-1.271.199zm9.082-7.533h1.497v7.191c0 .665-.141 1.23-.424 1.695a2.722 2.722 0 0 1-1.182 1.06c-.506.246-1.092.369-1.757.369a4.12 4.12 0 0 1-.943-.123 3.83 3.83 0 0 1-.998-.397 2.46 2.46 0 0 1-.8-.704l.772-.97c.265.314.556.544.875.69.319.146.654.219 1.005.219.378 0 .7-.071.964-.212.269-.137.476-.34.622-.609.146-.268.219-.597.219-.984v-5.551l.15-1.674zm-5.024 3.78v-.144c0-.56.068-1.071.205-1.531.137-.465.333-.864.588-1.196.255-.338.565-.595.929-.773a2.735 2.735 0 0 1 1.238-.273c.478 0 .886.086 1.223.26.342.173.627.421.855.745.228.319.405.702.533 1.148.132.442.23.934.294 1.477v.458a7.414 7.414 0 0 1-.301 1.449 4.01 4.01 0 0 1-.56 1.135c-.233.319-.52.565-.862.738-.337.173-.736.26-1.196.26-.451 0-.859-.094-1.224-.281a2.757 2.757 0 0 1-.929-.786 3.726 3.726 0 0 1-.588-1.189 5.224 5.224 0 0 1-.205-1.497zm1.647-.144v.144c0 .337.032.651.096.943a2.6 2.6 0 0 0 .308.773c.141.218.319.392.533.519.218.123.476.185.772.185.388 0 .704-.082.95-.246.251-.164.442-.385.575-.663.136-.283.232-.597.287-.944v-1.237a3.072 3.072 0 0 0-.171-.752 2.006 2.006 0 0 0-.335-.608 1.4 1.4 0 0 0-.533-.411c-.215-.1-.467-.15-.759-.15-.296 0-.554.064-.773.191a1.58 1.58 0 0 0-.54.527 2.609 2.609 0 0 0-.307.779 4.18 4.18 0 0 0-.103.95zm8.338-2.228V180h-1.648v-7.396h1.572l.076 1.408zm2.262-1.456-.013 1.531a4.32 4.32 0 0 0-.67-.055c-.283 0-.531.041-.745.123a1.415 1.415 0 0 0-.541.342c-.141.146-.25.324-.328.533-.077.21-.123.445-.136.704l-.376.028c0-.465.045-.896.136-1.292.092-.397.228-.745.411-1.046.186-.301.419-.536.697-.704.282-.169.608-.253.977-.253a2.066 2.066 0 0 1 .588.089zm5.056 5.961v-3.528a1.52 1.52 0 0 0-.143-.683 1.007 1.007 0 0 0-.438-.445c-.191-.104-.433-.157-.724-.157-.269 0-.502.046-.698.137a1.13 1.13 0 0 0-.458.369.892.892 0 0 0-.164.526h-1.64c0-.291.07-.574.212-.847.141-.274.346-.518.615-.732.269-.214.59-.383.964-.506a4.007 4.007 0 0 1 1.257-.184c.556 0 1.049.093 1.477.28.433.187.772.469 1.019.848.25.373.376.843.376 1.408v3.288c0 .337.022.64.068.909.05.265.121.495.212.691V180h-1.689a2.914 2.914 0 0 1-.184-.677 5.53 5.53 0 0 1-.062-.806zm.24-3.015.013 1.019h-1.182c-.306 0-.575.029-.807.088a1.673 1.673 0 0 0-.581.246 1.08 1.08 0 0 0-.349.397c-.077.155-.116.33-.116.526s.046.376.137.54c.091.16.223.285.396.376.178.091.392.137.643.137.337 0 .631-.068.882-.205.255-.141.455-.312.601-.513.146-.205.224-.398.233-.581l.533.732a2.51 2.51 0 0 1-.28.601c-.133.214-.306.42-.52.615a2.577 2.577 0 0 1-1.77.657c-.484 0-.914-.096-1.292-.287a2.287 2.287 0 0 1-.889-.787 2.036 2.036 0 0 1-.321-1.127c0-.392.072-.739.218-1.04.151-.305.369-.56.657-.765.291-.205.647-.36 1.066-.465a5.723 5.723 0 0 1 1.436-.164h1.292zm4.885-1.395V180h-1.648v-7.396h1.552l.096 1.503zm-.267 1.921-.56-.007c0-.51.063-.982.191-1.415.128-.432.314-.808.56-1.127.247-.324.552-.572.916-.746a2.93 2.93 0 0 1 1.279-.266c.337 0 .645.05.923.15.282.096.526.249.731.458.21.21.369.479.479.807.114.328.171.724.171 1.189V180h-1.648v-4.785c0-.36-.055-.643-.164-.848a.905.905 0 0 0-.458-.437 1.662 1.662 0 0 0-.704-.137c-.31 0-.574.059-.793.178-.214.118-.39.28-.526.485a2.171 2.171 0 0 0-.301.711 3.712 3.712 0 0 0-.096.861zm4.587-.437-.772.171c0-.447.061-.868.184-1.265.128-.401.312-.752.554-1.053.246-.305.549-.544.909-.717.36-.174.772-.26 1.237-.26.379 0 .716.052 1.012.157.301.1.556.26.766.479.209.218.369.503.478.854.11.346.164.766.164 1.258V180h-1.654v-4.792c0-.374-.055-.663-.164-.868a.85.85 0 0 0-.451-.424 1.82 1.82 0 0 0-.704-.123c-.256 0-.481.048-.677.144a1.35 1.35 0 0 0-.486.389 1.725 1.725 0 0 0-.3.568 2.421 2.421 0 0 0-.096.697zM524.187 267.76h1.709a3.947 3.947 0 0 1-.547 1.743c-.31.506-.745.905-1.306 1.196-.56.292-1.242.438-2.044.438a4.06 4.06 0 0 1-1.661-.328 3.647 3.647 0 0 1-1.264-.944 4.264 4.264 0 0 1-.807-1.483 6.458 6.458 0 0 1-.273-1.942v-.827c0-.715.093-1.362.28-1.941a4.301 4.301 0 0 1 .82-1.484 3.567 3.567 0 0 1 1.278-.95 4.199 4.199 0 0 1 1.689-.328c.793 0 1.463.146 2.01.438.547.291.97.695 1.271 1.21.306.515.492 1.105.561 1.77h-1.709a3.166 3.166 0 0 0-.301-1.1 1.55 1.55 0 0 0-.67-.698c-.296-.164-.684-.246-1.162-.246a2.26 2.26 0 0 0-1.025.219c-.292.146-.536.36-.732.643a3.087 3.087 0 0 0-.444 1.045 6.22 6.22 0 0 0-.144 1.409v.84c0 .502.044.957.13 1.368.091.405.228.754.41 1.046.187.291.424.517.711.676.287.16.631.24 1.032.24.488 0 .882-.078 1.183-.233.305-.155.536-.38.69-.677.16-.3.265-.667.315-1.1zm7.373 1.757v-3.528a1.52 1.52 0 0 0-.143-.683 1.007 1.007 0 0 0-.438-.445c-.191-.104-.433-.157-.724-.157-.269 0-.502.046-.698.137a1.13 1.13 0 0 0-.458.369.892.892 0 0 0-.164.526h-1.64c0-.291.07-.574.212-.847.141-.274.346-.518.615-.732.269-.214.59-.383.964-.506a4.009 4.009 0 0 1 1.258-.184c.556 0 1.048.093 1.476.28.433.187.773.469 1.019.848.25.373.376.843.376 1.408v3.288c0 .337.022.64.068.909.05.265.121.495.212.691V271h-1.689a2.914 2.914 0 0 1-.184-.677 5.53 5.53 0 0 1-.062-.806zm.24-3.015.013 1.019h-1.182c-.306 0-.575.029-.807.088a1.673 1.673 0 0 0-.581.246 1.08 1.08 0 0 0-.349.397c-.077.155-.116.33-.116.526s.046.376.137.54c.091.16.223.285.396.376.178.091.392.137.643.137.337 0 .631-.068.882-.205.255-.141.455-.312.601-.513.146-.205.224-.398.233-.581l.533.732a2.51 2.51 0 0 1-.28.601c-.133.214-.306.42-.52.615a2.564 2.564 0 0 1-1.77.657c-.483 0-.914-.096-1.292-.287a2.287 2.287 0 0 1-.889-.787 2.036 2.036 0 0 1-.321-1.127c0-.392.073-.739.218-1.04.151-.305.37-.56.657-.765.291-.205.647-.36 1.066-.465a5.723 5.723 0 0 1 1.436-.164h1.292zm4.871-1.319V271h-1.647v-7.396h1.551l.096 1.579zm-.294 1.845-.533-.007a4.802 4.802 0 0 1 .219-1.442 3.57 3.57 0 0 1 .601-1.128c.26-.314.57-.556.93-.724.36-.174.761-.26 1.203-.26.356 0 .677.05.964.15.292.096.54.253.745.472.21.219.369.503.479.854.109.347.164.773.164 1.279V271h-1.655v-4.785c0-.356-.052-.636-.157-.841a.874.874 0 0 0-.444-.444 1.672 1.672 0 0 0-.718-.137 1.59 1.59 0 0 0-.759.178c-.223.118-.412.28-.567.485a2.335 2.335 0 0 0-.349.711 2.938 2.938 0 0 0-.123.861zm8.317-6.528V271h-1.654v-10.5h1.654zm3.689 3.104V271h-1.648v-7.396h1.648zm6.68-2.557 2.311 4.751 2.31-4.751h1.901l-3.35 6.289V271h-1.729v-3.664l-3.35-6.289h1.907zm11.236 8.47v-3.528c0-.264-.048-.492-.144-.683a1 1 0 0 0-.437-.445c-.191-.104-.433-.157-.725-.157-.269 0-.501.046-.697.137a1.123 1.123 0 0 0-.458.369.892.892 0 0 0-.164.526h-1.641c0-.291.071-.574.212-.847a2.27 2.27 0 0 1 .616-.732 3.07 3.07 0 0 1 .963-.506 4.013 4.013 0 0 1 1.258-.184c.556 0 1.048.093 1.477.28a2.24 2.24 0 0 1 1.018.848c.251.373.376.843.376 1.408v3.288c0 .337.023.64.069.909.05.265.12.495.212.691V271h-1.689a2.914 2.914 0 0 1-.184-.677 5.53 5.53 0 0 1-.062-.806zm.239-3.015.014 1.019h-1.183c-.305 0-.574.029-.806.088a1.665 1.665 0 0 0-.581.246 1.07 1.07 0 0 0-.349.397c-.077.155-.116.33-.116.526s.045.376.137.54c.091.16.223.285.396.376.178.091.392.137.643.137.337 0 .631-.068.881-.205a1.8 1.8 0 0 0 .602-.513c.146-.205.223-.398.232-.581l.534.732a2.516 2.516 0 0 1-.281.601c-.132.214-.305.42-.519.615a2.577 2.577 0 0 1-1.771.657 2.83 2.83 0 0 1-1.292-.287 2.29 2.29 0 0 1-.888-.787 2.028 2.028 0 0 1-.322-1.127c0-.392.073-.739.219-1.04.15-.305.369-.56.656-.765.292-.205.647-.36 1.067-.465a5.72 5.72 0 0 1 1.435-.164h1.292zm5.275 3.691 2.01-6.589h1.764l-2.967 8.524c-.069.182-.158.38-.267.595a2.672 2.672 0 0 1-.431.608 1.912 1.912 0 0 1-.649.472c-.26.123-.574.184-.943.184a2.11 2.11 0 0 1-.424-.041 6.41 6.41 0 0 1-.376-.075l-.007-1.258c.046.005.1.009.164.014.068.005.123.007.164.007.274 0 .501-.034.684-.103a.948.948 0 0 0 .444-.314c.119-.146.219-.342.301-.588l.533-1.436zm-1.135-6.589 1.757 5.537.294 1.736-1.142.294-2.686-7.567h1.777zm7.736 0V271h-1.647v-7.396h1.647zm3.614 1.579V271h-1.648v-7.396h1.552l.096 1.579zm-.294 1.845-.533-.007a4.803 4.803 0 0 1 .218-1.442c.146-.437.347-.813.602-1.128.26-.314.57-.556.93-.724.36-.174.761-.26 1.203-.26.355 0 .676.05.964.15.291.096.54.253.745.472.209.219.369.503.478.854.11.347.164.773.164 1.279V271h-1.654v-4.785c0-.356-.052-.636-.157-.841a.879.879 0 0 0-.445-.444 1.664 1.664 0 0 0-.717-.137c-.283 0-.536.059-.759.178-.223.118-.413.28-.568.485-.15.205-.266.442-.348.711a2.938 2.938 0 0 0-.123.861zm8.317-6.528V271h-1.655v-10.5h1.655zm6.074 9.017v-3.528a1.52 1.52 0 0 0-.143-.683 1.007 1.007 0 0 0-.438-.445c-.191-.104-.433-.157-.724-.157-.269 0-.502.046-.698.137a1.13 1.13 0 0 0-.458.369.892.892 0 0 0-.164.526h-1.64c0-.291.07-.574.211-.847a2.27 2.27 0 0 1 .616-.732c.269-.214.59-.383.964-.506a4.007 4.007 0 0 1 1.257-.184c.556 0 1.049.093 1.477.28.433.187.772.469 1.019.848.25.373.375.843.375 1.408v3.288c0 .337.023.64.069.909.05.265.121.495.212.691V271h-1.689a2.914 2.914 0 0 1-.184-.677 5.53 5.53 0 0 1-.062-.806zm.239-3.015.014 1.019h-1.182c-.306 0-.575.029-.807.088a1.665 1.665 0 0 0-.581.246 1.08 1.08 0 0 0-.349.397c-.077.155-.116.33-.116.526s.046.376.137.54c.091.16.223.285.396.376.178.091.392.137.643.137.337 0 .631-.068.882-.205.255-.141.455-.312.601-.513.146-.205.223-.398.233-.581l.533.732a2.478 2.478 0 0 1-.281.601c-.132.214-.305.42-.519.615a2.577 2.577 0 0 1-1.771.657 2.83 2.83 0 0 1-1.292-.287 2.29 2.29 0 0 1-.888-.787 2.036 2.036 0 0 1-.321-1.127c0-.392.072-.739.218-1.04.151-.305.369-.56.657-.765.291-.205.647-.36 1.066-.465a5.72 5.72 0 0 1 1.435-.164h1.292zm4.892-1.49V271h-1.647v-7.396h1.572l.075 1.408zm2.263-1.456-.014 1.531a4.339 4.339 0 0 0-.669-.055c-.283 0-.531.041-.746.123a1.419 1.419 0 0 0-.54.342c-.141.146-.25.324-.328.533-.077.21-.123.445-.136.704l-.376.028c0-.465.045-.896.136-1.292a3.53 3.53 0 0 1 .41-1.046c.187-.301.42-.536.698-.704.282-.169.608-.253.977-.253a2.066 2.066 0 0 1 .588.089z" fill="#fff"/></svg>