<svg width="143" height="143" viewBox="0 0 143 143" fill="none" xmlns="http://www.w3.org/2000/svg">
<path fill-rule="evenodd" clip-rule="evenodd" d="M4.02225 0.00628325L7.93321e-06 4.02563L13.4075 17.4234L17.4297 13.4041L4.02225 0.00628325Z" fill="#293349"/>
<path fill-rule="evenodd" clip-rule="evenodd" d="M4.02225 83.3749L7.93321e-06 87.3943L13.4075 100.792L17.4297 96.7727L4.02225 83.3749Z" fill="#293349"/>
<path fill-rule="evenodd" clip-rule="evenodd" d="M4.02225 41.6904L7.93321e-06 45.7097L13.4075 59.1075L17.4297 55.0882L4.02225 41.6904Z" fill="#293349"/>
<path fill-rule="evenodd" clip-rule="evenodd" d="M4.02225 125.059L7.93321e-06 129.078L13.4075 142.476L17.4297 138.457L4.02225 125.059Z" fill="#293349"/>
<path fill-rule="evenodd" clip-rule="evenodd" d="M45.7365 0.00628325L41.7142 4.02563L55.1217 17.4234L59.144 13.4041L45.7365 0.00628325Z" fill="#293349"/>
<path fill-rule="evenodd" clip-rule="evenodd" d="M45.7365 83.3749L41.7142 87.3943L55.1217 100.792L59.144 96.7727L45.7365 83.3749Z" fill="#293349"/>
<path fill-rule="evenodd" clip-rule="evenodd" d="M45.7365 41.6904L41.7142 45.7097L55.1217 59.1075L59.144 55.0882L45.7365 41.6904Z" fill="#293349"/>
<path fill-rule="evenodd" clip-rule="evenodd" d="M45.7365 125.059L41.7142 129.078L55.1217 142.476L59.144 138.457L45.7365 125.059Z" fill="#293349"/>
<path fill-rule="evenodd" clip-rule="evenodd" d="M87.4508 0.00628325L83.4286 4.02563L96.8361 17.4234L100.858 13.4041L87.4508 0.00628325Z" fill="#293349"/>
<path fill-rule="evenodd" clip-rule="evenodd" d="M87.4508 83.3749L83.4286 87.3943L96.8361 100.792L100.858 96.7727L87.4508 83.3749Z" fill="#293349"/>
<path fill-rule="evenodd" clip-rule="evenodd" d="M87.4508 41.6904L83.4286 45.7097L96.8361 59.1075L100.858 55.0882L87.4508 41.6904Z" fill="#293349"/>
<path fill-rule="evenodd" clip-rule="evenodd" d="M87.4508 125.059L83.4286 129.078L96.8361 142.476L100.858 138.457L87.4508 125.059Z" fill="#293349"/>
<path fill-rule="evenodd" clip-rule="evenodd" d="M129.165 0.00628325L125.143 4.02563L138.55 17.4234L142.573 13.4041L129.165 0.00628325Z" fill="#293349"/>
<path fill-rule="evenodd" clip-rule="evenodd" d="M129.165 83.3749L125.143 87.3943L138.55 100.792L142.573 96.7727L129.165 83.3749Z" fill="#293349"/>
<path fill-rule="evenodd" clip-rule="evenodd" d="M129.165 41.6904L125.143 45.7097L138.55 59.1075L142.573 55.0882L129.165 41.6904Z" fill="#293349"/>
<path fill-rule="evenodd" clip-rule="evenodd" d="M129.165 125.059L125.143 129.078L138.55 142.476L142.573 138.457L129.165 125.059Z" fill="#293349"/>
</svg>
