<svg xmlns="http://www.w3.org/2000/svg" width="98" height="98" fill="none"><circle cx="67.62" cy="15.68" r="14.7" fill="#00C26D"/><path stroke="#293349" stroke-linecap="round" stroke-linejoin="round" stroke-width="3" d="M72.008 27.87h6.215c2.416 0 4.376 1.94 4.376 4.337v45.265H13.084V32.207c0-2.395 1.958-4.338 4.376-4.338h30.38"/><path stroke="#293349" stroke-linecap="round" stroke-linejoin="round" stroke-width="3" d="M81.483 83.158H14.199c-3.168 0-5.736-2.546-5.736-5.687H87.22c0 3.14-2.569 5.687-5.737 5.687h-.001ZM69.464 23.017c.93-4.123 2.688-13.308 2.535-13.41l-.018-.011c-.165-.083-7.402 5.912-10.582 8.725-8.063 7.135-12.056 14.26-15.457 20.505-3.772 6.926-5.225 12.971-5.47 16.479l6.6 3.839c2.971-1.92 7.588-6.122 11.853-12.76 3.845-5.984 8.178-12.912 10.539-23.367Z"/><path stroke="#293349" stroke-linecap="round" stroke-linejoin="round" stroke-width="3" d="M64.139 28.046a2.64 2.64 0 0 0-.932-3.637c-1.268-.738-2.906-.306-3.658.965a2.64 2.64 0 0 0 .932 3.637c1.267.738 2.905.306 3.658-.965ZM59.647 35.63a2.64 2.64 0 0 0-.932-3.637c-1.268-.738-2.906-.306-3.659.965a2.64 2.64 0 0 0 .933 3.637c1.267.738 2.905.306 3.658-.965ZM55.154 43.21a2.64 2.64 0 0 0-.932-3.638c-1.268-.737-2.906-.305-3.658.966a2.64 2.64 0 0 0 .932 3.637c1.268.738 2.906.305 3.658-.966ZM69.297 23.512c.061-.179.111-.346.153-.504 1.073-4.088 2.682-13.31 2.528-13.41-.164-.084-7.504 5.802-10.582 8.725a7.47 7.47 0 0 0-.369.378l8.269 4.812.001-.001ZM40.475 55.305c-.49.08-10.666.699-11.773.857-.072-.004 8.712-15.544 17.023-16.936a.379.379 0 0 0-.05.116c-3.585 6.704-4.967 12.552-5.2 15.963v0ZM47.072 59.146c.168.462 4.579 9.573 4.979 10.61.038.06 9.451-15.113 6.631-22.987-.017.027-.04.068-.078.101-4.16 6.368-8.64 10.413-11.532 12.276ZM40.768 61.468l-3.034 5.12M37.442 60.43l-4.182 2.858M43.303 63.842l-.48 5.012"/></svg>
