<svg xmlns="http://www.w3.org/2000/svg" width="100" height="100" fill="none"><circle cx="50" cy="32" r="15" fill="#00C26D"/><path stroke="#293349" stroke-linecap="round" stroke-linejoin="round" stroke-width="3" d="m45.642 17.02.91-4.02h7.087l.91 4.02 4.566 2.2 3.712-1.796 4.419 5.542-2.577 3.22 1.127 4.94 3.718 1.782-1.577 6.91-4.123-.008-3.16 3.962.925 4.018-6.387 3.076-2.564-3.228H47.56l-2.564 3.228-6.387-3.076.925-4.018-3.16-3.962-4.122.008-1.578-6.91 3.718-1.783 1.128-4.94-2.578-3.219 4.42-5.542 3.711 1.796 4.567-2.2h.002Zm-5.847 15.09c0 5.69 4.612 10.302 10.302 10.302 5.69 0 10.302-4.613 10.302-10.303s-4.612-10.302-10.302-10.302c-5.69 0-10.302 4.613-10.302 10.302ZM49.866 74.86c4.548 4.549 9.64 9.951 16.051 11.722a3.523 3.523 0 0 1 1.584-6.671h.052c-5.213-1.337-9.198-6.168-13.009-9.702l-.074-.069M49.793 65.35c-5.183-5.186-11.077-11.452-18.821-12.173h-.003a15.603 15.603 0 0 0-1.475-.069c-.102 0-.204 0-.306.003a3.538 3.538 0 0 0-.015 6.905c.07 0 .138-.003.207-.003.364 0 .72.017 1.072.053h.003c6.115.594 10.562 6.157 14.807 10.074l4.604-4.718-.072-.072h-.001ZM36.682 83.07c0 1.322-.739 2.47-1.825 3.059a19.185 19.185 0 0 1-6.282 1.044c-9.2 0-15.901-6.463-16.525-15.623a3.719 3.719 0 0 0 7.248-.373c.459 5.327 4.438 9.09 9.739 9.09.89 0 1.757-.103 2.6-.294.44-.099.873-.221 1.3-.366a3.473 3.473 0 0 1 3.748 3.462l-.003.001Z"/><path stroke="#293349" stroke-linecap="round" stroke-linejoin="round" stroke-width="3" d="M29.173 60.016c-5.517.11-9.716 4.56-9.913 9.744a8.34 8.34 0 0 0-.009.38c0 .352.016.697.045 1.038a3.717 3.717 0 0 1-7.249.373v-.003A20.63 20.63 0 0 1 12 70.14c0-.13 0-.261.004-.392v-.003c.207-8.833 7.358-16.478 17.182-16.636a3.537 3.537 0 0 0-.014 6.906l.001.001ZM87.683 71.392c-.64 8.557-7.788 15.78-17.448 15.78-.9 0-1.775-.075-2.629-.218h-.002a16.949 16.949 0 0 1-1.687-.373 3.523 3.523 0 0 1 1.584-6.671h.055a11.121 11.121 0 0 0 2.794.358c5.443 0 9.649-4.22 10.09-9.254a3.706 3.706 0 0 0 7.243.378v0Z"/><path stroke="#293349" stroke-linecap="round" stroke-linejoin="round" stroke-width="3" d="M87.73 70.14c0 .42-.016.838-.046 1.252a3.704 3.704 0 0 1-7.243-.378 9.848 9.848 0 0 0 .03-1.31c-.2-5.644-4.274-9.692-9.773-9.692-.084 0-.168 0-.25.003a3.525 3.525 0 0 0-.494-6.871c.395-.024.795-.037 1.203-.037 9.63 0 16.359 6.912 16.569 16.567v.002c.003.153.004.306.004.462v.002Z"/><path stroke="#293349" stroke-linecap="round" stroke-linejoin="round" stroke-width="3" d="M72.975 56.635c0 1.6-1.066 2.952-2.529 3.381-.478.01-.95.05-1.416.12-5.658.818-10.334 5.66-14.27 9.706a3.467 3.467 0 0 0-4.633-4.68c5.15-5.156 10.51-10.673 18.091-11.831.565-.088 1.144-.15 1.736-.184a3.527 3.527 0 0 1 3.022 3.489l-.001-.001Z"/><path stroke="#293349" stroke-linecap="round" stroke-linejoin="round" stroke-width="3" d="M55.138 68.267c0 .566-.137 1.102-.378 1.575l-.29.298-1.15 1.178-3.454 3.541c-4.44 4.439-9.011 9.208-15.009 11.268a3.472 3.472 0 0 0 1.825-3.058 3.472 3.472 0 0 0-3.748-3.462c4.805-1.616 8.856-5.906 12.328-9.468l3.266-3.349 1.338-1.37.261-.261a3.468 3.468 0 0 1 5.01 3.106v.002ZM46.31 31.439l3.059 3.06 5.134-5.135"/></svg>
