<?xml version="1.0" encoding="utf-8"?>
<!-- Generator: Adobe Illustrator 28.1.0, SVG Export Plug-In . SVG Version: 6.00 Build 0)  -->
<svg version="1.1" id="Layer_1" xmlns="http://www.w3.org/2000/svg" xmlns:xlink="http://www.w3.org/1999/xlink" x="0px" y="0px"
	 viewBox="0 0 479.2 441.1" style="enable-background:new 0 0 479.2 441.1;" xml:space="preserve">
<style type="text/css">
	.st0{fill:#FFFFFF;}
	.st1{opacity:0.55;}
	.st2{clip-path:url(#SVGID_00000059294677125497475050000017962969376578520493_);}
	.st3{fill:none;stroke:#E9E9E9;stroke-miterlimit:10;}
	.st4{fill:#2B3347;}
	.st5{fill:#E2E9FC;}
	.st6{fill:#00C26D;}
	.st7{fill:#B2B2B2;}
	.st8{fill:#293349;}
	.st9{fill:#57BE75;}
	.st10{fill:#353F5E;}
	.st11{fill:none;stroke:#353F5E;stroke-miterlimit:10;}
	.st12{clip-path:url(#SVGID_00000071561751035699473700000004896092324719416764_);}
	.st13{clip-path:url(#SVGID_00000008848609061888830350000016850849270000486044_);}
</style>
<g>
	<path class="st10" d="M455.1,301.7c-8.8,20.7-21.6,40.3-39.8,53.5c-22.6,16.2-51,21.1-78.1,27.3c-60,13.6-119.2,35.5-180.7,34
		C95,414.9,28.3,381.7,12.7,322.2c-17.1-65.1,31.2-127.1,53.4-190.7c8-22.8,12.9-47.3,26.8-67.1c61.3-87.4,166.1-6.8,238.9,14.2
		C435.2,108.4,501.3,192.7,455.1,301.7z"/>
	<g>
		<path class="st9" d="M366.2,196.1c-2.8-0.1-5.9,0.1-8.2-1.7c-4.9-3.9-0.1-13.5-7.8-18.3c7.8-4.9,1.1-15.9,7.5-21.8
			c2.1-2,5-3,7.9-2.8c1.3,0.1,1.8-1.8,0.4-2c-5.6-0.8-11,2.4-13,7.7c-1.2,3.5-0.6,7.1-1,10.7c-0.3,3.1-1.9,6.7-5.5,6.8
			c-0.7,0.1-1.2,0.6-1.1,1.3c0,0.5,0.4,1,0.9,1.1c3,0.5,5.3,2.7,6,5.7c1.2,4.5-0.4,11.6,5.7,14.5c2.6,1.1,5.4,1.5,8.2,1.2
			c0.6-0.1,1.1-0.7,1-1.3C367.2,196.6,366.8,196.2,366.2,196.1L366.2,196.1z M394.7,174.7c-3.9-1-5.8-1.9-5.4-6.5
			c0.3-3.5,1.3-6.9,0.7-10.5c-0.3-2.9-2-5.4-4.6-6.8c-2.7-1.1-5.6-1.5-8.5-1.2c-1.3,0-1.1,2,0.2,2c8.1,0.1,11.6,2.2,10.5,11.2
			c-0.6,4.7-2.3,10.2,3,12.9c-3.1,2.2-3.4,6.1-2.9,9.6c0.3,2.5,1.8,6.8-0.9,8.4c-2.7,1.5-5.7,2.2-8.7,2.1c-1.7,0-1.4,2.5,0.2,2.6
			c4.4,0.1,12.2-1.6,12.4-7.1c0.1-2.8-0.8-5.6-0.8-8.5c0-2.6,1.3-6.2,4.5-5.8c0.7,0,1.2-0.6,1.2-1.3
			C395.5,175.4,395.2,174.9,394.7,174.7L394.7,174.7z"/>
		<path class="st9" d="M87.7,168.6c-0.6,0.4-0.7,1.2-0.3,1.8c0.1,0.1,0.2,0.3,0.3,0.3c2.1,1.5,16.4,11.4,18.2,11.9
			c1.2,0.4,1.7-1.1,1.1-1.9c-1-1.1-14.5-9.9-16.4-11.1c6.8-5.1,13.4-10.4,19.8-15.9c1.1-0.9-0.5-2.4-1.5-1.5
			C108.7,152.1,101.3,158.7,87.7,168.6z M154.5,167.8c-5.3-4.5-10.5-9.2-15.6-13.9c-0.9-0.8-2.4,0.7-1.5,1.6
			c4.6,4.7,9.4,9.1,14.4,13.4c-3.5,3.4-7.2,6.5-11.1,9.4c-5.7,4.2-1.7,4.8-0.8,4c5.5-4.8,8.1-5.9,14.6-12.5c0.5-0.5,0.6-1.3,0.1-1.9
			C154.6,167.9,154.5,167.9,154.5,167.8z M131.2,148.2c-5.2,9.5-12.7,25.9-17.6,36.2c-1.5,3.2,0.6,5.3,2.8,0.7
			c3.2-6.6,14.9-32.1,16.6-36.2C133.3,147.9,131.7,147.2,131.2,148.2L131.2,148.2z"/>
		<path class="st0" d="M381.7,252.7c-5.1-12.6-12-23.3-25.9-27.1c-17.5-4.8-45,8-58.9,18.5c-22.8,17.2-20.1,32.3-34.9,51.4
			c-9.4-3.2-24.2-11.8-31-14c-1.3-0.7-2.9-0.6-4.2,0.3c-5.6,3.1-11.6,11.3-12,17.7c-0.1,1.8,0,2.4,1.3,3.5c7.9,6.5,19.9,13,29,17.8
			c17.7,9.3,27.4,11.4,42.7-3.1c4.3-4.2,8.4-8.7,12.1-13.4c5.3,14.6,8.7,24.1,9.9,37.6c0.1,0.9,1.6,0.8,1.7-0.1
			c0.3-9.2-6.1-30.3-10.5-38.8c2.7-3.5,5.2-7.3,7.3-11.3c0.4-0.8-0.9-1.7-1.4-0.9c-6.5,9.9-11.3,16.7-19.8,24.9
			c-14.1,13.5-22.2,13-39.3,4.2c-10.8-5.6-21.2-11.9-31.3-18.8c-0.4-7.5,7.8-16.1,12.8-18.6c11.1,4.2,21.6,11.6,32.1,14.7
			c0.6,0.2,1,0.3,1.4-0.1c12.2-13.3,13.4-32.7,30.3-47.6c13.8-12.1,43.6-27.3,62.5-22.2c11.2,3.1,18,11.7,22.6,21.9
			c5.9,13.1,12.4,31.4,14.6,45.7c0.1,0.4,0.5,0.7,0.9,0.7c0.4-0.1,0.7-0.4,0.7-0.8C392.7,280.3,387.2,266.2,381.7,252.7L381.7,252.7
			z"/>
		<path class="st0" d="M226.8,278.2c-4.3-7.9-0.6-9.9-2.9-13.6c-0.4-0.6-1.7-0.2-1.4,0.5c1.2,2.6-1.5,8.5,3.1,14.1
			C226.2,280,227.2,279,226.8,278.2L226.8,278.2z M212,293.1c-3.1-2-5.9-4.5-8.3-7.3c-1.9-2.2-1.6-3.2-5.7-3.2
			c-3.2-0.1-6.6,1.3-7.4,4.7c-0.2,0.8,1.1,1.4,1.3,0.5c1.3-4.1,7.8-3.9,9-2.5c3.2,3.8,5.5,6.9,10,9.4C212,295.3,213,293.8,212,293.1
			L212,293.1z M203.2,277.1c-4.8-0.7-9.7,0.4-13.8,3c-0.7,0.4-0.2,1.6,0.6,1.2c4.1-2,8.6-2.8,13.1-2.3
			C204.3,279.2,204.4,277.3,203.2,277.1L203.2,277.1z M212.3,271.7c-2.4-2.6-6.1-3.5-9.4-2.3c-1.2,0.6-0.9,1.9,0.5,1.5
			c2.7-0.9,5.6,0,7.4,2.1C211.7,273.9,213.1,272.7,212.3,271.7L212.3,271.7z M208.1,273.5c0.5,0.2,0.7,0.8,0.5,1.3s-0.8,0.7-1.3,0.5
			l0,0c-3.8-2.4-8.3-1.8-12.5-1.2c-0.8,0.1-1.1-1.2-0.3-1.4C198.8,271.3,204,271,208.1,273.5L208.1,273.5z"/>
		<path class="st0" d="M159,247.4c-0.7-0.4-1.7,0.5-1.1,1.1c4.6,4.3,9.5,8.5,14.2,12.8c-5.3,0.2-37.5,1.3-38.7,1.8
			c-1.9-0.8-15.5-12.1-16.8-13.8c2.9-0.1,5.7-0.2,8.6-0.2c0.5-0.1,0.9-0.6,0.8-1.1c-0.1-0.5-0.5-0.9-1-0.8c-3.4-0.2-6.9,0-10.3,0.6
			c-0.5,0.1-0.8,0.6-0.7,1.1c0,0.1,0.1,0.3,0.2,0.4c2.8,4.1,12.9,11.9,17.4,15.3c1.5,1.2,3.4,0.3,5.3,0.2
			c11.7-0.2,23.5-1.3,35.2-1.4c2.7,0,6.1,8.9-0.9,10.6c-9.5,2.4-30.5,2.9-39.8,2.8c-4.2-3.1-11.9-9.1-16.5-12.8
			c-0.7-0.5-1.6,0.6-1,1.2c3.6,3,16.4,13.5,16.9,13.5c9.6,0.3,31.6-0.2,41-2.7c6.2-1.6,6.6-8.2,3.9-13
			C173.7,259,161.8,249,159,247.4L159,247.4z M119,257.4c0.3,1.9,0.3,5.6-2,6.5c-0.9,0.3-1.4-1-0.7-1.4c1.3-0.7,0.8-3.9,0.8-5
			c0-0.5,0.4-1,0.9-1C118.5,256.5,118.9,256.9,119,257.4L119,257.4z M137.2,267.9c0.6,3-0.6,6.1-3.2,7.8c-0.4,0.2-0.9,0.1-1.1-0.3
			c-0.2-0.3-0.1-0.6,0.1-0.9c1.8-1.5,2.7-3.8,2.3-6.1C134.7,265.9,136.8,266,137.2,267.9z"/>
		<path class="st0" d="M184.6,280.9c-0.4-1.2-2.3-0.4-2,2.1c0.4,3.2,3.1,2.8,2.2,1.2C183.9,282.7,184.9,281.7,184.6,280.9z"/>
		<path class="st0" d="M304.8,232c-12,2.6-24.3,5.1-36.1,8c-0.9,0.2-0.7,1.9,0.3,1.7c23.3-5.1,34.1-6.4,36.3-8
			C306.1,233.1,305.7,231.9,304.8,232L304.8,232z M240.2,320.7c-16.9,5.9-38.1,13.9-54.3,19.1c-28.5-19-62-39.8-91.7-58
			c4.5-1.4,9.7-2.6,16.5-4.1c1.7-0.4,0.6-2-0.6-1.6c-7.7,1.9-15.1,3.3-18.5,4.4c-1.1,0.4-1.1,1.2-0.3,1.7
			c29.2,20.1,63.7,39.7,94.2,59.9c1.3,0.9,50.9-17.9,55.5-19.5C242,322.2,241.4,320.2,240.2,320.7L240.2,320.7z M183,259.5
			c-0.4-1.4-4-0.2-5.2,0.5c-0.4,0.2-0.6,0.8-0.4,1.2c0.2,0.4,0.6,0.5,1,0.4C180.4,261.3,183.5,260.8,183,259.5z"/>
		<path class="st0" d="M330.1,209.1c0.5-4,1.6-16.9-2-28.1c-4.1-12.8-18.7-18.7-26.2-9.1c-19.5-3.7-30.4,3.7-30.4,8
			c0.1,11.6,23.1,14.6,27.5,20.7c0.1,0.8,1.4,0.6,1.4-0.2c-0.3-4.2,5.4-4.6,5,5c-0.1,2.5-1.1,4.4-0.8,5.2s1.8,2,2.5-3.2
			c2.2,3,5.1,5.3,8.6,6.6c2.6,0.8,11-1.7,13.5-3.2c1.5,3.2,3.1,6.4,4.6,9.5c1.3,2.6,3.1,1.8,1.7-0.9
			C335.5,219.5,330.1,209.2,330.1,209.1L330.1,209.1z M314.3,229.6c0.2,0.4,0,0.9-0.4,1.1c-0.4,0.2-0.8,0.1-1-0.2
			c-1-1.5-2-3-2.9-4.5c-9.3,1.5-12.3-4.4-14.8-11.6c-7.8,0.2,0.4-2.6-5.9-16c-0.3-0.7,0.6-1.4,1.1-0.6c2.6,4.5,3.6,9.8,2.8,15
			c2,0.3,3-0.2,3.3,0.7c5.2,16.6,13.4,9.2,14.7,11.3C312.3,226.2,313.4,227.9,314.3,229.6L314.3,229.6z"/>
		<path class="st9" d="M185.4,286.9c-6.4,2.5-20.6,9.3-26.7,10.1c-6.4,0.8-7.5-6.7-2.2-8.7c10-3.6,20.5-5.9,29.9-10.8
			c2.7-1.4-2.5-2.1-6.9-3.4c-2.3,5.9-30.7,6.5-36.6,6.6l9.9,4.3c0.8,0.3,0.1,1.4-0.6,1.1l-12.8-5.3c-5.1,0.1-8.9,0-9.4-0.1
			c-1.4-0.2-9.7-5.7-14-10.5c-2,1.5-3.1,7.3-1.5,9.3c1.5,1.8,26.4,15,37.2,18.3c6.8,2.1,9,1.1,16.3-1.7c6.2-2.3,12.3-4.8,18.3-7.4
			c0.5-0.3,0.7-0.9,0.5-1.4C186.4,286.8,185.9,286.6,185.4,286.9L185.4,286.9z"/>
		<path class="st9" d="M143.2,231.6c-3.9,0-5.5-3.5-11-1.2c-5.5,2.3-5.2,15.7,1.6,20.5c5.5,3.9,12.9,3.9,18.4,0
			c3.8-3,6.7-11.4,4.2-16.3C152.2,226.5,146.8,231.6,143.2,231.6z"/>
		<path class="st0" d="M146.6,222c-1.6,0.9-4.2,5.5-4.4,8c0,0.4,0.3,0.8,0.7,0.8c0.4,0,0.7-0.2,0.8-0.6c1.2-4.2,3.5-6.1,3.9-7.6
			C147.8,222.1,147.1,221.8,146.6,222z"/>
		<path class="st0" d="M281.2,254.4c-5.4-3.7-11.1-7-16.9-10c-0.8-8.1-6.7-52.5-7.3-55.4c-0.6-2.8-0.5-3.7-5.5-3.7
			s-74,11.3-76.3,11.3s-4.5,1.1-2.7,6.4c1.7,5.1,11.7,53.5,13.1,59.2c0.5,2.1,6.9,7.3,8.7,8.9c1,0.9,2.4-0.6,1.4-1.5
			c-2.7-2.4-5.4-4.9-8-7.3c16.2-3.3,65.8-14.5,75.3-16.9c0.2,0.3,15.2,9.5,17.2,10.7c0.5,0.2,1.1,0,1.3-0.5
			C281.6,255.1,281.5,254.6,281.2,254.4L281.2,254.4z M274.8,260.3c-3.7-3-7.9-5.5-11.9-8.2c-18.8,4.8-37.4,9.4-56.5,13.4
			c-1.1,0.2-1.2-1.3-0.2-1.6c18.4-4.4,36.4-8.5,54.8-13.2c2.8-0.7,3.1,0.1,5.7,1.8c3.4,2.2,6.7,4.2,9.9,6.7c1.6,1.2,1.4,2.1,0,2.6
			c-10,3-37.1,11.2-46.1,12.9c-1,0.2-1.2-1.2-0.3-1.5C244.4,268.4,260.3,264.5,274.8,260.3L274.8,260.3z M267,282
			c-1.3-0.7-15,3.9-16.4,4.7c-0.4,0.3-0.5,0.8-0.3,1.3c0.2,0.3,0.6,0.5,1,0.4c2.1-0.6,15.4-4,16-5.2
			C267.6,282.7,267.4,282.2,267,282L267,282z M189,256.7c-0.6-4-8.8-40-11.6-56c3.2-0.6,51.5-7.2,75.6-10.4c0.5,1.7,6.9,43,7.5,50.1
			C258.8,240.9,191.9,255.5,189,256.7L189,256.7z"/>
		<path class="st0" d="M194.9,205.4c-2.7,0.2-5.5,0.7-8.1,1.6c-0.7,0.3-0.5,1.5,0.3,1.4c2.6-0.4,5.3-0.8,7.9-1.2
			c0.5,0,0.9-0.5,0.8-1C195.9,205.7,195.4,205.4,194.9,205.4L194.9,205.4z M185.2,162.7c-2.7,0.4-5.3,0.7-8,1.1
			c-0.4,0.1-0.7,0.4-0.6,0.8c0,0.3,0.3,0.6,0.6,0.6c2.8,0,5.5-0.2,8.2-0.7c0.5-0.1,0.9-0.5,0.8-1C186.2,163,185.8,162.6,185.2,162.7
			C185.2,162.7,185.2,162.7,185.2,162.7L185.2,162.7z M190.6,178.7c-0.7-0.7-7.9,0.7-9,1.2c-0.7,0.3-0.5,1.5,0.3,1.5
			c1.2-0.1,8.4-0.8,8.9-1.5C191,179.5,190.9,179,190.6,178.7L190.6,178.7z M182.7,143.2c-3,0.4-5.9,0.9-8.8,1.7
			c-0.9,0.2-0.6,1.6,0.3,1.6c0.9,0,8-1.1,8.7-2c0.3-0.4,0.3-0.9-0.1-1.2C182.8,143.3,182.8,143.3,182.7,143.2L182.7,143.2z
			 M179.9,133.1c-2.7,0.2-5.4,0.7-8,1.6c-0.8,0.3-0.5,1.5,0.3,1.4c2.6-0.4,5.2-0.8,7.9-1.1c0.5,0,0.9-0.5,0.9-1
			C180.8,133.4,180.4,133,179.9,133.1C179.9,133.1,179.9,133.1,179.9,133.1L179.9,133.1z M201.3,235.3c-2.7,0.1-5.4,0.6-7.9,1.3
			c-0.4,0.2-0.6,0.6-0.4,1c0.1,0.3,0.4,0.5,0.8,0.5c2.6-0.5,5.2-0.8,7.8-0.9c0.5,0,0.9-0.5,0.9-1S201.9,235.2,201.3,235.3
			C201.4,235.2,201.3,235.3,201.3,235.3L201.3,235.3z M189,217.2c-0.9,0.2-0.6,1.6,0.3,1.6s8-1.1,8.7-2c0.3-0.4,0.2-0.9-0.1-1.2
			c0,0-0.1-0.1-0.1-0.1C194.8,215.9,191.9,216.4,189,217.2L189,217.2z"/>
		<path class="st9" d="M236.1,155.3c-0.2,0-29.5,4-42.4,6c-0.4,0-0.7,0.4-0.6,0.7c0,0.4,0.4,0.7,0.7,0.6c11.2-0.6,31.3-4.6,42.9-5.6
			C237.9,157,237.3,155.1,236.1,155.3z"/>
		<path class="st9" d="M218.3,148.9c-0.1-0.4-0.5-0.7-0.9-0.7c0-0.2-22.2,3.3-25,4.2c-0.8,0.3-0.4,1.5,0.3,1.4
			c8.2-1.1,16.8-2.2,24.9-3.8C218.1,149.8,218.4,149.4,218.3,148.9C218.3,148.9,218.3,148.9,218.3,148.9L218.3,148.9z"/>
		<path class="st9" d="M228.1,166.3c-2.2,0-29.6,4.2-32.3,4.7c-0.9,0.1-0.4,1.5,0.4,1.5c8.6-0.8,23.4-3.5,31.9-4.4
			C229.1,167.9,229.1,166.2,228.1,166.3L228.1,166.3z"/>
		<path class="st9" d="M230.1,135.8c-10.8,2.1-30.9,4.2-41.1,6.4c-0.7,0.1-0.4,1.5,0.2,1.4c12.3-1.9,35.1-4.8,41.2-6
			C231.6,137.4,231.3,135.6,230.1,135.8z"/>
		<path class="st9" d="M229,125.7L229,125.7c-13.2,2.1-29,4-42.3,6.3c-0.8,0.1-0.6,1.5,0.2,1.4c13-1.2,29.5-3.9,42.4-5.9
			C230.3,127.3,230,125.5,229,125.7L229,125.7z"/>
		<path class="st9" d="M242.9,171.9L242.9,171.9c-14.3,2.1-30.2,4.5-44.7,6.7c-1,0.1-0.9,1.7,0.1,1.6c13.6-1.4,31.5-4.6,44.9-6.5
			C244.3,173.5,243.9,171.8,242.9,171.9z"/>
		<path class="st9" d="M249.4,225.8c-12.8,2.9-27.3,5.3-41.2,8.6c-0.4,0.1-0.6,0.4-0.6,0.8c0.1,0.4,0.4,0.6,0.8,0.6
			c11.2-1.5,30.4-6.1,41.7-8.3C251.3,227.3,250.6,225.6,249.4,225.8z"/>
		<path class="st9" d="M245.9,235.4c-11.8,2.4-23.5,4.9-35.2,7.4c-1,0.2-0.6,1.6,0.3,1.5c10.7-1.4,24.3-4.7,35.1-7.2
			C247,236.9,247,235.2,245.9,235.4z"/>
		<path class="st9" d="M232.5,222.3c0.5-0.1,0.8-0.6,0.7-1.1c-0.1-0.4-0.5-0.7-0.9-0.7c0-0.2-22.2,3.2-25,4.2
			c-0.8,0.3-0.4,1.5,0.4,1.4C215.8,225,224.4,223.9,232.5,222.3L232.5,222.3z"/>
		<path class="st9" d="M228.9,181.8c-9.7,1.4-19.4,3-29,4.8c-0.8,0.2-0.5,1.5,0.3,1.4c6.9-0.9,20-3.1,29-4.6
			C230.1,183.2,229.8,181.6,228.9,181.8L228.9,181.8z"/>
		<path class="st9" d="M244.1,198L244.1,198c-13.4,1.3-29,4-42.3,6.3c-0.8,0.1-0.6,1.4,0.2,1.4c13-1.2,29.2-4,42.4-5.9
			C245.3,199.6,245.1,197.9,244.1,198L244.1,198z"/>
		<path class="st9" d="M245.2,208.2c-0.8,0.6-41,6.4-41.2,6.4c-0.7,0.1-0.4,1.5,0.2,1.4c13.5-1.7,35.1-4.8,41.2-6
			C246.6,209.8,246.3,207.9,245.2,208.2z"/>
	</g>
</g>
</svg>
