<svg width="326" height="300" viewBox="0 0 326 300" fill="none" xmlns="http://www.w3.org/2000/svg">
<path d="M309.604 205.192C303.618 219.27 294.91 232.6 282.528 241.578C267.153 252.596 247.833 255.928 229.397 260.145C188.579 269.395 148.305 284.289 106.466 283.269C64.6279 282.181 19.2519 259.601 8.63922 219.134C-2.99392 174.858 29.8646 132.691 44.9673 89.4356C50.4097 73.929 53.7431 57.2661 63.1993 43.7997C104.902 -15.6426 176.197 39.1749 225.723 53.4574C296.066 73.7249 341.034 131.059 309.604 205.192Z" fill="#353F5E"/>
<path d="M47.8065 206.409C47.3916 206.28 46.929 206.28 46.8269 205.818C46.6977 205.226 47.2147 205.015 47.5752 204.811C61.7459 196.752 61.6575 197.629 61.4262 196.235C61.2425 195.126 61.2357 194.011 61.0656 192.902C60.8207 191.351 61.3513 191.474 69.1544 190.889C71.1477 190.739 81.427 190.032 81.4814 190.039C82.4883 190.052 82.876 191.018 81.8964 191.515C65.8277 199.663 66.542 196.616 67.787 202.417C68.1339 204.022 67.9434 203.866 47.8134 206.423L47.8065 206.409Z" fill="#00C26D"/>
<path d="M62.6353 159.182C60.3631 158.896 60.3563 158.869 59.2746 161.297C58.2406 163.623 58.2406 163.603 55.914 162.644C50.3763 160.358 39.6344 155.536 39.5323 155.434C38.7296 154.761 38.784 154.04 39.8181 154.04C58.295 154.067 55.4854 156.679 57.8324 151.122C58.6352 149.211 58.6896 149.769 70.7037 155.931C77.2958 159.311 77.5067 159.365 77.3162 160.114C77.0917 161.011 77.2618 161.005 62.6353 159.182Z" fill="#00C26D"/>
<path d="M115.61 113.199C116.08 114.593 116.358 114.96 112.175 116.117C109.93 116.736 112.95 133.235 111.297 133.453C110.467 133.562 110.44 133.48 107.215 125.856C102.093 113.743 101.786 114.151 104.038 113.247C107.011 112.056 107.474 112.267 107.501 110.995C107.93 88.9323 107.413 88.8303 115.617 113.192L115.61 113.199Z" fill="#00C26D"/>
<path d="M85.8943 142.933C85.5338 145.463 84.0439 143.131 74.6286 132.188C73.853 131.283 73.4176 131.419 70.2883 132.99C68.9957 133.636 68.9413 133.691 64.0635 122.577C60.5463 114.573 60.1654 114.368 61.0158 113.845C61.5872 113.491 61.5124 113.328 72.6965 124.693C73.8598 125.876 74.0163 125.21 76.7783 124.121C79.4111 123.088 78.6151 123.217 85.6698 142.076C85.7991 142.362 85.9828 142.668 85.9011 142.927L85.8943 142.933Z" fill="#00C26D"/>
<path d="M214.791 115.756C215.37 111.934 219.002 113.688 218.873 110.9C218.397 100.331 226.445 95.1687 231.384 104.956C231.996 106.173 230.656 106.894 229.962 105.785C225.003 97.8416 221.302 102.378 220.404 111.832C220.356 112.348 220.69 112.403 221.023 112.478C226.588 113.675 225.935 119.571 221.594 120.251C217.043 120.966 214.417 118.265 214.798 115.756H214.791Z" fill="white"/>
<path d="M242.548 121.72C236.657 121.489 235.575 115.579 239.759 114.253C243.739 112.995 239.779 110.118 243.766 103.582C246.242 99.5214 251.297 99.7934 254.358 106.472C254.726 107.268 253.549 108.05 252.862 107.091C252.025 105.935 251.202 104.051 249.215 103.187C245.8 101.705 244.242 106.697 243.528 110.342C242.609 115.014 243.99 113.647 245.154 114.321C249.004 116.545 248.385 121.299 242.541 121.707L242.548 121.72Z" fill="white"/>
<path d="M177.92 109.118C177.532 110.206 178.777 109.941 179.933 110.771C183.478 113.301 181.661 117.021 178.77 117.694C172.464 119.163 168.742 112.654 174.375 110.179C175.022 109.893 175.974 110.199 176.26 109.458C176.539 108.73 175.722 104.575 178.355 100.236C180.811 96.182 185.736 96.2908 189.002 103.106C189.335 103.806 188.281 104.473 187.709 103.908C187.349 103.548 186.628 101.99 185.328 100.78C180.906 96.6717 178.43 103.051 177.913 109.125L177.92 109.118Z" fill="white"/>
<path d="M195.983 111.308C199.52 110.301 195.792 106.112 200.323 100.562C203.473 96.7058 207.854 99.2223 210.14 103.922C210.786 105.241 209.391 105.887 208.691 104.724C203.983 96.8758 199.963 101.548 199.235 110.329C199.187 110.92 199.52 111.022 199.956 111.131C204.487 112.247 204.738 117.687 200.289 118.728C193.595 120.292 190.602 112.838 195.976 111.315L195.983 111.308Z" fill="white"/>
<path d="M202.833 196.153C202.833 198.091 202.499 198.418 200.561 198.268C184.206 197.017 184.172 197.438 184.308 195.507C185.478 178.708 184.825 178.694 186.737 178.817C203.452 179.898 203.425 179.463 203.377 180.782C202.962 192.766 202.846 191.739 202.833 196.153ZM201.411 181.428C200.996 181.013 201.411 181.51 187.819 180.265C186.165 180.116 186.526 180.911 186.322 184.686C185.71 195.772 185.342 195.806 186.71 195.847C200.22 196.255 200.894 197.425 200.976 195.772C201.67 181.564 201.982 182 201.418 181.435L201.411 181.428Z" fill="#00C26D"/>
<path d="M231.956 196.772C232.759 181.53 232.242 181.7 233.942 181.687C236.888 181.653 247.82 182.523 249.759 182.618C251.467 182.7 250.861 183.19 250.48 196.724C250.372 200.519 250.766 201.199 248.8 201.145C243.528 200.995 238.255 200.471 233.01 199.927C231.588 199.778 231.949 198.996 231.949 196.778L231.956 196.772ZM249.086 186.828C249.215 186.828 249.038 185.998 249.14 185.203C249.331 183.679 249.242 184.155 234.847 183.033C233.5 182.931 234.167 182.958 233.242 197.268C233.092 199.567 233.929 197.982 247.712 199.492C249.031 199.635 248.589 199.621 249.079 186.835L249.086 186.828Z" fill="#00C26D"/>
<path d="M175.823 196.928C160.91 195.69 160.781 196.098 160.808 194.704C160.89 189.896 161.645 184.448 161.788 178.918C161.842 176.851 161.761 177.524 178.972 178.504C180.421 178.585 179.993 178.558 179.102 195.01C178.986 197.18 178.945 196.921 175.823 196.921V196.928ZM174.299 195.119C177.816 195.248 177.299 195.194 177.503 191.841C178.217 179.986 178.666 180.061 177.217 179.959C163.053 178.966 163.142 178.49 163.053 179.673C162.72 184.271 162.659 188.923 162.148 193.521C161.951 195.303 163.829 193.983 174.292 195.126L174.299 195.119Z" fill="#00C26D"/>
<path d="M211.589 180.422C227.767 181.306 227.692 180.755 227.61 182.802C226.944 200.111 227.61 200.009 225.127 199.853C220.63 199.567 210.113 198.737 209.698 198.69C207.915 198.486 208.453 198.533 209.365 183.605C209.562 180.32 209.235 180.299 211.589 180.428V180.422ZM225.263 197.499C225.311 196.336 225.284 197.499 225.882 183.985C225.957 182.306 226.012 182.979 211.902 181.87C209.603 181.687 211.174 183.264 209.916 196.234C209.841 197.037 210.045 197.459 210.977 197.472C221.209 197.642 225.209 199.125 225.27 197.499H225.263Z" fill="#00C26D"/>
<path d="M200.919 175.667C186.449 174.579 185.463 175.178 185.647 172.927C185.824 170.73 186.538 161.718 186.626 158.175C186.688 155.978 186.551 156.386 196.395 156.985C204.688 157.495 204.797 157.114 204.613 159.154C203.076 176.001 205.96 175.633 200.919 175.661V175.667ZM190.062 158.025C187.81 157.903 187.878 157.794 187.66 161.283C186.905 173.117 186.422 173.301 188.103 173.321C200.947 173.511 202.3 175.13 202.266 172.933C202.246 171.485 202.913 160.12 202.94 159.787C203.042 158.549 203.042 158.739 190.069 158.032L190.062 158.025Z" fill="#00C26D"/>
<path d="M181.122 159.311C180.374 174.137 180.966 174.579 178.871 174.45C167.523 173.736 167.503 173.511 163.673 173.314C161.53 173.205 162.149 173.239 163.026 160.297C163.285 156.502 162.843 155.155 164.809 155.284C181.245 156.379 181.19 155.801 181.17 157.121C181.136 159.29 181.224 159.317 181.116 159.317L181.122 159.311ZM165.693 156.679C163.523 156.529 165.169 156.93 163.577 170.988C163.414 172.41 163.55 171.784 175.748 172.614C180.299 172.92 178.122 173.049 179.469 159.181C179.667 157.141 179.755 157.658 165.693 156.672V156.679Z" fill="#00C26D"/>
<path d="M186.757 149.007C187.791 134.282 187.247 134.377 188.982 134.459C202.37 135.105 201.853 135.255 204.2 135.336C206.139 135.404 205.438 135.67 204.792 152.156C204.737 153.604 203.812 153.598 198.485 153.108C185.723 151.938 186.75 153.339 186.75 149L186.757 149.007ZM190.71 135.955C189.988 136.139 188.846 135.438 188.771 137.016C188.58 141.179 188.308 145.334 188.097 149.469C187.968 151.925 187.893 150.694 201.533 151.795C203.805 151.979 203.023 152.054 203.86 137.792C203.935 136.472 203.962 136.914 190.71 135.955Z" fill="#00C26D"/>
<path d="M166.985 133.296C182.339 134.01 182.387 133.657 182.285 135.568C181.475 150.292 181.625 148.075 181.584 150.476C181.55 152.7 180.863 152.312 172.332 151.666C163.522 150.993 163.263 151.306 163.393 149.599C163.393 149.571 164.501 135.133 164.501 135.078C164.542 133.215 164.576 133.181 166.985 133.296ZM180.529 137.016C180.611 134.949 180.74 135.806 166.808 134.69C164.794 134.527 166.148 135.513 164.74 148.408C164.529 150.32 164.692 149.551 178.849 150.551C180.244 150.653 179.999 150.68 180.529 137.01V137.016Z" fill="#00C26D"/>
<path fill-rule="evenodd" clip-rule="evenodd" d="M151.039 132.813C159.297 133.187 159.318 133.187 159.236 134.745C158.556 147.062 158.556 147.524 158.549 148.748C158.549 148.986 158.549 149.258 158.542 149.653C158.508 151.591 157.984 151.544 152.215 151.074C151.358 151.006 150.392 150.925 149.29 150.843C147.882 150.734 146.698 150.653 145.691 150.585C145.236 150.551 144.814 150.523 144.433 150.496C143.882 149.932 143.263 149.388 142.562 148.871C143.283 149.014 144.548 149.075 146.732 149.177C148.814 149.279 151.726 149.422 155.807 149.707H155.821C156.073 149.728 156.27 149.741 156.427 149.666C156.998 149.401 157.046 148.007 157.277 141.573C157.331 140.063 157.399 138.281 157.481 136.166C157.481 136.166 157.481 136.119 157.481 136.098C157.501 135.676 157.508 135.384 157.386 135.166C157.093 134.677 156.073 134.622 152.705 134.439C150.685 134.33 147.821 134.167 143.759 133.847C142.562 133.752 142.555 134.058 142.453 137.003C142.385 139.029 142.269 142.308 141.691 147.565C141.657 147.851 141.637 148.075 141.664 148.252C141.582 148.197 141.501 148.15 141.419 148.095C141.099 147.898 140.773 147.701 140.439 147.517C140.528 146.32 140.678 144.402 140.834 142.396V142.382C141.133 138.499 141.453 134.275 141.453 134.248C141.494 132.364 141.528 132.337 143.936 132.466C146.807 132.616 149.14 132.725 151.039 132.813ZM149.998 195.881C150.862 195.949 151.78 196.023 152.773 196.105C153.1 196.105 153.399 196.105 153.664 196.105C155.889 196.125 155.95 196.125 156.059 194.187C156.263 190.433 156.44 187.535 156.583 185.298C156.95 179.394 157.025 178.109 156.515 177.796C156.372 177.708 156.182 177.694 155.937 177.681C154.045 177.572 152.365 177.47 150.868 177.374C151.018 177.885 151.154 178.401 151.277 178.918C152.168 178.986 153.134 179.054 154.182 179.129H154.195C154.481 179.15 154.685 179.163 154.835 179.265C155.256 179.558 155.182 180.557 154.903 184.407C154.787 186.039 154.631 188.188 154.46 191.011C154.433 191.439 154.42 191.813 154.406 192.14C154.324 194.377 154.318 194.405 151.256 194.289C151.039 194.269 150.828 194.241 150.617 194.221C150.433 194.772 150.229 195.323 150.004 195.867L149.998 195.881ZM149.256 173.151C150.902 173.273 153.018 173.423 155.821 173.6C157.44 173.702 157.454 173.457 157.719 166.459C157.801 164.418 157.896 161.807 158.066 158.46C158.08 158.46 158.086 158.46 158.093 158.46C158.12 158.447 158.12 158.386 158.114 158.107C158.114 157.807 158.1 157.263 158.114 156.264V156.25C158.114 156.046 158.114 155.89 158.059 155.76C157.848 155.332 156.882 155.284 152.644 155.067C151.236 154.992 149.46 154.903 147.229 154.774C147.413 155.243 147.569 155.72 147.685 156.182C148.372 156.223 149.004 156.264 149.589 156.298C154.631 156.597 156.018 156.685 156.338 157.311C156.461 157.549 156.427 157.862 156.386 158.297V158.358C155.95 162.827 155.882 165.84 155.835 167.866C155.78 170.192 155.76 171.213 155.25 171.621C154.848 171.94 154.154 171.893 152.916 171.811L152.658 171.791C151.039 171.682 149.637 171.6 148.413 171.532C148.705 172.063 148.984 172.607 149.243 173.158L149.256 173.151Z" fill="#00C26D"/>
<path d="M233.765 151.693C234.799 136.969 234.255 137.064 235.989 137.145C249.378 137.792 248.861 137.941 251.208 138.023C253.147 138.091 252.446 138.356 251.8 154.842C251.745 156.291 250.82 156.284 245.493 155.794C232.731 154.624 233.758 156.053 233.758 151.686L233.765 151.693ZM237.717 138.648C236.996 138.832 235.853 138.132 235.779 139.709C235.588 143.872 235.316 148.027 235.105 152.162C234.976 154.618 234.901 153.387 248.541 154.488C250.813 154.672 250.031 154.747 250.868 140.485C250.942 139.165 250.997 139.635 237.717 138.648Z" fill="#00C26D"/>
<path d="M232.575 173.858C233.609 159.134 233.065 159.229 234.8 159.31C248.188 159.957 247.671 160.106 250.018 160.188C251.957 160.256 251.256 160.521 250.61 177.007C250.556 178.456 249.631 178.449 244.304 177.959C231.541 176.789 232.569 178.19 232.569 173.851L232.575 173.858ZM236.528 160.786C235.807 160.97 234.664 160.269 234.589 161.847C234.399 166.01 234.126 170.165 233.916 174.3C233.786 176.755 233.711 175.524 247.352 176.626C249.624 176.81 248.835 176.885 249.678 162.623C249.753 161.33 249.78 161.772 236.528 160.786Z" fill="#00C26D"/>
<path d="M213.996 136.01C229.344 136.812 229.398 136.37 229.296 138.281C228.487 153.006 228.636 150.789 228.596 153.19C228.562 155.414 227.874 155.026 219.343 154.38C210.534 153.706 210.275 154.019 210.404 152.312C210.404 152.285 211.513 137.846 211.513 137.792C211.615 135.908 211.588 135.881 213.996 136.01ZM227.534 139.703C227.616 137.635 227.745 138.492 213.813 137.377C211.799 137.214 213.153 138.2 211.745 151.095C211.534 153.006 211.697 152.244 225.854 153.237C227.276 153.339 227.004 153.366 227.534 139.696V139.703Z" fill="#00C26D"/>
<path d="M222.132 109.091C222.316 108.601 221.745 107.615 222.962 107.669C242.14 108.581 240.929 108.343 240.718 109.166C240.568 109.764 240.929 110.758 239.63 110.588C235.602 110.057 221.67 110.356 222.132 109.091Z" fill="white"/>
<path d="M173.061 107.078C155.204 106.072 156.503 106.33 156.7 105.629C156.857 105.085 156.544 104.16 157.734 104.235C175.15 105.344 175.082 104.935 175.15 105.398C175.232 105.915 175.123 106.459 175.048 107.004C175.048 107.187 173.061 107.133 173.061 107.078Z" fill="white"/>
<path d="M215.649 109.35C199.573 108.5 200.478 108.704 200.736 107.901C200.92 107.33 200.478 106.425 201.825 106.506C218.628 107.561 218.309 106.894 217.975 107.853C217.533 109.146 218.982 109.527 215.649 109.35Z" fill="white"/>
<path d="M196.756 106.867C196.599 107.411 197.116 108.364 195.851 108.289C179.136 107.303 179.014 107.779 179.415 106.84C179.626 106.35 179.102 105.364 180.245 105.418C198.443 106.309 196.987 106.092 196.756 106.867Z" fill="white"/>
<path d="M226.342 176.742L211.668 175.98C210.736 175.926 210.015 175.144 210.069 174.212L210.831 159.542C210.886 158.61 211.668 157.889 212.6 157.944L227.274 158.705C228.206 158.76 228.927 159.542 228.873 160.474L228.111 175.144C228.07 176.076 227.274 176.796 226.342 176.742Z" fill="#00C26D"/>
<path d="M155.306 116.402C149.36 116.844 148.02 109.941 152.544 108.778C153.755 108.465 153.919 107.826 153.966 106.792C154.395 97.8008 159.443 95.1144 163.035 97.7464C164.375 98.7258 167.661 102.473 166.266 103.249C164.973 103.969 165.028 101.882 162.776 99.8888C158.565 96.1685 156.116 102.262 155.592 107.846C155.51 108.751 156.422 108.159 158.123 109.24C161.381 111.308 160.81 115.987 155.306 116.395V116.402Z" fill="white"/>
<path fill-rule="evenodd" clip-rule="evenodd" d="M262.093 109.832C265.923 110.016 266.032 110.022 266.453 110.485C273.563 118.157 274.658 118.986 274.767 119.932C274.787 120.129 274.767 120.326 274.753 120.591L269.168 217.501C269.039 219.596 268.549 220.059 266.426 219.984C250.827 219.243 237.132 218.59 225.118 218.018C141.278 214.033 138.958 213.924 139.047 212.727C139.135 211.523 192.818 214.434 230.472 216.475C249.562 217.508 264.521 218.318 266.297 218.256C266.739 218.229 265.882 216.291 262.936 216.162C195.308 212.972 166.891 211.258 152.694 210.347C153.265 210 153.401 209.551 153.211 208.98C164.102 209.558 178.96 210.415 194.253 211.292C228.152 213.244 264.161 215.312 263.685 214.761C263.134 214.135 262.712 213.632 262.208 213.224C258.943 210.551 252.426 211.836 185.613 208.075C170.354 207.218 159.252 206.647 151.183 206.232C150.857 205.878 150.503 205.497 150.122 205.096C149.904 204.865 149.687 204.634 149.455 204.382C184.777 206.014 255.453 210.047 259.807 210.319C260.038 210.333 260.222 210.408 260.372 210.367C261.467 210.075 261.004 203.926 264.018 128.909C264.093 127.127 264.066 127.127 262.344 127.046C261.97 127.032 261.603 127.019 261.249 127.005C249.31 126.556 245.82 126.42 138.196 120.224C138.094 120.224 137.979 120.224 137.856 120.224C137.278 120.238 136.591 120.251 136.591 119.524C136.611 118.66 137.312 118.769 137.911 118.857C138.033 118.878 138.142 118.891 138.251 118.898C138.979 118.939 140.455 119.014 142.564 119.129C164.197 120.285 251.773 124.958 263.433 125.903C263.932 125.944 264.238 124.212 264.351 120.707C264.406 119.048 264.481 116.864 264.596 113.988C264.644 112.539 263.95 111.784 262.501 111.716C246.936 110.968 245.119 111.036 245.01 110.635C244.99 110.553 245.038 110.451 245.058 110.315C245.072 110.206 245.078 110.097 245.078 109.988C245.106 109.397 245.133 108.805 246.242 108.893C254.535 109.458 259.303 109.682 262.093 109.818V109.832ZM133.659 145.348C134.183 134.636 134.815 122.02 135.584 107.152C135.67 105.602 136.48 104.883 138.013 104.996C138.06 104.996 138.115 105.003 138.169 105.01C140.496 105.18 142.829 105.323 145.163 105.459C147.496 105.602 149.829 105.745 152.156 105.908C153.034 105.983 153.041 105.527 153.041 105.085C153.041 104.928 153.041 104.772 153.081 104.643C153.136 104.48 153.183 104.357 153.149 104.269C153.027 103.901 151.653 103.956 144.319 103.589C142.054 103.629 140.251 103.527 138.829 103.446C135.822 103.276 134.543 103.201 134.373 104.799C133.23 115.654 132.421 130.188 131.754 145.253C132.387 145.239 133.026 145.273 133.659 145.341V145.348ZM138.21 209.49C140.448 209.571 142.788 209.707 146.448 209.945C146.02 209.599 145.51 209.156 144.863 208.599C144.843 208.585 144.822 208.565 144.809 208.551C142.938 208.463 141.326 208.388 140.006 208.34C139.421 208.748 138.822 209.136 138.21 209.49ZM268.909 195.044C269.739 181.068 271.107 158.161 273.399 120.714C273.413 120.462 273.454 120.319 273.433 120.183C273.386 119.823 272.943 119.517 270.637 117.307C270.311 116.994 269.365 137.642 268.358 159.773C267.324 182.353 266.222 206.477 265.637 211.455C265.44 213.108 264.739 212.537 264.678 211.251C264.562 208.701 265.011 200.22 266.474 172.396C267.181 158.889 268.134 140.825 269.372 116.667C269.372 116.429 269.392 116.273 269.372 116.13C269.29 115.695 268.828 115.327 266.562 112.947C266.161 112.518 265.481 132.915 264.725 155.427C264.059 175.198 263.344 196.608 262.712 206.987C262.453 211.21 263.535 212.401 265.882 214.985C266.338 215.488 266.834 216.039 267.385 216.672C267.61 216.937 267.637 216.495 268.916 195.044H268.909Z" fill="white"/>
<path d="M152.047 185.822C151.985 200.601 139.617 213.163 124.807 213.231C108.011 213.312 94.9897 200.492 95.1122 183.727C95.221 168.948 107.181 156.298 123.358 156.468C139.019 156.631 152.108 169.493 152.04 185.815L152.047 185.822ZM122.59 158.026C108.426 158.209 96.6973 169.397 96.466 183.938C96.2347 198.642 108.276 211.565 124.011 211.605C139.053 211.639 150.836 199.771 150.577 184.788C150.319 170.084 138.094 157.822 122.59 158.026Z" fill="white"/>
<path d="M141.325 145.233C141.808 145.627 141.277 146.368 140.754 146.008C139.543 145.171 138.4 144.689 137.91 146.008C137.679 146.627 138.352 146.525 138.611 146.654C153.394 153.088 147.162 168.125 144.298 164.065C139.434 157.169 131.447 152.891 122.821 154.401C121.528 154.625 121.236 154.326 121.474 152.979C122.127 149.307 124.528 147.205 127.855 146.001C133.264 144.056 136.196 146.749 136.903 145.355C137.876 143.437 138.549 143.335 140.311 144.525C140.665 144.77 141.005 144.967 141.318 145.226L141.325 145.233ZM144.89 162.44C145.121 162.725 145.536 162.671 145.693 162.365C147.849 158.033 145.672 151.769 138.971 148.443C132.876 145.416 125.12 146.341 122.848 152.394C122.719 152.734 123.005 153.095 123.365 153.068C133.121 152.218 138.345 154.387 144.89 162.446V162.44Z" fill="white"/>
<path d="M86.3304 153.918C86.8475 153.952 86.9767 154.673 86.4869 154.87C84.5821 155.645 82.5344 157.475 83.9766 158.488C84.963 159.182 85.2147 160.012 85.9903 158.93C92.4872 149.817 105.474 152.238 104.855 155.21C102.399 166.99 88.004 180.245 85.4733 176.396C82.3711 171.669 82.1194 166.752 84.3372 161.644C85.1807 159.699 80.303 159.393 82.7316 156.244C83.7113 154.979 85.0583 153.836 86.3236 153.918H86.3304ZM98.399 153.707C86.7182 154.741 81.8609 165.255 84.8066 172.954C86.2284 176.675 86.3508 177.028 89.9224 174.478C96.5826 169.717 100.902 163.127 103.569 155.434C104.018 154.135 99.7392 153.707 98.399 153.707Z" fill="white"/>
<path d="M88.3501 185.591C88.3297 183.911 88.8944 177.661 90.289 176.729C90.6019 176.525 90.9897 176.185 91.3231 176.396C91.7653 176.675 91.3231 177.096 91.2482 177.43C86.7242 192.025 93.9354 205.825 105.412 211.789C106.365 212.286 106.052 212.925 105.854 213.517C105.507 214.544 88.6359 206.518 88.357 185.591H88.3501Z" fill="white"/>
<path d="M113.495 213.802C113.366 216.054 112.604 217.781 110.883 223.052C110.257 224.963 108.869 224.392 106.719 224.031C105.012 223.746 105.134 222.814 107.338 212.02C107.93 209.13 113.849 211.633 113.488 213.802H113.495ZM112.175 214.034C112.434 212.945 110.726 212.694 109.59 212.224C108.842 211.918 108.577 212.224 108.427 212.945C107.828 215.788 107.345 218.631 107.005 221.494C106.937 222.093 106.672 222.753 107.679 222.814C108.509 222.862 109.434 223.406 109.774 221.984C110.216 220.127 111.74 216.842 112.175 214.027V214.034Z" fill="white"/>
<path d="M115.767 149.756C115.753 151.231 113.161 150.687 112.923 151.823C112.719 152.803 114.597 154.959 113.753 155.231C112.529 155.625 112.59 151.612 111.454 152.082C110.882 152.313 111.025 152.374 112.025 155.312C112.256 155.985 111.515 156.237 111.25 155.598C110.188 153.027 110.345 152.367 109.413 152.911C109.358 152.939 109.256 152.966 109.181 152.986C108.46 153.061 107.712 154.068 107.086 153.401C106.317 152.571 106.127 151.327 105.766 150.252C105.644 149.885 106.052 149.66 106.385 149.531C114.182 146.477 114.216 146.253 114.501 146.79C114.535 146.865 115.767 149.681 115.767 149.762V149.756ZM107.522 152.34C107.651 152.469 107.855 152.496 108.011 152.415C110.127 151.565 112.216 150.776 114.216 149.803C114.91 149.463 114.236 148.695 113.957 148.198C113.515 147.423 113.427 147.742 107.29 150.266C106.93 150.415 106.739 150.579 106.957 151.041C107.324 151.823 107.168 151.993 107.528 152.333L107.522 152.34Z" fill="white"/>
<path d="M149.204 211.143C147.694 211.143 147.251 210.619 144.115 207.94C143.21 207.164 144.006 206.471 144.789 207.11C145.612 207.783 146.469 208.484 147.299 209.15C148.741 210.313 152.905 209.769 151.667 208.606C150.088 207.13 148.823 205.355 147.353 203.777C147.02 203.417 146.524 203.022 147.095 202.54C147.612 202.097 147.918 202.648 148.204 202.982C152.952 208.429 156.32 210.477 149.211 211.143H149.204Z" fill="white"/>
<path d="M122.509 159.855C144.918 160.291 154.428 182.292 144.891 198.146C144.625 198.581 144.346 198.921 143.802 198.608C143.156 198.241 143.55 197.86 143.802 197.473C158.823 174.328 127.421 148.953 107.005 167.942C106.848 168.071 106.039 169.241 105.352 168.044C104.671 166.86 113.985 159.685 122.509 159.855Z" fill="white"/>
<path d="M98.8418 183.884C98.8418 179.361 100.543 173.981 101.454 173.832C101.971 173.75 102.468 174.145 102.046 175.124C95.8689 189.413 105.638 205.573 120.292 207.702C135 209.837 140.864 200.003 141.742 200.622C142.469 201.138 141.844 202.07 141.095 202.737C124.503 217.618 98.8146 205.654 98.8418 183.877V183.884Z" fill="white"/>
<path d="M122.357 181.612C122.432 182.802 121.432 182.796 121.119 181.925C119.187 176.566 120.214 180.014 115.799 165.935C115.588 165.262 115.384 164.562 116.085 164.33C116.908 164.065 117.071 164.745 118.071 167.847C119.398 171.954 121.432 177.817 122.364 181.619L122.357 181.612Z" fill="white"/>
<path d="M134.918 196.684C134.088 196.167 132.497 194.772 129.149 192.018C125.537 189.039 125.204 188.74 125.714 188.141C126.238 187.529 126.558 187.713 135.585 195.582C136.333 196.235 135.987 197.343 134.918 196.677V196.684Z" fill="white"/>
<path d="M122.977 187.937C119.671 187.91 120.188 182.952 123.311 183.054C126.488 183.156 126.052 187.964 122.977 187.937ZM124.215 185.591C124.215 185.591 124.215 185.516 124.243 185.489C124.27 183.809 122.1 183.993 121.991 185.618C121.896 187.094 123.903 187.094 124.215 185.591Z" fill="white"/>
</svg>
