<svg xmlns="http://www.w3.org/2000/svg" width="98" height="98" fill="none"><circle cx="49.979" cy="43.12" r="14.7" fill="#00C26D"/><path stroke="#293349" stroke-linecap="round" stroke-linejoin="round" stroke-width="3" d="M80.796 19.927a5.445 5.445 0 0 1 5.444 5.444v35.39a5.445 5.445 0 0 1-5.444 5.443H18.185a5.445 5.445 0 0 1-5.445-5.444V25.371a5.445 5.445 0 0 1 5.445-5.444M12.74 55.316h73.5M48.129 60.76h2.722M57.658 66.204H41.324v12.25h16.334v-12.25ZM39.962 78.454h19.056a5.449 5.449 0 0 1 5.444 5.445v1.36H34.518V83.9a5.449 5.449 0 0 1 5.444-5.445Z"/><path stroke="#293349" stroke-linecap="round" stroke-linejoin="round" stroke-width="3" d="M23.629 49.871V17.204a5.445 5.445 0 0 1 5.444-5.444h40.834a5.445 5.445 0 0 1 5.444 5.444v32.667M23.629 22.649H75.35"/><path stroke="#293349" stroke-linecap="round" stroke-linejoin="round" stroke-width="3" d="M41.323 32.177 35.88 37.62l5.444 5.445M57.656 32.177l5.445 5.444-5.445 5.445M52.212 29.454l-5.444 16.334"/></svg>
